STARTFONT 2.1
COMMENT 
COMMENT  **************************************************************
COMMENT     THIS font is ALPHA version!
COMMENT  **************************************************************
COMMENT 
COMMENT  12x12 JIS X 0213-2000 Kanji Font, Version 0.16 (Nov. 17, 2001)
COMMENT  This bdf font set was designed and rescaled from 
COMMENT  jikan16-2000-[12].bdf and K14-[12].bdf
COMMENT  by
COMMENT     Toshiyuki Imamura <imamura@mbd.sphere.ne.jp>
COMMENT 
FONT -Misc-Fixed-Medium-R-Normal--12-110-75-75-C-120-JISX0213.2000-1
SIZE 12 75 75
FONTBOUNDINGBOX 12 12 0 -2
STARTPROPERTIES 19
FONT_ASCENT 10
FONT_DESCENT 2
DEFAULT_CHAR 8481
COPYRIGHT "Public Domain"
FONTNAME_REGISTRY ""
FOUNDRY "Misc"
FAMILY_NAME "Fixed"
WEIGHT_NAME "Medium"
SLANT "R"
SETWIDTH_NAME "Normal"
ADD_STYLE_NAME ""
PIXEL_SIZE 12
POINT_SIZE 110
RESOLUTION_X 75
RESOLUTION_Y 75
SPACING "C"
AVERAGE_WIDTH 120
CHARSET_REGISTRY "JISX0213.2000"
CHARSET_ENCODING "1"
ENDPROPERTIES
CHARS 8787
STARTCHAR 01-01-01
ENCODING 8481
SWIDTH 960 0
DWIDTH 12 0
BBX 12 12 0 -2
BITMAP
0000
0000
0000
0000
0000
0000
0000
0000
0000
0000
0000
0000
ENDCHAR
STARTCHAR 01-01-02
ENCODING 8482
SWIDTH 960 0
DWIDTH 12 0
BBX 12 12 0 -2
BITMAP
0000
0000
0000
0000
0000
0000
0000
0000
4000
3000
1800
1800
ENDCHAR
STARTCHAR 01-01-03
ENCODING 8483
SWIDTH 960 0
DWIDTH 12 0
BBX 12 12 0 -2
BITMAP
0000
0000
0000
0000
0000
0000
0000
0000
3000
4800
4800
3000
ENDCHAR
STARTCHAR 01-01-04
ENCODING 8484
SWIDTH 960 0
DWIDTH 12 0
BBX 12 12 0 -2
BITMAP
0000
0000
0000
0000
0000
0000
0000
0000
3000
3000
1000
2000
ENDCHAR
STARTCHAR 01-01-05
ENCODING 8485
SWIDTH 960 0
DWIDTH 12 0
BBX 12 12 0 -2
BITMAP
0000
0000
0000
0000
0000
0000
0000
0000
3000
3000
0000
0000
ENDCHAR
STARTCHAR 01-01-06
ENCODING 8486
SWIDTH 960 0
DWIDTH 12 0
BBX 12 12 0 -2
BITMAP
0000
0000
0000
0000
0000
0600
0600
0000
0000
0000
0000
0000
ENDCHAR
STARTCHAR 01-01-07
ENCODING 8487
SWIDTH 960 0
DWIDTH 12 0
BBX 12 12 0 -2
BITMAP
0000
0000
0000
0000
0600
0600
0000
0000
0600
0600
0000
0000
ENDCHAR
STARTCHAR 01-01-08
ENCODING 8488
SWIDTH 960 0
DWIDTH 12 0
BBX 12 12 0 -2
BITMAP
0000
0000
0000
0000
0600
0600
0000
0000
0600
0600
0200
0400
ENDCHAR
STARTCHAR 01-01-09
ENCODING 8489
SWIDTH 960 0
DWIDTH 12 0
BBX 12 12 0 -2
BITMAP
0000
0700
0880
18c0
18c0
0080
0300
0200
0200
0000
0300
0300
ENDCHAR
STARTCHAR 01-01-10
ENCODING 8490
SWIDTH 960 0
DWIDTH 12 0
BBX 12 12 0 -2
BITMAP
0000
0300
0300
0300
0300
0300
0200
0200
0200
0000
0300
0300
ENDCHAR
STARTCHAR 01-01-11
ENCODING 8491
SWIDTH 960 0
DWIDTH 12 0
BBX 12 12 0 -2
BITMAP
0000
0800
2400
1000
0000
0000
0000
0000
0000
0000
0000
0000
ENDCHAR
STARTCHAR 01-01-12
ENCODING 8492
SWIDTH 960 0
DWIDTH 12 0
BBX 12 12 0 -2
BITMAP
0000
1800
2400
2400
1800
0000
0000
0000
0000
0000
0000
0000
ENDCHAR
STARTCHAR 01-01-13
ENCODING 8493
SWIDTH 960 0
DWIDTH 12 0
BBX 12 12 0 -2
BITMAP
0000
0300
0200
0400
0000
0000
0000
0000
0000
0000
0000
0000
ENDCHAR
STARTCHAR 01-01-14
ENCODING 8494
SWIDTH 960 0
DWIDTH 12 0
BBX 12 12 0 -2
BITMAP
0000
0600
0200
0100
0000
0000
0000
0000
0000
0000
0000
0000
ENDCHAR
STARTCHAR 01-01-15
ENCODING 8495
SWIDTH 960 0
DWIDTH 12 0
BBX 12 12 0 -2
BITMAP
0000
0d80
0d80
0000
0000
0000
0000
0000
0000
0000
0000
0000
ENDCHAR
STARTCHAR 01-01-16
ENCODING 8496
SWIDTH 960 0
DWIDTH 12 0
BBX 12 12 0 -2
BITMAP
0000
0200
0500
0880
0000
0000
0000
0000
0000
0000
0000
0000
ENDCHAR
STARTCHAR 01-01-17
ENCODING 8497
SWIDTH 960 0
DWIDTH 12 0
BBX 12 12 0 -2
BITMAP
0000
7ff0
0000
0000
0000
0000
0000
0000
0000
0000
0000
0000
ENDCHAR
STARTCHAR 01-01-18
ENCODING 8498
SWIDTH 960 0
DWIDTH 12 0
BBX 12 12 0 -2
BITMAP
0000
0000
0000
0000
0000
0000
0000
0000
0000
0000
0000
7ff0
ENDCHAR
STARTCHAR 01-01-19
ENCODING 8499
SWIDTH 960 0
DWIDTH 12 0
BBX 12 12 0 -2
BITMAP
0000
0000
0000
0000
1800
0600
0100
0080
0000
0000
0000
0000
ENDCHAR
STARTCHAR 01-01-20
ENCODING 8500
SWIDTH 960 0
DWIDTH 12 0
BBX 12 12 0 -2
BITMAP
0000
0080
0240
0140
1900
0600
0100
0080
0000
0000
0000
0000
ENDCHAR
STARTCHAR 01-01-21
ENCODING 8501
SWIDTH 960 0
DWIDTH 12 0
BBX 12 12 0 -2
BITMAP
0000
0000
0000
0000
1800
0600
0100
0180
0200
0000
0000
0000
ENDCHAR
STARTCHAR 01-01-22
ENCODING 8502
SWIDTH 960 0
DWIDTH 12 0
BBX 12 12 0 -2
BITMAP
0000
0080
0240
0140
1900
0600
0100
0180
0200
0000
0000
0000
ENDCHAR
STARTCHAR 01-01-23
ENCODING 8503
SWIDTH 960 0
DWIDTH 12 0
BBX 12 12 0 -2
BITMAP
0000
0000
0000
0480
0480
0480
0480
0900
0900
1200
0000
0000
ENDCHAR
STARTCHAR 01-01-24
ENCODING 8504
SWIDTH 960 0
DWIDTH 12 0
BBX 12 12 0 -2
BITMAP
0000
0200
0500
0880
1040
6030
3fe0
0200
0200
0200
7ff0
0000
ENDCHAR
STARTCHAR 01-01-25
ENCODING 8505
SWIDTH 960 0
DWIDTH 12 0
BBX 12 12 0 -2
BITMAP
0000
0400
0400
0400
0fc0
0880
1080
2500
0200
0100
0080
0000
ENDCHAR
STARTCHAR 01-01-26
ENCODING 8506
SWIDTH 960 0
DWIDTH 12 0
BBX 12 12 0 -2
BITMAP
0000
0020
0020
0040
0c80
1300
2280
2400
2800
3000
2000
0000
ENDCHAR
STARTCHAR 01-01-27
ENCODING 8507
SWIDTH 960 0
DWIDTH 12 0
BBX 12 12 0 -2
BITMAP
0000
0000
0f80
1040
2020
4010
4010
4010
2020
1040
0f80
0000
ENDCHAR
STARTCHAR 01-01-28
ENCODING 8508
SWIDTH 960 0
DWIDTH 12 0
BBX 12 12 0 -2
BITMAP
0000
0000
0000
0000
0000
0000
41e0
3e00
0000
0000
0000
0000
ENDCHAR
STARTCHAR 01-01-29
ENCODING 8509
SWIDTH 960 0
DWIDTH 12 0
BBX 12 12 0 -2
BITMAP
0000
0000
0000
0000
0000
0000
7ff0
0000
0000
0000
0000
0000
ENDCHAR
STARTCHAR 01-01-30
ENCODING 8510
SWIDTH 960 0
DWIDTH 12 0
BBX 12 12 0 -2
BITMAP
0000
0000
0000
0000
0000
0000
0f80
0000
0000
0000
0000
0000
ENDCHAR
STARTCHAR 01-01-31
ENCODING 8511
SWIDTH 960 0
DWIDTH 12 0
BBX 12 12 0 -2
BITMAP
0000
0010
0020
0040
0080
0100
0200
0400
0800
1000
2000
4000
ENDCHAR
STARTCHAR 01-01-32
ENCODING 8512
SWIDTH 960 0
DWIDTH 12 0
BBX 12 12 0 -2
BITMAP
0000
4000
2000
1000
0800
0400
0200
0100
0080
0040
0020
0010
ENDCHAR
STARTCHAR 01-01-33
ENCODING 8513
SWIDTH 960 0
DWIDTH 12 0
BBX 12 12 0 -2
BITMAP
0000
0000
0000
0000
0000
3800
4620
01c0
0000
0000
0000
0000
ENDCHAR
STARTCHAR 01-01-34
ENCODING 8514
SWIDTH 960 0
DWIDTH 12 0
BBX 12 12 0 -2
BITMAP
0000
0900
0900
0900
0900
0900
0900
0900
0900
0900
0900
0900
ENDCHAR
STARTCHAR 01-01-35
ENCODING 8515
SWIDTH 960 0
DWIDTH 12 0
BBX 12 12 0 -2
BITMAP
0000
0200
0200
0200
0200
0200
0200
0200
0200
0200
0200
0200
ENDCHAR
STARTCHAR 01-01-36
ENCODING 8516
SWIDTH 960 0
DWIDTH 12 0
BBX 12 12 0 -2
BITMAP
0000
0000
0000
0000
0000
6660
6660
0000
0000
0000
0000
0000
ENDCHAR
STARTCHAR 01-01-37
ENCODING 8517
SWIDTH 960 0
DWIDTH 12 0
BBX 12 12 0 -2
BITMAP
0000
0000
0000
0000
0000
18c0
18c0
0000
0000
0000
0000
0000
ENDCHAR
STARTCHAR 01-01-38
ENCODING 8518
SWIDTH 960 0
DWIDTH 12 0
BBX 12 12 0 -2
BITMAP
0000
0040
0080
00c0
00c0
0000
0000
0000
0000
0000
0000
0000
ENDCHAR
STARTCHAR 01-01-39
ENCODING 8519
SWIDTH 960 0
DWIDTH 12 0
BBX 12 12 0 -2
BITMAP
0000
1800
1800
0800
1000
0000
0000
0000
0000
0000
0000
0000
ENDCHAR
STARTCHAR 01-01-40
ENCODING 8520
SWIDTH 960 0
DWIDTH 12 0
BBX 12 12 0 -2
BITMAP
0000
0120
0240
0360
0360
0000
0000
0000
0000
0000
0000
0000
ENDCHAR
STARTCHAR 01-01-41
ENCODING 8521
SWIDTH 960 0
DWIDTH 12 0
BBX 12 12 0 -2
BITMAP
0000
3600
3600
1200
2400
0000
0000
0000
0000
0000
0000
0000
ENDCHAR
STARTCHAR 01-01-42
ENCODING 8522
SWIDTH 960 0
DWIDTH 12 0
BBX 12 12 0 -2
BITMAP
0000
0040
0080
0080
0100
0100
0100
0100
0100
0080
0080
0040
ENDCHAR
STARTCHAR 01-01-43
ENCODING 8523
SWIDTH 960 0
DWIDTH 12 0
BBX 12 12 0 -2
BITMAP
0000
1000
0800
0800
0400
0400
0400
0400
0400
0800
0800
1000
ENDCHAR
STARTCHAR 01-01-44
ENCODING 8524
SWIDTH 960 0
DWIDTH 12 0
BBX 12 12 0 -2
BITMAP
0000
00c0
0300
0200
0200
0200
0200
0200
0200
0200
0300
00c0
ENDCHAR
STARTCHAR 01-01-45
ENCODING 8525
SWIDTH 960 0
DWIDTH 12 0
BBX 12 12 0 -2
BITMAP
0000
1800
0600
0200
0200
0200
0200
0200
0200
0200
0600
1800
ENDCHAR
STARTCHAR 01-01-46
ENCODING 8526
SWIDTH 960 0
DWIDTH 12 0
BBX 12 12 0 -2
BITMAP
0000
03c0
0200
0200
0200
0200
0200
0200
0200
0200
0200
03c0
ENDCHAR
STARTCHAR 01-01-47
ENCODING 8527
SWIDTH 960 0
DWIDTH 12 0
BBX 12 12 0 -2
BITMAP
0000
1e00
0200
0200
0200
0200
0200
0200
0200
0200
0200
1e00
ENDCHAR
STARTCHAR 01-01-48
ENCODING 8528
SWIDTH 960 0
DWIDTH 12 0
BBX 12 12 0 -2
BITMAP
0000
0060
0080
0080
0080
0080
0300
0080
0080
0080
0080
0060
ENDCHAR
STARTCHAR 01-01-49
ENCODING 8529
SWIDTH 960 0
DWIDTH 12 0
BBX 12 12 0 -2
BITMAP
0000
3000
0800
0800
0800
0800
0600
0800
0800
0800
0800
3000
ENDCHAR
STARTCHAR 01-01-50
ENCODING 8530
SWIDTH 960 0
DWIDTH 12 0
BBX 12 12 0 -2
BITMAP
0000
0040
0080
0080
0100
0100
0200
0100
0100
0080
0080
0040
ENDCHAR
STARTCHAR 01-01-51
ENCODING 8531
SWIDTH 960 0
DWIDTH 12 0
BBX 12 12 0 -2
BITMAP
0000
1000
0800
0800
0400
0400
0200
0400
0400
0800
0800
1000
ENDCHAR
STARTCHAR 01-01-52
ENCODING 8532
SWIDTH 960 0
DWIDTH 12 0
BBX 12 12 0 -2
BITMAP
0000
0090
0120
0120
0240
0240
0480
0240
0240
0120
0120
0090
ENDCHAR
STARTCHAR 01-01-53
ENCODING 8533
SWIDTH 960 0
DWIDTH 12 0
BBX 12 12 0 -2
BITMAP
0000
4800
2400
2400
1200
1200
0900
1200
1200
2400
2400
4800
ENDCHAR
STARTCHAR 01-01-54
ENCODING 8534
SWIDTH 960 0
DWIDTH 12 0
BBX 12 12 0 -2
BITMAP
0000
03c0
0200
0200
0200
0200
0200
0200
0200
0200
0000
0000
ENDCHAR
STARTCHAR 01-01-55
ENCODING 8535
SWIDTH 960 0
DWIDTH 12 0
BBX 12 12 0 -2
BITMAP
0000
0000
0000
0200
0200
0200
0200
0200
0200
0200
0200
1e00
ENDCHAR
STARTCHAR 01-01-56
ENCODING 8536
SWIDTH 960 0
DWIDTH 12 0
BBX 12 12 0 -2
BITMAP
0000
03f0
0210
02f0
0280
0280
0280
0280
0280
0280
0380
0000
ENDCHAR
STARTCHAR 01-01-57
ENCODING 8537
SWIDTH 960 0
DWIDTH 12 0
BBX 12 12 0 -2
BITMAP
0000
0000
0e00
0a00
0a00
0a00
0a00
0a00
0a00
7a00
4200
7e00
ENDCHAR
STARTCHAR 01-01-58
ENCODING 8538
SWIDTH 960 0
DWIDTH 12 0
BBX 12 12 0 -2
BITMAP
0000
03c0
0380
0300
0300
0200
0200
0200
0300
0300
0380
03c0
ENDCHAR
STARTCHAR 01-01-59
ENCODING 8539
SWIDTH 960 0
DWIDTH 12 0
BBX 12 12 0 -2
BITMAP
0000
1e00
0e00
0600
0600
0200
0200
0200
0600
0600
0e00
1e00
ENDCHAR
STARTCHAR 01-01-60
ENCODING 8540
SWIDTH 960 0
DWIDTH 12 0
BBX 12 12 0 -2
BITMAP
0000
0000
0200
0200
0200
0200
3fe0
0200
0200
0200
0200
0000
ENDCHAR
STARTCHAR 01-01-61
ENCODING 8541
SWIDTH 960 0
DWIDTH 12 0
BBX 12 12 0 -2
BITMAP
0000
0000
0000
0000
0000
0000
3fe0
0000
0000
0000
0000
0000
ENDCHAR
STARTCHAR 01-01-62
ENCODING 8542
SWIDTH 960 0
DWIDTH 12 0
BBX 12 12 0 -2
BITMAP
0000
0000
0200
0200
0200
3fe0
0200
0200
0200
0000
3fe0
0000
ENDCHAR
STARTCHAR 01-01-63
ENCODING 8543
SWIDTH 960 0
DWIDTH 12 0
BBX 12 12 0 -2
BITMAP
0000
0000
0000
1040
0880
0500
0200
0500
0880
1040
0000
0000
ENDCHAR
STARTCHAR 01-01-64
ENCODING 8544
SWIDTH 960 0
DWIDTH 12 0
BBX 12 12 0 -2
BITMAP
0000
0000
0000
0200
0200
0000
3fe0
0000
0200
0200
0000
0000
ENDCHAR
STARTCHAR 01-01-65
ENCODING 8545
SWIDTH 960 0
DWIDTH 12 0
BBX 12 12 0 -2
BITMAP
0000
0000
0000
0000
3fe0
0000
0000
3fe0
0000
0000
0000
0000
ENDCHAR
STARTCHAR 01-01-66
ENCODING 8546
SWIDTH 960 0
DWIDTH 12 0
BBX 12 12 0 -2
BITMAP
0000
0000
0100
0100
3fe0
0200
0200
3fe0
0400
0400
0000
0000
ENDCHAR
STARTCHAR 01-01-67
ENCODING 8547
SWIDTH 960 0
DWIDTH 12 0
BBX 12 12 0 -2
BITMAP
0000
0020
00c0
0100
0600
0800
3000
0800
0600
0100
00c0
0020
ENDCHAR
STARTCHAR 01-01-68
ENCODING 8548
SWIDTH 960 0
DWIDTH 12 0
BBX 12 12 0 -2
BITMAP
0000
2000
1800
0400
0300
0080
0060
0080
0300
0400
1800
2000
ENDCHAR
STARTCHAR 01-01-69
ENCODING 8549
SWIDTH 960 0
DWIDTH 12 0
BBX 12 12 0 -2
BITMAP
0000
0060
0180
0600
3800
0600
0180
0060
3fe0
0000
3fe0
0000
ENDCHAR
STARTCHAR 01-01-70
ENCODING 8550
SWIDTH 960 0
DWIDTH 12 0
BBX 12 12 0 -2
BITMAP
0000
3000
0c00
0300
00e0
0300
0c00
3000
3fe0
0000
3fe0
0000
ENDCHAR
STARTCHAR 01-01-71
ENCODING 8551
SWIDTH 960 0
DWIDTH 12 0
BBX 12 12 0 -2
BITMAP
0000
0000
0000
18c0
2520
4210
4210
4210
2520
18c0
0000
0000
ENDCHAR
STARTCHAR 01-01-72
ENCODING 8552
SWIDTH 960 0
DWIDTH 12 0
BBX 12 12 0 -2
BITMAP
0000
0000
0000
0600
0600
0000
0000
0000
30c0
30c0
0000
0000
ENDCHAR
STARTCHAR 01-01-73
ENCODING 8553
SWIDTH 960 0
DWIDTH 12 0
BBX 12 12 0 -2
BITMAP
0000
0000
01e0
0060
00a0
0120
1a00
2400
4200
4200
2400
1800
ENDCHAR
STARTCHAR 01-01-74
ENCODING 8554
SWIDTH 960 0
DWIDTH 12 0
BBX 12 12 0 -2
BITMAP
0000
0700
0880
1040
1040
0880
0700
0200
1fc0
0200
0200
0200
ENDCHAR
STARTCHAR 01-01-75
ENCODING 8555
SWIDTH 960 0
DWIDTH 12 0
BBX 12 12 0 -2
BITMAP
0000
3000
4800
4800
3000
0000
0000
0000
0000
0000
0000
0000
ENDCHAR
STARTCHAR 01-01-76
ENCODING 8556
SWIDTH 960 0
DWIDTH 12 0
BBX 12 12 0 -2
BITMAP
0000
0000
1800
3000
2000
0000
0000
0000
0000
0000
0000
0000
ENDCHAR
STARTCHAR 01-01-77
ENCODING 8557
SWIDTH 960 0
DWIDTH 12 0
BBX 12 12 0 -2
BITMAP
0000
1000
3600
6c00
0800
0000
0000
0000
0000
0000
0000
0000
ENDCHAR
STARTCHAR 01-01-78
ENCODING 8558
SWIDTH 960 0
DWIDTH 12 0
BBX 12 12 0 -2
BITMAP
0000
2180
5650
5c30
2810
0800
0800
0800
0c10
0420
03c0
0000
ENDCHAR
STARTCHAR 01-01-79
ENCODING 8559
SWIDTH 960 0
DWIDTH 12 0
BBX 12 12 0 -2
BITMAP
0000
78f0
1040
0880
3fe0
0500
0200
3fe0
0200
0200
0f80
0000
ENDCHAR
STARTCHAR 01-01-80
ENCODING 8560
SWIDTH 960 0
DWIDTH 12 0
BBX 12 12 0 -2
BITMAP
0000
0200
0f80
12c0
12c0
0a00
0700
0280
1a40
1a40
0f80
0200
ENDCHAR
STARTCHAR 01-01-81
ENCODING 8561
SWIDTH 960 0
DWIDTH 12 0
BBX 12 12 0 -2
BITMAP
0000
0000
0000
0100
0700
0980
1a80
1a00
1a00
1c80
0f00
0800
ENDCHAR
STARTCHAR 01-01-82
ENCODING 8562
SWIDTH 960 0
DWIDTH 12 0
BBX 12 12 0 -2
BITMAP
0000
0380
04c0
0860
0800
0c00
3f80
0400
3400
4c10
4a60
31c0
ENDCHAR
STARTCHAR 01-01-83
ENCODING 8563
SWIDTH 960 0
DWIDTH 12 0
BBX 12 12 0 -2
BITMAP
0000
1800
3420
3440
3480
1900
0200
04c0
0960
1160
2160
00c0
ENDCHAR
STARTCHAR 01-01-84
ENCODING 8564
SWIDTH 960 0
DWIDTH 12 0
BBX 12 12 0 -2
BITMAP
0000
0480
0480
0480
3fe0
0900
0900
0900
7fc0
1200
1200
1200
ENDCHAR
STARTCHAR 01-01-85
ENCODING 8565
SWIDTH 960 0
DWIDTH 12 0
BBX 12 12 0 -2
BITMAP
0000
0c00
1200
1200
1c00
09e0
14c0
2480
6280
6110
32e0
1c40
ENDCHAR
STARTCHAR 01-01-86
ENCODING 8566
SWIDTH 960 0
DWIDTH 12 0
BBX 12 12 0 -2
BITMAP
0000
0000
0200
1ac0
1ac0
0700
0200
0700
1ac0
1ac0
0200
0000
ENDCHAR
STARTCHAR 01-01-87
ENCODING 8567
SWIDTH 960 0
DWIDTH 12 0
BBX 12 12 0 -2
BITMAP
0000
0000
0f80
1040
2260
25a0
2920
2940
26a0
1040
0f80
0000
ENDCHAR
STARTCHAR 01-01-88
ENCODING 8568
SWIDTH 960 0
DWIDTH 12 0
BBX 12 12 0 -2
BITMAP
0000
0700
0980
1880
0e00
1980
18c0
0cc0
0380
08c0
0c80
0700
ENDCHAR
STARTCHAR 01-01-89
ENCODING 8569
SWIDTH 960 0
DWIDTH 12 0
BBX 12 12 0 -2
BITMAP
0000
0200
0200
0500
78f0
3060
0880
1240
1540
38e0
2020
0000
ENDCHAR
STARTCHAR 01-01-90
ENCODING 8570
SWIDTH 960 0
DWIDTH 12 0
BBX 12 12 0 -2
BITMAP
0000
0200
0200
0700
7ff0
3fe0
0f80
1fc0
1dc0
38e0
2020
0000
ENDCHAR
STARTCHAR 01-01-91
ENCODING 8571
SWIDTH 960 0
DWIDTH 12 0
BBX 12 12 0 -2
BITMAP
0000
0600
1980
2040
2040
4020
4020
2040
2040
1980
0600
0000
ENDCHAR
STARTCHAR 01-01-92
ENCODING 8572
SWIDTH 960 0
DWIDTH 12 0
BBX 12 12 0 -2
BITMAP
0000
0600
1f80
3fc0
3fc0
7fe0
7fe0
3fc0
3fc0
1f80
0600
0000
ENDCHAR
STARTCHAR 01-01-93
ENCODING 8573
SWIDTH 960 0
DWIDTH 12 0
BBX 12 12 0 -2
BITMAP
0000
0600
1980
2640
2940
50a0
50a0
2940
2640
1980
0600
0000
ENDCHAR
STARTCHAR 01-01-94
ENCODING 8574
SWIDTH 960 0
DWIDTH 12 0
BBX 12 12 0 -2
BITMAP
0000
0200
0500
0880
1040
2020
4010
2020
1040
0880
0500
0200
ENDCHAR
STARTCHAR 01-02-01
ENCODING 8737
SWIDTH 960 0
DWIDTH 12 0
BBX 12 12 0 -2
BITMAP
0000
0200
0700
0f80
1fc0
3fe0
7ff0
3fe0
1fc0
0f80
0700
0200
ENDCHAR
STARTCHAR 01-02-02
ENCODING 8738
SWIDTH 960 0
DWIDTH 12 0
BBX 12 12 0 -2
BITMAP
0000
7fe0
4020
4020
4020
4020
4020
4020
4020
4020
7fe0
0000
ENDCHAR
STARTCHAR 01-02-03
ENCODING 8739
SWIDTH 960 0
DWIDTH 12 0
BBX 12 12 0 -2
BITMAP
0000
7fe0
7fe0
7fe0
7fe0
7fe0
7fe0
7fe0
7fe0
7fe0
7fe0
0000
ENDCHAR
STARTCHAR 01-02-04
ENCODING 8740
SWIDTH 960 0
DWIDTH 12 0
BBX 12 12 0 -2
BITMAP
0000
0000
0200
0500
0500
0880
0880
1040
1040
2020
3fe0
0000
ENDCHAR
STARTCHAR 01-02-05
ENCODING 8741
SWIDTH 960 0
DWIDTH 12 0
BBX 12 12 0 -2
BITMAP
0000
0000
0200
0700
0700
0f80
0f80
1fc0
1fc0
3fe0
3fe0
0000
ENDCHAR
STARTCHAR 01-02-06
ENCODING 8742
SWIDTH 960 0
DWIDTH 12 0
BBX 12 12 0 -2
BITMAP
0000
0000
3fe0
2020
1040
1040
0880
0880
0500
0500
0200
0000
ENDCHAR
STARTCHAR 01-02-07
ENCODING 8743
SWIDTH 960 0
DWIDTH 12 0
BBX 12 12 0 -2
BITMAP
0000
0000
3fe0
3fe0
1fc0
1fc0
0f80
0f80
0700
0700
0200
0000
ENDCHAR
STARTCHAR 01-02-08
ENCODING 8744
SWIDTH 960 0
DWIDTH 12 0
BBX 12 12 0 -2
BITMAP
0000
0000
2220
1240
0880
0500
3260
0500
0880
1240
2220
0000
ENDCHAR
STARTCHAR 01-02-09
ENCODING 8745
SWIDTH 960 0
DWIDTH 12 0
BBX 12 12 0 -2
BITMAP
0000
3fe0
3fe0
0000
7ff0
7ff0
0200
0200
0200
0200
0200
0200
ENDCHAR
STARTCHAR 01-02-10
ENCODING 8746
SWIDTH 960 0
DWIDTH 12 0
BBX 12 12 0 -2
BITMAP
0000
0000
0000
0000
0040
0020
7ff0
0020
0040
0000
0000
0000
ENDCHAR
STARTCHAR 01-02-11
ENCODING 8747
SWIDTH 960 0
DWIDTH 12 0
BBX 12 12 0 -2
BITMAP
0000
0000
0000
0000
1000
2000
7ff0
2000
1000
0000
0000
0000
ENDCHAR
STARTCHAR 01-02-12
ENCODING 8748
SWIDTH 960 0
DWIDTH 12 0
BBX 12 12 0 -2
BITMAP
0000
0200
0700
0a80
0200
0200
0200
0200
0200
0200
0200
0200
ENDCHAR
STARTCHAR 01-02-13
ENCODING 8749
SWIDTH 960 0
DWIDTH 12 0
BBX 12 12 0 -2
BITMAP
0000
0200
0200
0200
0200
0200
0200
0200
0200
0a80
0700
0200
ENDCHAR
STARTCHAR 01-02-14
ENCODING 8750
SWIDTH 960 0
DWIDTH 12 0
BBX 12 12 0 -2
BITMAP
0000
0000
0000
3fe0
3fe0
0000
0000
3fe0
3fe0
0000
0000
0000
ENDCHAR
STARTCHAR 01-02-15
ENCODING 8751
SWIDTH 960 0
DWIDTH 12 0
BBX 12 12 0 -2
BITMAP
0000
0300
0300
0100
0200
0000
0000
0000
0000
0000
0000
0000
ENDCHAR
STARTCHAR 01-02-16
ENCODING 8752
SWIDTH 960 0
DWIDTH 12 0
BBX 12 12 0 -2
BITMAP
0000
0d80
0d80
0480
0900
0000
0000
0000
0000
0000
0000
0000
ENDCHAR
STARTCHAR 01-02-17
ENCODING 8753
SWIDTH 960 0
DWIDTH 12 0
BBX 12 12 0 -2
BITMAP
0000
0000
0000
0000
0000
0000
0f80
0000
0000
0000
0000
0000
ENDCHAR
STARTCHAR 01-02-18
ENCODING 8754
SWIDTH 960 0
DWIDTH 12 0
BBX 12 12 0 -2
BITMAP
0c80
1300
0000
0000
0000
0000
0000
0000
0000
0000
0000
0000
ENDCHAR
STARTCHAR 01-02-19
ENCODING 8755
SWIDTH 960 0
DWIDTH 12 0
BBX 12 12 0 -2
BITMAP
0000
0000
0000
0000
1800
2600
0180
0040
0020
0010
0000
0000
ENDCHAR
STARTCHAR 01-02-20
ENCODING 8756
SWIDTH 960 0
DWIDTH 12 0
BBX 12 12 0 -2
BITMAP
0000
0300
0400
0180
1a00
2600
0180
0040
0020
0010
0000
0000
ENDCHAR
STARTCHAR 01-02-21
ENCODING 8757
SWIDTH 960 0
DWIDTH 12 0
BBX 12 12 0 -2
BITMAP
0000
0000
0000
0000
01c0
0200
0c00
3000
4000
8000
0000
0000
ENDCHAR
STARTCHAR 01-02-22
ENCODING 8758
SWIDTH 960 0
DWIDTH 12 0
BBX 12 12 0 -2
BITMAP
0000
0000
0400
0200
0180
0200
0400
0600
0300
0180
0000
0000
ENDCHAR
STARTCHAR 01-02-23
ENCODING 8759
SWIDTH 960 0
DWIDTH 12 0
BBX 12 12 0 -2
BITMAP
fff0
8030
8050
8090
8110
8210
8410
8810
9010
a010
c010
fff0
ENDCHAR
STARTCHAR 01-02-24
ENCODING 8760
SWIDTH 960 0
DWIDTH 12 0
BBX 12 12 0 -2
BITMAP
0000
1fc0
0040
0040
0040
0040
0040
0040
0040
0040
0040
0000
ENDCHAR
STARTCHAR 01-02-25
ENCODING 8761
SWIDTH 960 0
DWIDTH 12 0
BBX 12 12 0 -2
BITMAP
0000
0200
0200
03c0
0400
0400
0780
0840
0840
1840
1480
1300
ENDCHAR
STARTCHAR 01-02-26
ENCODING 8762
SWIDTH 960 0
DWIDTH 12 0
BBX 12 12 0 -2
BITMAP
0000
0000
0000
0fc0
1000
1000
1fc0
1000
1000
0fc0
0000
0000
ENDCHAR
STARTCHAR 01-02-27
ENCODING 8763
SWIDTH 960 0
DWIDTH 12 0
BBX 12 12 0 -2
BITMAP
0000
0000
0000
1f80
0040
0040
1fc0
0040
0040
1f80
0000
0000
ENDCHAR
STARTCHAR 01-02-28
ENCODING 8764
SWIDTH 960 0
DWIDTH 12 0
BBX 12 12 0 -2
BITMAP
0000
0000
0fe0
1000
2000
2000
1000
0fe0
0000
3fe0
0000
0000
ENDCHAR
STARTCHAR 01-02-29
ENCODING 8765
SWIDTH 960 0
DWIDTH 12 0
BBX 12 12 0 -2
BITMAP
0000
0000
3f80
0040
0020
0020
0040
3f80
0000
3fe0
0000
0000
ENDCHAR
STARTCHAR 01-02-30
ENCODING 8766
SWIDTH 960 0
DWIDTH 12 0
BBX 12 12 0 -2
BITMAP
0000
0000
0000
0fe0
1000
2000
2000
2000
1000
0fe0
0000
0000
ENDCHAR
STARTCHAR 01-02-31
ENCODING 8767
SWIDTH 960 0
DWIDTH 12 0
BBX 12 12 0 -2
BITMAP
0000
0000
0000
3f80
0040
0020
0020
0020
0040
3f80
0000
0000
ENDCHAR
STARTCHAR 01-02-32
ENCODING 8768
SWIDTH 960 0
DWIDTH 12 0
BBX 12 12 0 -2
BITMAP
0000
0000
1040
1040
1040
1040
1040
1040
1040
0880
0700
0000
ENDCHAR
STARTCHAR 01-02-33
ENCODING 8769
SWIDTH 960 0
DWIDTH 12 0
BBX 12 12 0 -2
BITMAP
0000
0000
0700
0880
1040
1040
1040
1040
1040
1040
1040
0000
ENDCHAR
STARTCHAR 01-02-34
ENCODING 8770
SWIDTH 960 0
DWIDTH 12 0
BBX 12 12 0 -2
BITMAP
0000
0000
0040
0fe0
1080
2100
2300
2200
1400
0fe0
0800
0000
ENDCHAR
STARTCHAR 01-02-35
ENCODING 8771
SWIDTH 960 0
DWIDTH 12 0
BBX 12 12 0 -2
BITMAP
0000
0000
0080
3f80
0140
0220
0620
0420
0840
3f80
1000
0000
ENDCHAR
STARTCHAR 01-02-36
ENCODING 8772
SWIDTH 960 0
DWIDTH 12 0
BBX 12 12 0 -2
BITMAP
0000
0000
0fe0
1000
2000
2000
1000
0fe0
0100
3fe0
0200
0200
ENDCHAR
STARTCHAR 01-02-37
ENCODING 8773
SWIDTH 960 0
DWIDTH 12 0
BBX 12 12 0 -2
BITMAP
0000
0000
3f80
0040
0020
0020
0040
3f80
0100
3fe0
0200
0200
ENDCHAR
STARTCHAR 01-02-38
ENCODING 8774
SWIDTH 960 0
DWIDTH 12 0
BBX 12 12 0 -2
BITMAP
0000
0000
0200
0fc0
1200
1200
1fc0
1200
1200
0fc0
0200
0000
ENDCHAR
STARTCHAR 01-02-39
ENCODING 8775
SWIDTH 960 0
DWIDTH 12 0
BBX 12 12 0 -2
BITMAP
0000
0000
0020
0740
0880
1140
1240
1440
0880
1700
2000
0000
ENDCHAR
STARTCHAR 01-02-40
ENCODING 8776
SWIDTH 960 0
DWIDTH 12 0
BBX 12 12 0 -2
BITMAP
0000
0000
0000
0000
3fe0
0200
0500
0880
1040
0000
0000
0000
ENDCHAR
STARTCHAR 01-02-41
ENCODING 8777
SWIDTH 960 0
DWIDTH 12 0
BBX 12 12 0 -2
BITMAP
0000
0000
0000
3fe0
0000
3fe0
0200
0500
0880
1040
0000
0000
ENDCHAR
STARTCHAR 01-02-42
ENCODING 8778
SWIDTH 960 0
DWIDTH 12 0
BBX 12 12 0 -2
BITMAP
0000
0000
0200
0500
0500
0880
0880
1040
1040
2020
0000
0000
ENDCHAR
STARTCHAR 01-02-43
ENCODING 8779
SWIDTH 960 0
DWIDTH 12 0
BBX 12 12 0 -2
BITMAP
0000
0000
2020
1040
1040
0880
0880
0500
0500
0200
0000
0000
ENDCHAR
STARTCHAR 01-02-44
ENCODING 8780
SWIDTH 960 0
DWIDTH 12 0
BBX 12 12 0 -2
BITMAP
0000
0000
0000
0000
0000
3fe0
0020
0020
0020
0000
0000
0000
ENDCHAR
STARTCHAR 01-02-45
ENCODING 8781
SWIDTH 960 0
DWIDTH 12 0
BBX 12 12 0 -2
BITMAP
0000
0000
0100
0080
7fc0
0020
7fc0
0080
0100
0000
0000
0000
ENDCHAR
STARTCHAR 01-02-46
ENCODING 8782
SWIDTH 960 0
DWIDTH 12 0
BBX 12 12 0 -2
BITMAP
0000
0000
0900
1080
3fc0
4020
3fc0
1080
0900
0000
0000
0000
ENDCHAR
STARTCHAR 01-02-47
ENCODING 8783
SWIDTH 960 0
DWIDTH 12 0
BBX 12 12 0 -2
BITMAP
0000
2020
2020
1fc0
1040
0880
0880
0500
0500
0200
0200
0000
ENDCHAR
STARTCHAR 01-02-48
ENCODING 8784
SWIDTH 960 0
DWIDTH 12 0
BBX 12 12 0 -2
BITMAP
0000
1f80
0080
0080
0080
1f80
0080
0080
0080
1f80
0000
0000
ENDCHAR
STARTCHAR 01-02-49
ENCODING 8785
SWIDTH 960 0
DWIDTH 12 0
BBX 12 12 0 -2
BITMAP
0000
0700
1ac0
2220
2220
4210
7ff0
4210
2220
2220
1ac0
0700
ENDCHAR
STARTCHAR 01-02-50
ENCODING 8786
SWIDTH 960 0
DWIDTH 12 0
BBX 12 12 0 -2
BITMAP
0000
0700
18c0
2020
2020
4010
7ff0
4010
2020
2020
18c0
0700
ENDCHAR
STARTCHAR 01-02-51
ENCODING 8787
SWIDTH 960 0
DWIDTH 12 0
BBX 12 12 0 -2
BITMAP
0000
0700
18c0
3060
28a0
4510
4210
4510
28a0
3060
18c0
0700
ENDCHAR
STARTCHAR 01-02-52
ENCODING 8788
SWIDTH 960 0
DWIDTH 12 0
BBX 12 12 0 -2
BITMAP
0000
0100
0220
0240
0440
0480
0880
0900
1100
1200
2200
0400
ENDCHAR
STARTCHAR 01-02-53
ENCODING 8789
SWIDTH 960 0
DWIDTH 12 0
BBX 12 12 0 -2
BITMAP
0000
0100
0220
1240
0c40
0480
0f80
0900
1180
1240
2200
0400
ENDCHAR
STARTCHAR 01-02-54
ENCODING 8790
SWIDTH 960 0
DWIDTH 12 0
BBX 12 12 0 -2
BITMAP
0120
0240
0240
0480
0480
0480
0480
0480
0480
0240
0240
0120
ENDCHAR
STARTCHAR 01-02-55
ENCODING 8791
SWIDTH 960 0
DWIDTH 12 0
BBX 12 12 0 -2
BITMAP
2400
1200
1200
0900
0900
0900
0900
0900
0900
1200
1200
2400
ENDCHAR
STARTCHAR 01-02-56
ENCODING 8792
SWIDTH 960 0
DWIDTH 12 0
BBX 12 12 0 -2
BITMAP
0060
0380
0260
0280
0280
0280
0280
0280
0280
0260
0380
0060
ENDCHAR
STARTCHAR 01-02-57
ENCODING 8793
SWIDTH 960 0
DWIDTH 12 0
BBX 12 12 0 -2
BITMAP
3000
0e00
3200
0a00
0a00
0a00
0a00
0a00
0a00
3200
0e00
3000
ENDCHAR
STARTCHAR 01-02-58
ENCODING 8794
SWIDTH 960 0
DWIDTH 12 0
BBX 12 12 0 -2
BITMAP
03e0
0240
0280
0280
0300
0300
0300
0300
0280
0280
0240
03e0
ENDCHAR
STARTCHAR 01-02-59
ENCODING 8795
SWIDTH 960 0
DWIDTH 12 0
BBX 12 12 0 -2
BITMAP
3e00
1200
0a00
0a00
0600
0600
0600
0600
0a00
0a00
1200
3e00
ENDCHAR
STARTCHAR 01-02-60
ENCODING 8796
SWIDTH 960 0
DWIDTH 12 0
BBX 12 12 0 -2
BITMAP
0000
0000
0040
0080
0100
0200
0400
0800
1000
3fe0
0000
0000
ENDCHAR
STARTCHAR 01-02-61
ENCODING 8797
SWIDTH 960 0
DWIDTH 12 0
BBX 12 12 0 -2
BITMAP
0000
0000
0200
0200
0200
0200
0200
0200
0200
3fe0
0000
0000
ENDCHAR
STARTCHAR 01-02-62
ENCODING 8798
SWIDTH 960 0
DWIDTH 12 0
BBX 12 12 0 -2
BITMAP
0000
1fc0
6030
0000
0000
0000
0000
0000
0000
0000
0000
0000
ENDCHAR
STARTCHAR 01-02-63
ENCODING 8799
SWIDTH 960 0
DWIDTH 12 0
BBX 12 12 0 -2
BITMAP
0000
0300
0480
0840
0040
0740
0c80
1880
1880
1900
0e00
0000
ENDCHAR
STARTCHAR 01-02-64
ENCODING 8800
SWIDTH 960 0
DWIDTH 12 0
BBX 12 12 0 -2
BITMAP
0000
3fe0
3fe0
3020
1840
1840
0c80
0c80
0700
0700
0200
0000
ENDCHAR
STARTCHAR 01-02-65
ENCODING 8801
SWIDTH 960 0
DWIDTH 12 0
BBX 12 12 0 -2
BITMAP
0000
0000
0000
3fe0
0000
0000
3fe0
0000
0000
3fe0
0000
0000
ENDCHAR
STARTCHAR 01-02-66
ENCODING 8802
SWIDTH 960 0
DWIDTH 12 0
BBX 12 12 0 -2
BITMAP
0000
0000
1000
1000
3fe0
0000
0000
3fe0
0080
0080
0000
0000
ENDCHAR
STARTCHAR 01-02-67
ENCODING 8803
SWIDTH 960 0
DWIDTH 12 0
BBX 12 12 0 -2
BITMAP
0000
0240
0480
0900
1200
2400
1200
0900
0480
0240
0000
0000
ENDCHAR
STARTCHAR 01-02-68
ENCODING 8804
SWIDTH 960 0
DWIDTH 12 0
BBX 12 12 0 -2
BITMAP
0000
2400
1200
0900
0480
0240
0480
0900
1200
2400
0000
0000
ENDCHAR
STARTCHAR 01-02-69
ENCODING 8805
SWIDTH 960 0
DWIDTH 12 0
BBX 12 12 0 -2
BITMAP
0000
03f0
0200
0200
0200
0400
0400
2400
7800
1800
0800
0000
ENDCHAR
STARTCHAR 01-02-70
ENCODING 8806
SWIDTH 960 0
DWIDTH 12 0
BBX 12 12 0 -2
BITMAP
0000
0000
0000
18c0
2120
4110
4210
4410
2420
18c0
0000
0000
ENDCHAR
STARTCHAR 01-02-71
ENCODING 8807
SWIDTH 960 0
DWIDTH 12 0
BBX 12 12 0 -2
BITMAP
0000
0000
0000
18c0
2520
4200
4200
4200
2520
18c0
0000
0000
ENDCHAR
STARTCHAR 01-02-72
ENCODING 8808
SWIDTH 960 0
DWIDTH 12 0
BBX 12 12 0 -2
BITMAP
0000
0000
0000
30c0
30c0
0000
0000
0000
0600
0600
0000
0000
ENDCHAR
STARTCHAR 01-02-73
ENCODING 8809
SWIDTH 960 0
DWIDTH 12 0
BBX 12 12 0 -2
BITMAP
0000
0300
0500
0400
0400
0200
0200
0200
0100
0100
0500
0600
ENDCHAR
STARTCHAR 01-02-74
ENCODING 8810
SWIDTH 960 0
DWIDTH 12 0
BBX 12 12 0 -2
BITMAP
0000
0cc0
1540
1100
1100
0880
0880
0880
0440
0440
1540
1980
ENDCHAR
STARTCHAR 01-02-75
ENCODING 8811
SWIDTH 960 0
DWIDTH 12 0
BBX 12 12 0 -2
BITMAP
0000
0080
0080
3fe0
0100
0200
3fe0
0200
0400
3fe0
0800
0800
ENDCHAR
STARTCHAR 01-02-76
ENCODING 8812
SWIDTH 960 0
DWIDTH 12 0
BBX 12 12 0 -2
BITMAP
0000
0000
0000
1810
2720
40c0
0000
0000
3fe0
0000
0000
0000
ENDCHAR
STARTCHAR 01-02-77
ENCODING 8813
SWIDTH 960 0
DWIDTH 12 0
BBX 12 12 0 -2
BITMAP
0000
0000
0000
1810
2720
40c0
0000
3fe0
0000
3fe0
0000
0000
ENDCHAR
STARTCHAR 01-02-78
ENCODING 8814
SWIDTH 960 0
DWIDTH 12 0
BBX 12 12 0 -2
BITMAP
0000
0000
0000
1810
2720
40c0
1810
2720
40c0
0000
0000
0000
ENDCHAR
STARTCHAR 01-02-79
ENCODING 8815
SWIDTH 960 0
DWIDTH 12 0
BBX 12 12 0 -2
BITMAP
0000
00e0
0700
3800
0700
00e0
3800
0700
00e0
0700
3800
0000
ENDCHAR
STARTCHAR 01-02-80
ENCODING 8816
SWIDTH 960 0
DWIDTH 12 0
BBX 12 12 0 -2
BITMAP
0000
3800
0700
00e0
0700
3800
00e0
0700
3800
0700
00e0
0000
ENDCHAR
STARTCHAR 01-02-81
ENCODING 8817
SWIDTH 960 0
DWIDTH 12 0
BBX 12 12 0 -2
BITMAP
0000
0000
0000
0000
1040
2020
7ff0
2020
1040
0000
0000
0000
ENDCHAR
STARTCHAR 01-02-82
ENCODING 8818
SWIDTH 960 0
DWIDTH 12 0
BBX 12 12 0 -2
BITMAP
0000
0700
0500
0700
0200
0500
0500
0880
0f80
1040
38e0
0000
ENDCHAR
STARTCHAR 01-02-83
ENCODING 8819
SWIDTH 960 0
DWIDTH 12 0
BBX 12 12 0 -2
BITMAP
0000
1100
2900
6a00
6a00
2c00
1e40
0da0
15b0
15b0
25a0
2240
ENDCHAR
STARTCHAR 01-02-84
ENCODING 8820
SWIDTH 960 0
DWIDTH 12 0
BBX 12 12 0 -2
BITMAP
0000
0080
0880
0fe0
3fe0
3d80
0880
0de0
3fe0
3f80
0880
0800
ENDCHAR
STARTCHAR 01-02-85
ENCODING 8821
SWIDTH 960 0
DWIDTH 12 0
BBX 12 12 0 -2
BITMAP
0000
0800
0800
0800
0800
0b80
0cc0
08c0
0980
0900
0a00
0c00
ENDCHAR
STARTCHAR 01-02-86
ENCODING 8822
SWIDTH 960 0
DWIDTH 12 0
BBX 12 12 0 -2
BITMAP
0000
0200
0300
0380
03c0
0260
0220
0240
0280
1e00
3e00
1c00
ENDCHAR
STARTCHAR 01-02-87
ENCODING 8823
SWIDTH 960 0
DWIDTH 12 0
BBX 12 12 0 -2
BITMAP
0200
0700
0a80
1fc0
0a80
0200
0700
0700
0200
0200
0200
0200
ENDCHAR
STARTCHAR 01-02-88
ENCODING 8824
SWIDTH 960 0
DWIDTH 12 0
BBX 12 12 0 -2
BITMAP
0000
0200
0a80
1fc0
0a80
0200
0200
0200
0a80
1fc0
0a80
0200
ENDCHAR
STARTCHAR 01-02-89
ENCODING 8825
SWIDTH 960 0
DWIDTH 12 0
BBX 12 12 0 -2
BITMAP
0000
0780
0e80
1e80
1e80
1e80
0e80
0280
0280
0280
0280
0280
ENDCHAR
STARTCHAR 01-02-90
ENCODING 8826
SWIDTH 960 0
DWIDTH 12 0
BBX 12 12 0 -2
BITMAP
0000
0800
0840
09c0
0fc0
0e40
0840
09c0
0fc0
0e40
0840
0040
ENDCHAR
STARTCHAR 01-02-91
ENCODING 8827
SWIDTH 960 0
DWIDTH 12 0
BBX 12 12 0 -2
BITMAP
0000
0f00
0fe0
08e0
0820
0820
0820
0820
3820
78e0
31e0
01c0
ENDCHAR
STARTCHAR 01-02-92
ENCODING 8828
SWIDTH 960 0
DWIDTH 12 0
BBX 12 12 0 -2
BITMAP
0000
0f00
0fe0
08e0
0e20
0fe0
09e0
0820
3820
78e0
31e0
01c0
ENDCHAR
STARTCHAR 01-02-93
ENCODING 8829
SWIDTH 960 0
DWIDTH 12 0
BBX 12 12 0 -2
BITMAP
0000
0200
0200
0200
0200
0200
0200
0200
0200
1e00
3e00
1c00
ENDCHAR
STARTCHAR 01-02-94
ENCODING 8830
SWIDTH 960 0
DWIDTH 12 0
BBX 12 12 0 -2
BITMAP
0000
0f00
1080
2040
4020
4020
4020
4020
2040
1080
0f00
0000
ENDCHAR
STARTCHAR 01-03-01
ENCODING 8993
SWIDTH 960 0
DWIDTH 12 0
BBX 12 12 0 -2
BITMAP
0000
0000
2000
3800
2600
2180
2060
2180
2600
3800
2000
0000
ENDCHAR
STARTCHAR 01-03-02
ENCODING 8994
SWIDTH 960 0
DWIDTH 12 0
BBX 12 12 0 -2
BITMAP
0000
0000
2000
3800
3e00
3f80
3fe0
3f80
3e00
3800
2000
0000
ENDCHAR
STARTCHAR 01-03-03
ENCODING 8995
SWIDTH 960 0
DWIDTH 12 0
BBX 12 12 0 -2
BITMAP
0000
0000
0020
00e0
0320
0c20
3020
0c20
0320
00e0
0020
0000
ENDCHAR
STARTCHAR 01-03-04
ENCODING 8996
SWIDTH 960 0
DWIDTH 12 0
BBX 12 12 0 -2
BITMAP
0000
0000
0020
00e0
03e0
0fe0
3fe0
0fe0
03e0
00e0
0020
0000
ENDCHAR
STARTCHAR 01-03-05
ENCODING 8997
SWIDTH 960 0
DWIDTH 12 0
BBX 12 12 0 -2
BITMAP
0000
0020
01c0
00c0
0140
0200
0400
0800
1000
2000
4000
0000
ENDCHAR
STARTCHAR 01-03-06
ENCODING 8998
SWIDTH 960 0
DWIDTH 12 0
BBX 12 12 0 -2
BITMAP
0000
4000
2000
1000
0800
0400
0200
0140
00c0
01c0
0020
0000
ENDCHAR
STARTCHAR 01-03-07
ENCODING 8999
SWIDTH 960 0
DWIDTH 12 0
BBX 12 12 0 -2
BITMAP
0000
4000
3800
3000
2800
0400
0200
0100
0080
0040
0020
0000
ENDCHAR
STARTCHAR 01-03-08
ENCODING 9000
SWIDTH 960 0
DWIDTH 12 0
BBX 12 12 0 -2
BITMAP
0000
0020
0040
0080
0100
0200
0400
2800
3000
3800
4000
0000
ENDCHAR
STARTCHAR 01-03-09
ENCODING 9001
SWIDTH 960 0
DWIDTH 12 0
BBX 12 12 0 -2
BITMAP
0000
0040
0020
7ff0
0020
0040
1000
2000
7ff0
2000
1000
0000
ENDCHAR
STARTCHAR 01-03-10
ENCODING 9002
SWIDTH 960 0
DWIDTH 12 0
BBX 12 12 0 -2
BITMAP
0000
0000
0080
00c0
7fa0
4010
4010
7fa0
00c0
0080
0000
0000
ENDCHAR
STARTCHAR 01-03-11
ENCODING 9003
SWIDTH 960 0
DWIDTH 12 0
BBX 12 12 0 -2
BITMAP
0000
0000
0800
1800
2ff0
4010
4010
2ff0
1800
0800
0000
0000
ENDCHAR
STARTCHAR 01-03-12
ENCODING 9004
SWIDTH 960 0
DWIDTH 12 0
BBX 12 12 0 -2
BITMAP
0000
0600
0900
1080
39c0
0900
0900
0900
0900
0900
0900
0f00
ENDCHAR
STARTCHAR 01-03-13
ENCODING 9005
SWIDTH 960 0
DWIDTH 12 0
BBX 12 12 0 -2
BITMAP
0000
0f00
0900
0900
0900
0900
0900
0900
39c0
1080
0900
0600
ENDCHAR
STARTCHAR 01-03-14
ENCODING 9006
SWIDTH 960 0
DWIDTH 12 0
BBX 12 12 0 -2
BITMAP
0000
0040
0040
00e0
0150
0040
0040
0080
0100
7e00
0000
0000
ENDCHAR
STARTCHAR 01-03-15
ENCODING 9007
SWIDTH 960 0
DWIDTH 12 0
BBX 12 12 0 -2
BITMAP
0000
0000
3e00
0100
0080
0040
0040
0150
00e0
0040
0040
0000
ENDCHAR
STARTCHAR 01-03-16
ENCODING 9008
SWIDTH 960 0
DWIDTH 12 0
BBX 12 12 0 -2
BITMAP
0000
0700
0880
18c0
18c0
18c0
18c0
18c0
18c0
0880
0700
0000
ENDCHAR
STARTCHAR 01-03-17
ENCODING 9009
SWIDTH 960 0
DWIDTH 12 0
BBX 12 12 0 -2
BITMAP
0000
0200
0600
0e00
0600
0600
0600
0600
0600
0600
1f80
0000
ENDCHAR
STARTCHAR 01-03-18
ENCODING 9010
SWIDTH 960 0
DWIDTH 12 0
BBX 12 12 0 -2
BITMAP
0000
0700
0880
18c0
18c0
0080
0100
0200
0440
0f80
1f80
0000
ENDCHAR
STARTCHAR 01-03-19
ENCODING 9011
SWIDTH 960 0
DWIDTH 12 0
BBX 12 12 0 -2
BITMAP
0000
0700
0880
18c0
00c0
0780
0080
00c0
18c0
1880
0f00
0000
ENDCHAR
STARTCHAR 01-03-20
ENCODING 9012
SWIDTH 960 0
DWIDTH 12 0
BBX 12 12 0 -2
BITMAP
0000
0080
0180
0380
0580
0980
1180
2180
3fe0
0180
03c0
0000
ENDCHAR
STARTCHAR 01-03-21
ENCODING 9013
SWIDTH 960 0
DWIDTH 12 0
BBX 12 12 0 -2
BITMAP
0000
1fc0
1f80
1000
1700
1880
10c0
00c0
18c0
1880
0f00
0000
ENDCHAR
STARTCHAR 01-03-22
ENCODING 9014
SWIDTH 960 0
DWIDTH 12 0
BBX 12 12 0 -2
BITMAP
0000
0780
08c0
08c0
1b00
1c80
18c0
18c0
18c0
0880
0700
0000
ENDCHAR
STARTCHAR 01-03-23
ENCODING 9015
SWIDTH 960 0
DWIDTH 12 0
BBX 12 12 0 -2
BITMAP
0000
1fc0
1fc0
1080
2080
0100
0100
0200
0600
0600
0600
0000
ENDCHAR
STARTCHAR 01-03-24
ENCODING 9016
SWIDTH 960 0
DWIDTH 12 0
BBX 12 12 0 -2
BITMAP
0000
0700
0880
18c0
1cc0
0f80
0b80
18c0
18c0
18c0
0f80
0000
ENDCHAR
STARTCHAR 01-03-25
ENCODING 9017
SWIDTH 960 0
DWIDTH 12 0
BBX 12 12 0 -2
BITMAP
0000
0700
0880
18c0
18c0
18c0
08c0
07c0
1880
1880
0f00
0000
ENDCHAR
STARTCHAR 01-03-26
ENCODING 9018
SWIDTH 960 0
DWIDTH 12 0
BBX 12 12 0 -2
BITMAP
0000
0700
18c0
2020
2220
4710
4f90
4710
2220
2020
18c0
0700
ENDCHAR
STARTCHAR 01-03-27
ENCODING 9019
SWIDTH 960 0
DWIDTH 12 0
BBX 12 12 0 -2
BITMAP
0000
0700
18c0
2720
2fa0
5fd0
5fd0
5fd0
2fa0
2720
18c0
0700
ENDCHAR
STARTCHAR 01-03-28
ENCODING 9020
SWIDTH 960 0
DWIDTH 12 0
BBX 12 12 0 -2
BITMAP
0000
1000
2b00
6a80
0480
0040
0040
0040
0060
0060
0020
0000
ENDCHAR
STARTCHAR 01-03-29
ENCODING 9021
SWIDTH 960 0
DWIDTH 12 0
BBX 12 12 0 -2
BITMAP
0000
0000
0000
0000
0e00
0580
0240
0140
0080
0000
0000
0000
ENDCHAR
STARTCHAR 01-03-30
ENCODING 9022
SWIDTH 960 0
DWIDTH 12 0
BBX 12 12 0 -2
BITMAP
0000
0000
0000
0000
0e00
0780
03c0
01c0
0080
0000
0000
0000
ENDCHAR
STARTCHAR 01-03-31
ENCODING 9023
SWIDTH 960 0
DWIDTH 12 0
BBX 12 12 0 -2
BITMAP
0000
0000
0000
0700
0d80
0880
0d80
0700
0000
0000
0000
0000
ENDCHAR
STARTCHAR 01-03-32
ENCODING 9024
SWIDTH 960 0
DWIDTH 12 0
BBX 12 12 0 -2
BITMAP
0000
0000
0000
0700
0f80
0f80
0f80
0700
0000
0000
0000
0000
ENDCHAR
STARTCHAR 01-03-33
ENCODING 9025
SWIDTH 960 0
DWIDTH 12 0
BBX 12 12 0 -2
BITMAP
0000
0200
0200
0700
0700
0980
0f80
1980
10c0
30c0
78e0
0000
ENDCHAR
STARTCHAR 01-03-34
ENCODING 9026
SWIDTH 960 0
DWIDTH 12 0
BBX 12 12 0 -2
BITMAP
0000
3f00
1880
18c0
18c0
1f80
1840
1860
1860
1840
3f80
0000
ENDCHAR
STARTCHAR 01-03-35
ENCODING 9027
SWIDTH 960 0
DWIDTH 12 0
BBX 12 12 0 -2
BITMAP
0000
0740
08c0
1840
3040
3000
3000
3000
1840
08c0
0700
0000
ENDCHAR
STARTCHAR 01-03-36
ENCODING 9028
SWIDTH 960 0
DWIDTH 12 0
BBX 12 12 0 -2
BITMAP
0000
3f00
1880
1840
1860
1860
1860
1860
1840
1880
3f00
0000
ENDCHAR
STARTCHAR 01-03-37
ENCODING 9029
SWIDTH 960 0
DWIDTH 12 0
BBX 12 12 0 -2
BITMAP
0000
3fc0
1840
1820
1880
1f80
1880
1800
1820
1840
3fc0
0000
ENDCHAR
STARTCHAR 01-03-38
ENCODING 9030
SWIDTH 960 0
DWIDTH 12 0
BBX 12 12 0 -2
BITMAP
0000
3fc0
1840
1820
1880
1f80
1880
1800
1800
1800
3e00
0000
ENDCHAR
STARTCHAR 01-03-39
ENCODING 9031
SWIDTH 960 0
DWIDTH 12 0
BBX 12 12 0 -2
BITMAP
0000
0740
08c0
1840
3000
3000
31e0
30c0
18c0
08c0
0740
0000
ENDCHAR
STARTCHAR 01-03-40
ENCODING 9032
SWIDTH 960 0
DWIDTH 12 0
BBX 12 12 0 -2
BITMAP
0000
38e0
18c0
18c0
18c0
1fc0
18c0
18c0
18c0
18c0
38e0
0000
ENDCHAR
STARTCHAR 01-03-41
ENCODING 9033
SWIDTH 960 0
DWIDTH 12 0
BBX 12 12 0 -2
BITMAP
0000
0f00
0600
0600
0600
0600
0600
0600
0600
0600
0f00
0000
ENDCHAR
STARTCHAR 01-03-42
ENCODING 9034
SWIDTH 960 0
DWIDTH 12 0
BBX 12 12 0 -2
BITMAP
0000
03c0
0180
0180
0180
0180
0180
0180
1180
1900
0e00
0000
ENDCHAR
STARTCHAR 01-03-43
ENCODING 9035
SWIDTH 960 0
DWIDTH 12 0
BBX 12 12 0 -2
BITMAP
0000
39e0
1880
1880
1900
1b00
1b00
1d80
1980
18c0
38e0
0000
ENDCHAR
STARTCHAR 01-03-44
ENCODING 9036
SWIDTH 960 0
DWIDTH 12 0
BBX 12 12 0 -2
BITMAP
0000
3800
1800
1800
1800
1800
1800
1800
1820
1840
3fc0
0000
ENDCHAR
STARTCHAR 01-03-45
ENCODING 9037
SWIDTH 960 0
DWIDTH 12 0
BBX 12 12 0 -2
BITMAP
0000
70e0
30c0
30c0
39c0
39c0
2ac0
2ec0
24c0
24c0
70e0
0000
ENDCHAR
STARTCHAR 01-03-46
ENCODING 9038
SWIDTH 960 0
DWIDTH 12 0
BBX 12 12 0 -2
BITMAP
0000
30e0
1840
1c40
1e40
1640
1340
1340
11c0
10c0
3840
0000
ENDCHAR
STARTCHAR 01-03-47
ENCODING 9039
SWIDTH 960 0
DWIDTH 12 0
BBX 12 12 0 -2
BITMAP
0000
0700
0880
18c0
3060
3060
3060
3060
18c0
0880
0700
0000
ENDCHAR
STARTCHAR 01-03-48
ENCODING 9040
SWIDTH 960 0
DWIDTH 12 0
BBX 12 12 0 -2
BITMAP
0000
3f80
18c0
1860
1860
18c0
1f80
1800
1800
1800
3c00
0000
ENDCHAR
STARTCHAR 01-03-49
ENCODING 9041
SWIDTH 960 0
DWIDTH 12 0
BBX 12 12 0 -2
BITMAP
0000
0700
0880
18c0
3060
3060
3060
3660
1940
09c0
0760
0000
ENDCHAR
STARTCHAR 01-03-50
ENCODING 9042
SWIDTH 960 0
DWIDTH 12 0
BBX 12 12 0 -2
BITMAP
0000
3f80
18c0
1860
1860
18c0
1f80
1980
18c0
18c0
3ce0
0000
ENDCHAR
STARTCHAR 01-03-51
ENCODING 9043
SWIDTH 960 0
DWIDTH 12 0
BBX 12 12 0 -2
BITMAP
0000
0680
0980
1880
1c00
0f00
0780
01c0
10c0
1880
1700
0000
ENDCHAR
STARTCHAR 01-03-52
ENCODING 9044
SWIDTH 960 0
DWIDTH 12 0
BBX 12 12 0 -2
BITMAP
0000
3fc0
2640
4620
0600
0600
0600
0600
0600
0600
0f00
0000
ENDCHAR
STARTCHAR 01-03-53
ENCODING 9045
SWIDTH 960 0
DWIDTH 12 0
BBX 12 12 0 -2
BITMAP
0000
38e0
1840
1840
1840
1840
1840
1840
1840
0cc0
0700
0000
ENDCHAR
STARTCHAR 01-03-54
ENCODING 9046
SWIDTH 960 0
DWIDTH 12 0
BBX 12 12 0 -2
BITMAP
0000
38e0
1840
1840
0c80
0c80
0c80
0700
0700
0200
0200
0000
ENDCHAR
STARTCHAR 01-03-55
ENCODING 9047
SWIDTH 960 0
DWIDTH 12 0
BBX 12 12 0 -2
BITMAP
0000
7270
3320
3320
3ba0
1dc0
1dc0
19c0
08c0
0880
0880
0000
ENDCHAR
STARTCHAR 01-03-56
ENCODING 9048
SWIDTH 960 0
DWIDTH 12 0
BBX 12 12 0 -2
BITMAP
0000
38e0
1840
0c80
0f00
0700
0700
0580
0980
10c0
38e0
0000
ENDCHAR
STARTCHAR 01-03-57
ENCODING 9049
SWIDTH 960 0
DWIDTH 12 0
BBX 12 12 0 -2
BITMAP
0000
38e0
1840
1c80
0c80
0f00
0600
0600
0600
0600
0f00
0000
ENDCHAR
STARTCHAR 01-03-58
ENCODING 9050
SWIDTH 960 0
DWIDTH 12 0
BBX 12 12 0 -2
BITMAP
0000
1fc0
10c0
2180
0300
0300
0600
0c00
0820
1840
3fc0
0000
ENDCHAR
STARTCHAR 01-03-59
ENCODING 9051
SWIDTH 960 0
DWIDTH 12 0
BBX 12 12 0 -2
BITMAP
0000
0000
3fe0
0000
0200
0200
0200
3fe0
0200
0200
0200
0000
ENDCHAR
STARTCHAR 01-03-60
ENCODING 9052
SWIDTH 960 0
DWIDTH 12 0
BBX 12 12 0 -2
BITMAP
0000
1100
1080
18c0
0ce0
0f80
1f00
1180
10c0
18c0
30c0
0000
ENDCHAR
STARTCHAR 01-03-61
ENCODING 9053
SWIDTH 960 0
DWIDTH 12 0
BBX 12 12 0 -2
BITMAP
0000
1e00
0780
0600
1c00
0f80
0c40
08c0
1880
19a0
10c0
0000
ENDCHAR
STARTCHAR 01-03-62
ENCODING 9054
SWIDTH 960 0
DWIDTH 12 0
BBX 12 12 0 -2
BITMAP
0000
73c0
3320
3330
3330
3f20
33c0
3300
3300
3300
7380
0000
ENDCHAR
STARTCHAR 01-03-63
ENCODING 9055
SWIDTH 960 0
DWIDTH 12 0
BBX 12 12 0 -2
BITMAP
0000
0100
0280
0480
0480
0880
0900
0900
0a40
0480
1b00
0000
ENDCHAR
STARTCHAR 01-03-64
ENCODING 9056
SWIDTH 960 0
DWIDTH 12 0
BBX 12 12 0 -2
BITMAP
0000
3de0
2520
0880
18c0
3060
3060
3060
18c0
0880
0700
0000
ENDCHAR
STARTCHAR 01-03-65
ENCODING 9057
SWIDTH 960 0
DWIDTH 12 0
BBX 12 12 0 -2
BITMAP
0000
0000
0000
0000
0000
0f00
0180
0f80
1980
1980
0ec0
0000
ENDCHAR
STARTCHAR 01-03-66
ENCODING 9058
SWIDTH 960 0
DWIDTH 12 0
BBX 12 12 0 -2
BITMAP
0000
1c00
0c00
0c00
0c00
0f80
0cc0
0cc0
0cc0
0cc0
1f80
0000
ENDCHAR
STARTCHAR 01-03-67
ENCODING 9059
SWIDTH 960 0
DWIDTH 12 0
BBX 12 12 0 -2
BITMAP
0000
0000
0000
0000
0000
0f80
1880
1800
1800
1880
0f00
0000
ENDCHAR
STARTCHAR 01-03-68
ENCODING 9060
SWIDTH 960 0
DWIDTH 12 0
BBX 12 12 0 -2
BITMAP
0000
0380
0180
0180
0180
0f80
1980
1980
1980
1980
0fc0
0000
ENDCHAR
STARTCHAR 01-03-69
ENCODING 9061
SWIDTH 960 0
DWIDTH 12 0
BBX 12 12 0 -2
BITMAP
0000
0000
0000
0000
0000
0f80
18c0
1fc0
1800
1840
0f80
0000
ENDCHAR
STARTCHAR 01-03-70
ENCODING 9062
SWIDTH 960 0
DWIDTH 12 0
BBX 12 12 0 -2
BITMAP
0000
01c0
02c0
0600
0600
0f80
0600
0600
0600
0600
0f00
0000
ENDCHAR
STARTCHAR 01-03-71
ENCODING 9063
SWIDTH 960 0
DWIDTH 12 0
BBX 12 12 0 -2
BITMAP
0000
0000
0000
0000
00c0
0f80
1980
1900
0e00
1f80
10c0
0f80
ENDCHAR
STARTCHAR 01-03-72
ENCODING 9064
SWIDTH 960 0
DWIDTH 12 0
BBX 12 12 0 -2
BITMAP
0000
1c00
0c00
0c00
0c00
0f80
0cc0
0cc0
0cc0
0cc0
1ce0
0000
ENDCHAR
STARTCHAR 01-03-73
ENCODING 9065
SWIDTH 960 0
DWIDTH 12 0
BBX 12 12 0 -2
BITMAP
0000
0200
0700
0200
0000
0e00
0600
0600
0600
0600
0f00
0000
ENDCHAR
STARTCHAR 01-03-74
ENCODING 9066
SWIDTH 960 0
DWIDTH 12 0
BBX 12 12 0 -2
BITMAP
0000
0200
0700
0200
0000
0700
0300
0300
0300
0300
2200
3c00
ENDCHAR
STARTCHAR 01-03-75
ENCODING 9067
SWIDTH 960 0
DWIDTH 12 0
BBX 12 12 0 -2
BITMAP
0000
3800
1800
1800
19c0
1900
1a00
1f00
1b80
19c0
3ce0
0000
ENDCHAR
STARTCHAR 01-03-76
ENCODING 9068
SWIDTH 960 0
DWIDTH 12 0
BBX 12 12 0 -2
BITMAP
0000
0e00
0600
0600
0600
0600
0600
0600
0600
0600
0f00
0000
ENDCHAR
STARTCHAR 01-03-77
ENCODING 9069
SWIDTH 960 0
DWIDTH 12 0
BBX 12 12 0 -2
BITMAP
0000
0000
0000
0000
0000
36c0
1b60
1b60
1b60
1b60
3b70
0000
ENDCHAR
STARTCHAR 01-03-78
ENCODING 9070
SWIDTH 960 0
DWIDTH 12 0
BBX 12 12 0 -2
BITMAP
0000
0000
0000
0000
0000
1b80
0cc0
0cc0
0cc0
0cc0
1ce0
0000
ENDCHAR
STARTCHAR 01-03-79
ENCODING 9071
SWIDTH 960 0
DWIDTH 12 0
BBX 12 12 0 -2
BITMAP
0000
0000
0000
0000
0000
0f80
18c0
18c0
18c0
18c0
0f80
0000
ENDCHAR
STARTCHAR 01-03-80
ENCODING 9072
SWIDTH 960 0
DWIDTH 12 0
BBX 12 12 0 -2
BITMAP
0000
0000
0000
0000
0000
1b80
0cc0
0cc0
0cc0
0f80
0c00
1e00
ENDCHAR
STARTCHAR 01-03-81
ENCODING 9073
SWIDTH 960 0
DWIDTH 12 0
BBX 12 12 0 -2
BITMAP
0000
0000
0000
0000
0000
0ec0
1980
1980
1980
0f80
0180
03c0
ENDCHAR
STARTCHAR 01-03-82
ENCODING 9074
SWIDTH 960 0
DWIDTH 12 0
BBX 12 12 0 -2
BITMAP
0000
0000
0000
0000
0000
1bc0
0cc0
0c00
0c00
0c00
1e00
0000
ENDCHAR
STARTCHAR 01-03-83
ENCODING 9075
SWIDTH 960 0
DWIDTH 12 0
BBX 12 12 0 -2
BITMAP
0000
0000
0000
0000
0000
0fc0
18c0
0e00
0380
18c0
2f80
0000
ENDCHAR
STARTCHAR 01-03-84
ENCODING 9076
SWIDTH 960 0
DWIDTH 12 0
BBX 12 12 0 -2
BITMAP
0000
0000
0200
0600
0600
1f80
0600
0600
0600
0640
0380
0000
ENDCHAR
STARTCHAR 01-03-85
ENCODING 9077
SWIDTH 960 0
DWIDTH 12 0
BBX 12 12 0 -2
BITMAP
0000
0000
0000
0000
0000
1dc0
0cc0
0cc0
0cc0
0cc0
0760
0000
ENDCHAR
STARTCHAR 01-03-86
ENCODING 9078
SWIDTH 960 0
DWIDTH 12 0
BBX 12 12 0 -2
BITMAP
0000
0000
0000
0000
0000
39c0
1880
0d00
0f00
0600
0200
0000
ENDCHAR
STARTCHAR 01-03-87
ENCODING 9079
SWIDTH 960 0
DWIDTH 12 0
BBX 12 12 0 -2
BITMAP
0000
0000
0000
0000
0000
7370
3320
1bc0
1dc0
0d80
0480
0000
ENDCHAR
STARTCHAR 01-03-88
ENCODING 9080
SWIDTH 960 0
DWIDTH 12 0
BBX 12 12 0 -2
BITMAP
0000
0000
0000
0000
0000
38e0
1cc0
0700
0780
18c0
38e0
0000
ENDCHAR
STARTCHAR 01-03-89
ENCODING 9081
SWIDTH 960 0
DWIDTH 12 0
BBX 12 12 0 -2
BITMAP
0000
0000
0000
0000
0000
1ce0
0c40
0680
0780
0300
1a00
1c00
ENDCHAR
STARTCHAR 01-03-90
ENCODING 9082
SWIDTH 960 0
DWIDTH 12 0
BBX 12 12 0 -2
BITMAP
0000
0000
0000
0000
0000
0fc0
1180
0300
0600
0c40
1f80
0000
ENDCHAR
STARTCHAR 01-03-91
ENCODING 9083
SWIDTH 960 0
DWIDTH 12 0
BBX 12 12 0 -2
BITMAP
0000
0000
0000
0000
0f80
0000
0000
0f80
0000
0000
0000
0000
ENDCHAR
STARTCHAR 01-03-92
ENCODING 9084
SWIDTH 960 0
DWIDTH 12 0
BBX 12 12 0 -2
BITMAP
0000
0000
0000
0000
0000
0000
0f80
0000
0000
0000
0000
0000
ENDCHAR
STARTCHAR 01-03-93
ENCODING 9085
SWIDTH 960 0
DWIDTH 12 0
BBX 12 12 0 -2
BITMAP
0000
0000
0880
0880
0880
0880
3fe0
0880
0880
0880
0880
0000
ENDCHAR
STARTCHAR 01-03-94
ENCODING 9086
SWIDTH 960 0
DWIDTH 12 0
BBX 12 12 0 -2
BITMAP
0000
0000
0a80
0a80
0a80
0a80
3fe0
0a80
0a80
0a80
0a80
0000
ENDCHAR
STARTCHAR 01-04-01
ENCODING 9249
SWIDTH 960 0
DWIDTH 12 0
BBX 12 12 0 -2
BITMAP
0000
0000
0000
0400
0380
1e00
0500
0780
0d40
1240
1640
0880
ENDCHAR
STARTCHAR 01-04-02
ENCODING 9250
SWIDTH 960 0
DWIDTH 12 0
BBX 12 12 0 -2
BITMAP
0000
0800
0780
3d00
0900
0fc0
1a20
2a10
4c10
5420
2040
0180
ENDCHAR
STARTCHAR 01-04-03
ENCODING 9251
SWIDTH 960 0
DWIDTH 12 0
BBX 12 12 0 -2
BITMAP
0000
0000
0000
0000
2000
1080
1040
1040
10c0
1400
0800
0000
ENDCHAR
STARTCHAR 01-04-04
ENCODING 9252
SWIDTH 960 0
DWIDTH 12 0
BBX 12 12 0 -2
BITMAP
0000
0000
4000
2180
2040
2020
2020
2060
1420
1800
0800
0000
ENDCHAR
STARTCHAR 01-04-05
ENCODING 9253
SWIDTH 960 0
DWIDTH 12 0
BBX 12 12 0 -2
BITMAP
0000
0000
0000
0400
0300
0000
1380
0c40
0040
0040
0080
0300
ENDCHAR
STARTCHAR 01-04-06
ENCODING 9254
SWIDTH 960 0
DWIDTH 12 0
BBX 12 12 0 -2
BITMAP
0000
0800
0700
0000
2780
1840
0040
0040
0080
0080
0100
0200
ENDCHAR
STARTCHAR 01-04-07
ENCODING 9255
SWIDTH 960 0
DWIDTH 12 0
BBX 12 12 0 -2
BITMAP
0000
0000
0000
0400
0380
0000
1380
0d00
0200
0400
0a00
11c0
ENDCHAR
STARTCHAR 01-04-08
ENCODING 9256
SWIDTH 960 0
DWIDTH 12 0
BBX 12 12 0 -2
BITMAP
0000
0400
0380
0000
13c0
0c80
0100
0200
0700
0880
1080
2070
ENDCHAR
STARTCHAR 01-04-09
ENCODING 9257
SWIDTH 960 0
DWIDTH 12 0
BBX 12 12 0 -2
BITMAP
0000
0000
0000
1000
0e80
3860
0840
0b80
1c40
2840
1840
0980
ENDCHAR
STARTCHAR 01-04-10
ENCODING 9258
SWIDTH 960 0
DWIDTH 12 0
BBX 12 12 0 -2
BITMAP
0000
1000
0ac0
0c20
3830
08c0
0b20
0c10
1810
6910
18e0
0800
ENDCHAR
STARTCHAR 01-04-11
ENCODING 9259
SWIDTH 960 0
DWIDTH 12 0
BBX 12 12 0 -2
BITMAP
0000
0800
08c0
0e20
3910
0930
1100
1100
1100
2100
0200
0600
ENDCHAR
STARTCHAR 01-04-12
ENCODING 9260
SWIDTH 960 0
DWIDTH 12 0
BBX 12 12 0 -2
BITMAP
0000
10a0
1050
1c50
73c0
1220
2260
2200
2200
4200
0400
0c00
ENDCHAR
STARTCHAR 01-04-13
ENCODING 9261
SWIDTH 960 0
DWIDTH 12 0
BBX 12 12 0 -2
BITMAP
0000
0400
13c0
0e00
23e0
1d00
0080
0f80
1040
1000
0c00
0380
ENDCHAR
STARTCHAR 01-04-14
ENCODING 9262
SWIDTH 960 0
DWIDTH 12 0
BBX 12 12 0 -2
BITMAP
0000
08a0
2750
1c50
0780
7a00
0100
1f00
2080
2000
1800
0700
ENDCHAR
STARTCHAR 01-04-15
ENCODING 9263
SWIDTH 960 0
DWIDTH 12 0
BBX 12 12 0 -2
BITMAP
0000
0200
0100
0100
0200
0c00
1800
0400
0200
0100
0100
0100
ENDCHAR
STARTCHAR 01-04-16
ENCODING 9264
SWIDTH 960 0
DWIDTH 12 0
BBX 12 12 0 -2
BITMAP
0000
04a0
0250
0250
0400
1800
3000
0800
0400
0200
0200
0200
ENDCHAR
STARTCHAR 01-04-17
ENCODING 9265
SWIDTH 960 0
DWIDTH 12 0
BBX 12 12 0 -2
BITMAP
0000
0100
2080
1060
17c0
2040
2040
2040
2840
1080
1080
0100
ENDCHAR
STARTCHAR 01-04-18
ENCODING 9266
SWIDTH 960 0
DWIDTH 12 0
BBX 12 12 0 -2
BITMAP
0000
02a0
2150
10f0
17c0
2040
2040
2040
2840
1080
1080
0100
ENDCHAR
STARTCHAR 01-04-19
ENCODING 9267
SWIDTH 960 0
DWIDTH 12 0
BBX 12 12 0 -2
BITMAP
0000
0800
07c0
0080
0100
0000
0000
0000
2000
1020
0fc0
0000
ENDCHAR
STARTCHAR 01-04-20
ENCODING 9268
SWIDTH 960 0
DWIDTH 12 0
BBX 12 12 0 -2
BITMAP
0000
10a0
0f50
0150
0200
0000
0000
0000
2000
1020
0fc0
0000
ENDCHAR
STARTCHAR 01-04-21
ENCODING 9269
SWIDTH 960 0
DWIDTH 12 0
BBX 12 12 0 -2
BITMAP
0000
0400
22c0
1f00
0100
0100
0f80
1080
2000
2000
1800
0700
ENDCHAR
STARTCHAR 01-04-22
ENCODING 9270
SWIDTH 960 0
DWIDTH 12 0
BBX 12 12 0 -2
BITMAP
0000
08a0
2550
1e50
0200
0100
0f80
1080
2000
2000
1800
0700
ENDCHAR
STARTCHAR 01-04-23
ENCODING 9271
SWIDTH 960 0
DWIDTH 12 0
BBX 12 12 0 -2
BITMAP
0000
1000
0800
0800
0800
0800
0800
0800
0820
0840
0480
0300
ENDCHAR
STARTCHAR 01-04-24
ENCODING 9272
SWIDTH 960 0
DWIDTH 12 0
BBX 12 12 0 -2
BITMAP
0000
2140
10a0
10a0
1000
1000
1000
1000
1040
1080
0900
0600
ENDCHAR
STARTCHAR 01-04-25
ENCODING 9273
SWIDTH 960 0
DWIDTH 12 0
BBX 12 12 0 -2
BITMAP
0000
0400
43f0
3e00
0200
0e00
1100
1100
0f00
0100
0200
0c00
ENDCHAR
STARTCHAR 01-04-26
ENCODING 9274
SWIDTH 960 0
DWIDTH 12 0
BBX 12 12 0 -2
BITMAP
0000
04a0
42d0
3f50
0200
0e00
1100
1100
0f00
0100
0200
0c00
ENDCHAR
STARTCHAR 01-04-27
ENCODING 9275
SWIDTH 960 0
DWIDTH 12 0
BBX 12 12 0 -2
BITMAP
0000
0100
2080
1080
51f0
3e80
1080
1080
1180
1080
0800
07c0
ENDCHAR
STARTCHAR 01-04-28
ENCODING 9276
SWIDTH 960 0
DWIDTH 12 0
BBX 12 12 0 -2
BITMAP
0000
02a0
2150
1150
53e0
3d00
1100
1100
1300
1100
0800
07c0
ENDCHAR
STARTCHAR 01-04-29
ENCODING 9277
SWIDTH 960 0
DWIDTH 12 0
BBX 12 12 0 -2
BITMAP
0000
1380
0d00
0200
0460
0f80
3100
0200
0400
0400
0200
0180
ENDCHAR
STARTCHAR 01-04-30
ENCODING 9278
SWIDTH 960 0
DWIDTH 12 0
BBX 12 12 0 -2
BITMAP
0000
27a0
1a50
0250
0400
0f80
3200
0400
0800
0800
0400
0300
ENDCHAR
STARTCHAR 01-04-31
ENCODING 9279
SWIDTH 960 0
DWIDTH 12 0
BBX 12 12 0 -2
BITMAP
0000
1000
0900
0e00
3800
09c0
0820
1040
1000
1200
2200
21e0
ENDCHAR
STARTCHAR 01-04-32
ENCODING 9280
SWIDTH 960 0
DWIDTH 12 0
BBX 12 12 0 -2
BITMAP
0000
10a0
0a50
0c50
3800
09c0
0820
1040
1000
1200
2200
21e0
ENDCHAR
STARTCHAR 01-04-33
ENCODING 9281
SWIDTH 960 0
DWIDTH 12 0
BBX 12 12 0 -2
BITMAP
0000
0800
2780
1c00
0800
0b80
0c40
1820
1020
0040
00c0
0700
ENDCHAR
STARTCHAR 01-04-34
ENCODING 9282
SWIDTH 960 0
DWIDTH 12 0
BBX 12 12 0 -2
BITMAP
0000
08a0
2750
1c50
0800
0b80
0c40
1820
1020
0040
00c0
0700
ENDCHAR
STARTCHAR 01-04-35
ENCODING 9283
SWIDTH 960 0
DWIDTH 12 0
BBX 12 12 0 -2
BITMAP
0000
0000
0000
0000
0000
0000
0380
2440
1840
0040
0080
0300
ENDCHAR
STARTCHAR 01-04-36
ENCODING 9284
SWIDTH 960 0
DWIDTH 12 0
BBX 12 12 0 -2
BITMAP
0000
0000
0000
0780
4840
3020
0020
0020
0040
0380
0000
0000
ENDCHAR
STARTCHAR 01-04-37
ENCODING 9285
SWIDTH 960 0
DWIDTH 12 0
BBX 12 12 0 -2
BITMAP
0000
00a0
0050
0750
4880
3040
0040
0040
0080
0700
0000
0000
ENDCHAR
STARTCHAR 01-04-38
ENCODING 9286
SWIDTH 960 0
DWIDTH 12 0
BBX 12 12 0 -2
BITMAP
0000
0020
23c0
1d00
0200
0200
0400
0400
0400
0400
0200
01c0
ENDCHAR
STARTCHAR 01-04-39
ENCODING 9287
SWIDTH 960 0
DWIDTH 12 0
BBX 12 12 0 -2
BITMAP
0000
00a0
2750
1a50
0200
0200
0400
0400
0400
0400
0200
01c0
ENDCHAR
STARTCHAR 01-04-40
ENCODING 9288
SWIDTH 960 0
DWIDTH 12 0
BBX 12 12 0 -2
BITMAP
0000
1000
0800
0800
08c0
0700
0400
0800
1000
1000
1000
0fc0
ENDCHAR
STARTCHAR 01-04-41
ENCODING 9289
SWIDTH 960 0
DWIDTH 12 0
BBX 12 12 0 -2
BITMAP
0000
10a0
0850
0850
0880
0700
0400
0800
1000
1000
1000
0fc0
ENDCHAR
STARTCHAR 01-04-42
ENCODING 9290
SWIDTH 960 0
DWIDTH 12 0
BBX 12 12 0 -2
BITMAP
0000
1000
0a00
7cc0
0820
1040
1080
2080
2780
08c0
08a0
0700
ENDCHAR
STARTCHAR 01-04-43
ENCODING 9291
SWIDTH 960 0
DWIDTH 12 0
BBX 12 12 0 -2
BITMAP
0000
2000
13c0
1060
2080
2000
2000
2000
2400
2c00
13e0
1000
ENDCHAR
STARTCHAR 01-04-44
ENCODING 9292
SWIDTH 960 0
DWIDTH 12 0
BBX 12 12 0 -2
BITMAP
0000
0400
0200
1380
1e40
3220
2a20
4c20
45c0
4a20
3250
0180
ENDCHAR
STARTCHAR 01-04-45
ENCODING 9293
SWIDTH 960 0
DWIDTH 12 0
BBX 12 12 0 -2
BITMAP
0000
1000
0800
09c0
2a20
1c20
0820
1820
19e0
2a20
5a50
0980
ENDCHAR
STARTCHAR 01-04-46
ENCODING 9294
SWIDTH 960 0
DWIDTH 12 0
BBX 12 12 0 -2
BITMAP
0000
0000
0780
0a40
1220
2220
2420
2420
2820
1040
0180
0000
ENDCHAR
STARTCHAR 01-04-47
ENCODING 9295
SWIDTH 960 0
DWIDTH 12 0
BBX 12 12 0 -2
BITMAP
0000
0100
2080
14f0
1380
2080
2080
2080
2bc0
34a0
1490
1300
ENDCHAR
STARTCHAR 01-04-48
ENCODING 9296
SWIDTH 960 0
DWIDTH 12 0
BBX 12 12 0 -2
BITMAP
0000
02a0
2150
1550
13e0
2080
2080
2080
2bc0
34a0
1490
1300
ENDCHAR
STARTCHAR 01-04-49
ENCODING 9297
SWIDTH 960 0
DWIDTH 12 0
BBX 12 12 0 -2
BITMAP
0000
0260
2190
1590
13e0
2080
2080
2080
2bc0
34a0
1490
1300
ENDCHAR
STARTCHAR 01-04-50
ENCODING 9298
SWIDTH 960 0
DWIDTH 12 0
BBX 12 12 0 -2
BITMAP
0000
0080
0880
3840
0860
1050
1040
1040
1040
1080
0900
0600
ENDCHAR
STARTCHAR 01-04-51
ENCODING 9299
SWIDTH 960 0
DWIDTH 12 0
BBX 12 12 0 -2
BITMAP
0000
01a0
0950
3950
0880
1060
1050
1040
1040
1080
0900
0600
ENDCHAR
STARTCHAR 01-04-52
ENCODING 9300
SWIDTH 960 0
DWIDTH 12 0
BBX 12 12 0 -2
BITMAP
0000
0160
0990
3890
08e0
1060
1050
1040
1040
1080
0900
0600
ENDCHAR
STARTCHAR 01-04-53
ENCODING 9301
SWIDTH 960 0
DWIDTH 12 0
BBX 12 12 0 -2
BITMAP
0000
0400
0300
0100
0200
0400
0240
4520
2910
3130
2500
0200
ENDCHAR
STARTCHAR 01-04-54
ENCODING 9302
SWIDTH 960 0
DWIDTH 12 0
BBX 12 12 0 -2
BITMAP
0000
04a0
0350
0150
0200
0400
0240
4520
2910
3130
2500
0200
ENDCHAR
STARTCHAR 01-04-55
ENCODING 9303
SWIDTH 960 0
DWIDTH 12 0
BBX 12 12 0 -2
BITMAP
0000
0460
0390
0190
0260
0400
0240
4520
2910
3130
2500
0200
ENDCHAR
STARTCHAR 01-04-56
ENCODING 9304
SWIDTH 960 0
DWIDTH 12 0
BBX 12 12 0 -2
BITMAP
0000
0000
0000
0800
0c00
1400
1200
2100
2080
0060
0000
0000
ENDCHAR
STARTCHAR 01-04-57
ENCODING 9305
SWIDTH 960 0
DWIDTH 12 0
BBX 12 12 0 -2
BITMAP
0000
0000
00a0
0850
0c50
1400
1200
2100
2080
0060
0000
0000
ENDCHAR
STARTCHAR 01-04-58
ENCODING 9306
SWIDTH 960 0
DWIDTH 12 0
BBX 12 12 0 -2
BITMAP
0000
0000
00c0
0920
0d20
14c0
1200
2100
2080
0060
0000
0000
ENDCHAR
STARTCHAR 01-04-59
ENCODING 9307
SWIDTH 960 0
DWIDTH 12 0
BBX 12 12 0 -2
BITMAP
0000
0000
24e0
1300
1080
24f0
2380
2080
2bc0
34a0
1490
1300
ENDCHAR
STARTCHAR 01-04-60
ENCODING 9308
SWIDTH 960 0
DWIDTH 12 0
BBX 12 12 0 -2
BITMAP
0000
00a0
2450
13d0
1080
24f0
2380
2080
2bc0
34a0
1490
1300
ENDCHAR
STARTCHAR 01-04-61
ENCODING 9309
SWIDTH 960 0
DWIDTH 12 0
BBX 12 12 0 -2
BITMAP
0000
0060
2490
1390
10e0
24f0
2380
2080
2bc0
34a0
1490
1300
ENDCHAR
STARTCHAR 01-04-62
ENCODING 9310
SWIDTH 960 0
DWIDTH 12 0
BBX 12 12 0 -2
BITMAP
0000
0400
23c0
1e00
0200
2380
1e00
0200
1e00
2380
2240
1c00
ENDCHAR
STARTCHAR 01-04-63
ENCODING 9311
SWIDTH 960 0
DWIDTH 12 0
BBX 12 12 0 -2
BITMAP
0000
1200
0e00
0200
0280
0440
1fc0
2460
4850
4880
3080
0100
ENDCHAR
STARTCHAR 01-04-64
ENCODING 9312
SWIDTH 960 0
DWIDTH 12 0
BBX 12 12 0 -2
BITMAP
0000
0800
0400
26c0
1c20
0430
1c00
2440
2420
1820
0820
07c0
ENDCHAR
STARTCHAR 01-04-65
ENCODING 9313
SWIDTH 960 0
DWIDTH 12 0
BBX 12 12 0 -2
BITMAP
0000
0400
0200
1380
1e40
3220
2a20
4c20
4420
4a20
3040
0180
ENDCHAR
STARTCHAR 01-04-66
ENCODING 9314
SWIDTH 960 0
DWIDTH 12 0
BBX 12 12 0 -2
BITMAP
0000
0400
2200
1f00
0400
2400
1e40
0820
0820
0820
0440
0380
ENDCHAR
STARTCHAR 01-04-67
ENCODING 9315
SWIDTH 960 0
DWIDTH 12 0
BBX 12 12 0 -2
BITMAP
0000
0000
0000
0100
0880
0880
05c0
2620
1c20
0240
0200
0200
ENDCHAR
STARTCHAR 01-04-68
ENCODING 9316
SWIDTH 960 0
DWIDTH 12 0
BBX 12 12 0 -2
BITMAP
0000
0300
1080
1040
0bc0
4c20
3420
04c0
0400
0200
0200
0200
ENDCHAR
STARTCHAR 01-04-69
ENCODING 9317
SWIDTH 960 0
DWIDTH 12 0
BBX 12 12 0 -2
BITMAP
0000
0000
0000
0200
2100
13c0
1520
1920
1120
13c0
0100
0200
ENDCHAR
STARTCHAR 01-04-70
ENCODING 9318
SWIDTH 960 0
DWIDTH 12 0
BBX 12 12 0 -2
BITMAP
0000
0200
4100
23c0
2d20
3110
2110
2110
2520
03c0
0100
0200
ENDCHAR
STARTCHAR 01-04-71
ENCODING 9319
SWIDTH 960 0
DWIDTH 12 0
BBX 12 12 0 -2
BITMAP
0000
0000
0000
0000
0400
0240
0380
0200
0200
0e00
1380
0c40
ENDCHAR
STARTCHAR 01-04-72
ENCODING 9320
SWIDTH 960 0
DWIDTH 12 0
BBX 12 12 0 -2
BITMAP
0000
0400
0200
0260
0380
0200
0200
0200
1f00
22c0
2220
1c00
ENDCHAR
STARTCHAR 01-04-73
ENCODING 9321
SWIDTH 960 0
DWIDTH 12 0
BBX 12 12 0 -2
BITMAP
0000
0400
0380
0c00
0800
1000
17c0
1820
1020
0020
00c0
0300
ENDCHAR
STARTCHAR 01-04-74
ENCODING 9322
SWIDTH 960 0
DWIDTH 12 0
BBX 12 12 0 -2
BITMAP
0000
0100
2180
1080
1880
1080
1080
1080
0100
0100
0200
0400
ENDCHAR
STARTCHAR 01-04-75
ENCODING 9323
SWIDTH 960 0
DWIDTH 12 0
BBX 12 12 0 -2
BITMAP
0000
1300
0d00
0200
0400
0f80
0840
1020
2020
0640
0980
0700
ENDCHAR
STARTCHAR 01-04-76
ENCODING 9324
SWIDTH 960 0
DWIDTH 12 0
BBX 12 12 0 -2
BITMAP
0000
1000
0800
0980
3a40
0c40
0840
1840
2840
0850
1820
0800
ENDCHAR
STARTCHAR 01-04-77
ENCODING 9325
SWIDTH 960 0
DWIDTH 12 0
BBX 12 12 0 -2
BITMAP
0000
1300
0d00
0200
0400
0f80
0840
1020
2020
0040
0080
0700
ENDCHAR
STARTCHAR 01-04-78
ENCODING 9326
SWIDTH 960 0
DWIDTH 12 0
BBX 12 12 0 -2
BITMAP
0000
0000
0000
1000
0800
0800
3b80
0c40
0840
1840
2880
0900
ENDCHAR
STARTCHAR 01-04-79
ENCODING 9327
SWIDTH 960 0
DWIDTH 12 0
BBX 12 12 0 -2
BITMAP
0000
1000
0800
09c0
3a20
0c10
0810
1810
2810
0820
18c0
0800
ENDCHAR
STARTCHAR 01-04-80
ENCODING 9328
SWIDTH 960 0
DWIDTH 12 0
BBX 12 12 0 -2
BITMAP
0000
1300
0d00
0200
03c0
0c20
1410
2410
2810
29d0
1220
01c0
ENDCHAR
STARTCHAR 01-04-81
ENCODING 9329
SWIDTH 960 0
DWIDTH 12 0
BBX 12 12 0 -2
BITMAP
0000
0900
0600
0200
0f80
3040
0640
0980
1600
1ce0
2310
4030
ENDCHAR
STARTCHAR 01-04-82
ENCODING 9330
SWIDTH 960 0
DWIDTH 12 0
BBX 12 12 0 -2
BITMAP
0000
0800
2580
1e00
0820
0ec0
1100
2300
0500
0800
0800
07c0
ENDCHAR
STARTCHAR 01-04-83
ENCODING 9331
SWIDTH 960 0
DWIDTH 12 0
BBX 12 12 0 -2
BITMAP
0000
0800
0400
0400
0800
0800
0e00
1100
1100
1110
2120
20c0
ENDCHAR
STARTCHAR 01-04-84
ENCODING 9332
SWIDTH 960 0
DWIDTH 12 0
BBX 12 12 0 -2
BITMAP
0000
08a0
0650
0050
2700
1880
0080
0080
0100
0100
0200
0400
ENDCHAR
STARTCHAR 01-04-85
ENCODING 9333
SWIDTH 960 0
DWIDTH 12 0
BBX 12 12 0 -2
BITMAP
0000
0000
0000
0000
0400
0480
1e40
0520
0960
0900
1200
0600
ENDCHAR
STARTCHAR 01-04-86
ENCODING 9334
SWIDTH 960 0
DWIDTH 12 0
BBX 12 12 0 -2
BITMAP
0000
0000
0000
0000
1100
0880
14e0
1380
1080
1480
0880
0900
ENDCHAR
STARTCHAR 01-04-87
ENCODING 9335
SWIDTH 960 0
DWIDTH 12 0
BBX 12 12 0 -2
BITMAP
0000
1060
1090
1c90
73e0
1220
2260
2200
2200
4200
0400
0c00
ENDCHAR
STARTCHAR 01-04-88
ENCODING 9336
SWIDTH 960 0
DWIDTH 12 0
BBX 12 12 0 -2
BITMAP
0000
0860
0790
3c90
07e0
7a00
0100
1f00
2080
2000
1800
0700
ENDCHAR
STARTCHAR 01-04-89
ENCODING 9337
SWIDTH 960 0
DWIDTH 12 0
BBX 12 12 0 -2
BITMAP
0000
0460
0290
0290
0460
1800
3000
0800
0400
0200
0200
0200
ENDCHAR
STARTCHAR 01-04-90
ENCODING 9338
SWIDTH 960 0
DWIDTH 12 0
BBX 12 12 0 -2
BITMAP
0000
0260
2190
1090
17e0
2080
2080
2080
2880
1100
1100
0200
ENDCHAR
STARTCHAR 01-04-91
ENCODING 9339
SWIDTH 960 0
DWIDTH 12 0
BBX 12 12 0 -2
BITMAP
0000
1060
0f90
0190
0260
0000
0000
0000
2000
1020
0fc0
0000
ENDCHAR
STARTCHAR 01-05-01
ENCODING 9505
SWIDTH 960 0
DWIDTH 12 0
BBX 12 12 0 -2
BITMAP
0000
0000
0000
0000
0000
13c0
0c40
0280
0200
0200
0400
0800
ENDCHAR
STARTCHAR 01-05-02
ENCODING 9506
SWIDTH 960 0
DWIDTH 12 0
BBX 12 12 0 -2
BITMAP
0000
0000
23e0
1c20
0240
0280
0200
0200
0400
0400
0800
1000
ENDCHAR
STARTCHAR 01-05-03
ENCODING 9507
SWIDTH 960 0
DWIDTH 12 0
BBX 12 12 0 -2
BITMAP
0000
0000
0000
0000
0000
0080
0100
0600
1a00
0200
0200
0200
ENDCHAR
STARTCHAR 01-05-04
ENCODING 9508
SWIDTH 960 0
DWIDTH 12 0
BBX 12 12 0 -2
BITMAP
0000
0040
0040
0080
0100
0600
3900
0100
0100
0100
0100
0100
ENDCHAR
STARTCHAR 01-05-05
ENCODING 9509
SWIDTH 960 0
DWIDTH 12 0
BBX 12 12 0 -2
BITMAP
0000
0000
0000
0000
0400
03c0
1e40
0840
0080
0080
0300
0c00
ENDCHAR
STARTCHAR 01-05-06
ENCODING 9510
SWIDTH 960 0
DWIDTH 12 0
BBX 12 12 0 -2
BITMAP
0000
0400
0200
23e0
1e20
1020
1020
0040
0040
0080
0300
0c00
ENDCHAR
STARTCHAR 01-05-07
ENCODING 9511
SWIDTH 960 0
DWIDTH 12 0
BBX 12 12 0 -2
BITMAP
0000
0000
0000
0000
0000
0000
1180
0e00
0200
0200
0380
1c40
ENDCHAR
STARTCHAR 01-05-08
ENCODING 9512
SWIDTH 960 0
DWIDTH 12 0
BBX 12 12 0 -2
BITMAP
0000
0000
0000
21e0
1e00
0200
0200
0200
0200
07e0
7810
0000
ENDCHAR
STARTCHAR 01-05-09
ENCODING 9513
SWIDTH 960 0
DWIDTH 12 0
BBX 12 12 0 -2
BITMAP
0000
0000
0000
0000
0200
1100
0fe0
0300
0500
0900
3100
0300
ENDCHAR
STARTCHAR 01-05-10
ENCODING 9514
SWIDTH 960 0
DWIDTH 12 0
BBX 12 12 0 -2
BITMAP
0000
0200
0100
21e0
1f00
0300
0500
0900
1100
6100
0300
0100
ENDCHAR
STARTCHAR 01-05-11
ENCODING 9515
SWIDTH 960 0
DWIDTH 12 0
BBX 12 12 0 -2
BITMAP
0000
0400
0200
23e0
1e20
0220
0420
0420
0820
1040
2140
0080
ENDCHAR
STARTCHAR 01-05-12
ENCODING 9516
SWIDTH 960 0
DWIDTH 12 0
BBX 12 12 0 -2
BITMAP
0000
04a0
0250
23f0
1e20
0220
0420
0420
0820
1040
2140
0080
ENDCHAR
STARTCHAR 01-05-13
ENCODING 9517
SWIDTH 960 0
DWIDTH 12 0
BBX 12 12 0 -2
BITMAP
0000
0800
0400
04c0
0700
3a00
0260
0780
3900
0100
0080
0080
ENDCHAR
STARTCHAR 01-05-14
ENCODING 9518
SWIDTH 960 0
DWIDTH 12 0
BBX 12 12 0 -2
BITMAP
0000
08a0
0450
04d0
0700
3a00
0260
0780
3900
0100
0080
0080
ENDCHAR
STARTCHAR 01-05-15
ENCODING 9519
SWIDTH 960 0
DWIDTH 12 0
BBX 12 12 0 -2
BITMAP
0000
0200
0200
03c0
0440
0840
1080
0080
0100
0200
0400
1800
ENDCHAR
STARTCHAR 01-05-16
ENCODING 9520
SWIDTH 960 0
DWIDTH 12 0
BBX 12 12 0 -2
BITMAP
0000
02a0
0250
03d0
0440
0840
1080
0080
0100
0200
0400
1800
ENDCHAR
STARTCHAR 01-05-17
ENCODING 9521
SWIDTH 960 0
DWIDTH 12 0
BBX 12 12 0 -2
BITMAP
0000
1000
0800
08e0
1f00
1080
2080
0080
0100
0100
0200
0400
ENDCHAR
STARTCHAR 01-05-18
ENCODING 9522
SWIDTH 960 0
DWIDTH 12 0
BBX 12 12 0 -2
BITMAP
0000
10a0
0850
08d0
1f00
1080
2080
0080
0100
0100
0200
0400
ENDCHAR
STARTCHAR 01-05-19
ENCODING 9523
SWIDTH 960 0
DWIDTH 12 0
BBX 12 12 0 -2
BITMAP
0000
0000
0000
23c0
1c40
0040
0040
0040
0040
07c0
3840
0000
ENDCHAR
STARTCHAR 01-05-20
ENCODING 9524
SWIDTH 960 0
DWIDTH 12 0
BBX 12 12 0 -2
BITMAP
0000
00a0
0050
23d0
1c40
0040
0040
0040
0040
07c0
3840
0000
ENDCHAR
STARTCHAR 01-05-21
ENCODING 9525
SWIDTH 960 0
DWIDTH 12 0
BBX 12 12 0 -2
BITMAP
0000
0100
1080
0880
49f0
3e80
0880
0880
0100
0100
0200
0c00
ENDCHAR
STARTCHAR 01-05-22
ENCODING 9526
SWIDTH 960 0
DWIDTH 12 0
BBX 12 12 0 -2
BITMAP
0000
02a0
1150
0950
49e0
3f00
0900
0900
0100
0100
0200
0c00
ENDCHAR
STARTCHAR 01-05-23
ENCODING 9527
SWIDTH 960 0
DWIDTH 12 0
BBX 12 12 0 -2
BITMAP
0000
0000
1800
0400
0000
3000
0820
0040
0080
0100
2600
1800
ENDCHAR
STARTCHAR 01-05-24
ENCODING 9528
SWIDTH 960 0
DWIDTH 12 0
BBX 12 12 0 -2
BITMAP
0000
0000
18a0
0450
0050
3000
0820
0040
0080
0100
2600
1800
ENDCHAR
STARTCHAR 01-05-25
ENCODING 9529
SWIDTH 960 0
DWIDTH 12 0
BBX 12 12 0 -2
BITMAP
0000
0000
13c0
0c40
0080
0080
0100
0100
0280
0440
0820
3020
ENDCHAR
STARTCHAR 01-05-26
ENCODING 9530
SWIDTH 960 0
DWIDTH 12 0
BBX 12 12 0 -2
BITMAP
0000
00a0
2750
1950
0100
0100
0200
0300
0480
0840
1020
2020
ENDCHAR
STARTCHAR 01-05-27
ENCODING 9531
SWIDTH 960 0
DWIDTH 12 0
BBX 12 12 0 -2
BITMAP
0000
2000
1000
11e0
5640
3840
1080
1100
1000
0800
07c0
0000
ENDCHAR
STARTCHAR 01-05-28
ENCODING 9532
SWIDTH 960 0
DWIDTH 12 0
BBX 12 12 0 -2
BITMAP
0000
20a0
1050
11d0
5640
3840
1080
1100
1000
0800
07c0
0000
ENDCHAR
STARTCHAR 01-05-29
ENCODING 9533
SWIDTH 960 0
DWIDTH 12 0
BBX 12 12 0 -2
BITMAP
0000
0000
2040
1020
0820
0820
0040
0040
0080
0100
0200
0400
ENDCHAR
STARTCHAR 01-05-30
ENCODING 9534
SWIDTH 960 0
DWIDTH 12 0
BBX 12 12 0 -2
BITMAP
0000
00a0
2050
1050
0880
0880
0080
0100
0100
0200
0400
0800
ENDCHAR
STARTCHAR 01-05-31
ENCODING 9535
SWIDTH 960 0
DWIDTH 12 0
BBX 12 12 0 -2
BITMAP
0000
0200
0200
03e0
0420
0e40
1140
00c0
0080
0100
0600
1800
ENDCHAR
STARTCHAR 01-05-32
ENCODING 9536
SWIDTH 960 0
DWIDTH 12 0
BBX 12 12 0 -2
BITMAP
0000
04a0
0450
07d0
0880
1c80
2280
0100
0100
0200
0c00
3000
ENDCHAR
STARTCHAR 01-05-33
ENCODING 9537
SWIDTH 960 0
DWIDTH 12 0
BBX 12 12 0 -2
BITMAP
0000
0040
0180
1e00
0200
43f0
3d00
0100
0200
0200
0400
0800
ENDCHAR
STARTCHAR 01-05-34
ENCODING 9538
SWIDTH 960 0
DWIDTH 12 0
BBX 12 12 0 -2
BITMAP
0000
00a0
0150
1e50
0200
43f0
3d00
0100
0200
0200
0400
0800
ENDCHAR
STARTCHAR 01-05-35
ENCODING 9539
SWIDTH 960 0
DWIDTH 12 0
BBX 12 12 0 -2
BITMAP
0000
0000
0000
0000
0000
0400
1240
0a40
0880
0080
0100
0200
ENDCHAR
STARTCHAR 01-05-36
ENCODING 9540
SWIDTH 960 0
DWIDTH 12 0
BBX 12 12 0 -2
BITMAP
0000
0000
0840
4420
2220
1220
1040
0040
0080
0100
0200
0400
ENDCHAR
STARTCHAR 01-05-37
ENCODING 9541
SWIDTH 960 0
DWIDTH 12 0
BBX 12 12 0 -2
BITMAP
0000
00a0
0850
4450
2280
1240
1040
0080
0080
0100
0200
0400
ENDCHAR
STARTCHAR 01-05-38
ENCODING 9542
SWIDTH 960 0
DWIDTH 12 0
BBX 12 12 0 -2
BITMAP
0000
0000
13c0
0c00
0000
41f0
3e00
0100
0200
0200
0400
0800
ENDCHAR
STARTCHAR 01-05-39
ENCODING 9543
SWIDTH 960 0
DWIDTH 12 0
BBX 12 12 0 -2
BITMAP
0000
00a0
1350
0c50
0000
41f0
3e00
0100
0200
0200
0400
0800
ENDCHAR
STARTCHAR 01-05-40
ENCODING 9544
SWIDTH 960 0
DWIDTH 12 0
BBX 12 12 0 -2
BITMAP
0000
0800
0400
0400
0400
0780
0460
0400
0400
0400
0400
0400
ENDCHAR
STARTCHAR 01-05-41
ENCODING 9545
SWIDTH 960 0
DWIDTH 12 0
BBX 12 12 0 -2
BITMAP
0000
08a0
0450
0450
0400
0780
0460
0400
0400
0400
0400
0400
ENDCHAR
STARTCHAR 01-05-42
ENCODING 9546
SWIDTH 960 0
DWIDTH 12 0
BBX 12 12 0 -2
BITMAP
0000
0400
0200
0200
43f0
3e00
0200
0200
0400
0400
0800
1000
ENDCHAR
STARTCHAR 01-05-43
ENCODING 9547
SWIDTH 960 0
DWIDTH 12 0
BBX 12 12 0 -2
BITMAP
0000
0000
0000
01c0
1e00
0000
0000
0000
01e0
7e10
0000
0000
ENDCHAR
STARTCHAR 01-05-44
ENCODING 9548
SWIDTH 960 0
DWIDTH 12 0
BBX 12 12 0 -2
BITMAP
0000
0000
11c0
0e40
0040
0c80
0280
0100
0280
0c40
3020
0000
ENDCHAR
STARTCHAR 01-05-45
ENCODING 9549
SWIDTH 960 0
DWIDTH 12 0
BBX 12 12 0 -2
BITMAP
0000
0400
0200
23c0
1c80
0100
0280
0e40
3220
0200
0200
0200
ENDCHAR
STARTCHAR 01-05-46
ENCODING 9550
SWIDTH 960 0
DWIDTH 12 0
BBX 12 12 0 -2
BITMAP
0000
0000
0080
0040
0040
0080
0080
0100
0200
0400
1800
0000
ENDCHAR
STARTCHAR 01-05-47
ENCODING 9551
SWIDTH 960 0
DWIDTH 12 0
BBX 12 12 0 -2
BITMAP
0000
0000
0000
0100
0880
0840
0840
0820
1020
1020
2020
0000
ENDCHAR
STARTCHAR 01-05-48
ENCODING 9552
SWIDTH 960 0
DWIDTH 12 0
BBX 12 12 0 -2
BITMAP
0000
00a0
0050
0150
0880
0840
0840
0820
1020
1020
2020
0000
ENDCHAR
STARTCHAR 01-05-49
ENCODING 9553
SWIDTH 960 0
DWIDTH 12 0
BBX 12 12 0 -2
BITMAP
0000
0060
0090
0190
08e0
0840
0840
0820
1020
1020
2020
0000
ENDCHAR
STARTCHAR 01-05-50
ENCODING 9554
SWIDTH 960 0
DWIDTH 12 0
BBX 12 12 0 -2
BITMAP
0000
2000
1000
1040
1380
1c00
1000
1000
1000
0800
07e0
0000
ENDCHAR
STARTCHAR 01-05-51
ENCODING 9555
SWIDTH 960 0
DWIDTH 12 0
BBX 12 12 0 -2
BITMAP
0000
20a0
1050
10d0
1300
1c00
1000
1000
1000
0800
07e0
0000
ENDCHAR
STARTCHAR 01-05-52
ENCODING 9556
SWIDTH 960 0
DWIDTH 12 0
BBX 12 12 0 -2
BITMAP
0000
2060
1090
1090
1360
1c00
1000
1000
1000
0800
07e0
0000
ENDCHAR
STARTCHAR 01-05-53
ENCODING 9557
SWIDTH 960 0
DWIDTH 12 0
BBX 12 12 0 -2
BITMAP
0000
0000
23e0
1c20
0020
0040
0040
0080
0100
0600
1800
0000
ENDCHAR
STARTCHAR 01-05-54
ENCODING 9558
SWIDTH 960 0
DWIDTH 12 0
BBX 12 12 0 -2
BITMAP
0000
00a0
4750
3950
0100
0100
0100
0200
0200
0400
1800
0000
ENDCHAR
STARTCHAR 01-05-55
ENCODING 9559
SWIDTH 960 0
DWIDTH 12 0
BBX 12 12 0 -2
BITMAP
0000
0060
4790
3990
0160
0100
0100
0200
0200
0400
1800
0000
ENDCHAR
STARTCHAR 01-05-56
ENCODING 9560
SWIDTH 960 0
DWIDTH 12 0
BBX 12 12 0 -2
BITMAP
0000
0000
0000
0400
0400
0a00
1100
6080
0040
0030
0000
0000
ENDCHAR
STARTCHAR 01-05-57
ENCODING 9561
SWIDTH 960 0
DWIDTH 12 0
BBX 12 12 0 -2
BITMAP
0000
0000
0140
04a0
04a0
0a00
1100
6080
0040
0030
0000
0000
ENDCHAR
STARTCHAR 01-05-58
ENCODING 9562
SWIDTH 960 0
DWIDTH 12 0
BBX 12 12 0 -2
BITMAP
0000
0000
0060
0490
0490
0a60
1100
6080
0040
0030
0000
0000
ENDCHAR
STARTCHAR 01-05-59
ENCODING 9563
SWIDTH 960 0
DWIDTH 12 0
BBX 12 12 0 -2
BITMAP
0000
0400
0200
23e0
1e00
0200
0a80
0a40
1220
2220
0600
0200
ENDCHAR
STARTCHAR 01-05-60
ENCODING 9564
SWIDTH 960 0
DWIDTH 12 0
BBX 12 12 0 -2
BITMAP
0000
04a0
0250
23d0
1e00
0200
0a80
0a40
1220
2220
0600
0200
ENDCHAR
STARTCHAR 01-05-61
ENCODING 9565
SWIDTH 960 0
DWIDTH 12 0
BBX 12 12 0 -2
BITMAP
0000
0460
0290
2390
1e60
0200
0a80
0a40
1220
2220
0600
0200
ENDCHAR
STARTCHAR 01-05-62
ENCODING 9566
SWIDTH 960 0
DWIDTH 12 0
BBX 12 12 0 -2
BITMAP
0000
0000
0000
23e0
1c40
0080
0900
0600
0100
0080
0080
0000
ENDCHAR
STARTCHAR 01-05-63
ENCODING 9567
SWIDTH 960 0
DWIDTH 12 0
BBX 12 12 0 -2
BITMAP
0000
0c00
0300
00c0
0000
0c00
0200
0180
0000
1800
0700
00c0
ENDCHAR
STARTCHAR 01-05-64
ENCODING 9568
SWIDTH 960 0
DWIDTH 12 0
BBX 12 12 0 -2
BITMAP
0000
0400
0200
0200
0400
0400
0480
0840
0840
0fa0
3020
0000
ENDCHAR
STARTCHAR 01-05-65
ENCODING 9569
SWIDTH 960 0
DWIDTH 12 0
BBX 12 12 0 -2
BITMAP
0000
0000
0080
0040
0040
0c80
0280
0180
0240
0420
0820
3000
ENDCHAR
STARTCHAR 01-05-66
ENCODING 9570
SWIDTH 960 0
DWIDTH 12 0
BBX 12 12 0 -2
BITMAP
0000
0000
21c0
1e00
0400
0400
27e0
1c00
0400
0400
03e0
0000
ENDCHAR
STARTCHAR 01-05-67
ENCODING 9571
SWIDTH 960 0
DWIDTH 12 0
BBX 12 12 0 -2
BITMAP
0000
0000
0000
0000
0800
0400
03e0
1e20
0240
0100
0100
0100
ENDCHAR
STARTCHAR 01-05-68
ENCODING 9572
SWIDTH 960 0
DWIDTH 12 0
BBX 12 12 0 -2
BITMAP
0000
0800
0400
04f0
4f20
3440
0240
0200
0200
0100
0100
0100
ENDCHAR
STARTCHAR 01-05-69
ENCODING 9573
SWIDTH 960 0
DWIDTH 12 0
BBX 12 12 0 -2
BITMAP
0000
0000
0000
0000
0000
0700
1900
0100
0100
0380
1c40
0000
ENDCHAR
STARTCHAR 01-05-70
ENCODING 9574
SWIDTH 960 0
DWIDTH 12 0
BBX 12 12 0 -2
BITMAP
0000
0000
0000
1380
0c80
0080
0080
0080
03e0
7c10
0000
0000
ENDCHAR
STARTCHAR 01-05-71
ENCODING 9575
SWIDTH 960 0
DWIDTH 12 0
BBX 12 12 0 -2
BITMAP
0000
0000
0000
0000
01c0
0e40
0040
01c0
0e40
0040
01c0
0e20
ENDCHAR
STARTCHAR 01-05-72
ENCODING 9576
SWIDTH 960 0
DWIDTH 12 0
BBX 12 12 0 -2
BITMAP
0000
0000
23c0
1c40
0040
03c0
1c40
0040
0040
03c0
1c20
0000
ENDCHAR
STARTCHAR 01-05-73
ENCODING 9577
SWIDTH 960 0
DWIDTH 12 0
BBX 12 12 0 -2
BITMAP
0000
0000
11c0
0e00
0000
21e0
1e40
0040
0080
0100
0200
0c00
ENDCHAR
STARTCHAR 01-05-74
ENCODING 9578
SWIDTH 960 0
DWIDTH 12 0
BBX 12 12 0 -2
BITMAP
0000
0080
1040
0840
0840
0840
0840
0840
0080
0080
0100
0200
ENDCHAR
STARTCHAR 01-05-75
ENCODING 9579
SWIDTH 960 0
DWIDTH 12 0
BBX 12 12 0 -2
BITMAP
0000
0200
1100
0900
0900
0900
0920
0920
1140
1180
6100
0000
ENDCHAR
STARTCHAR 01-05-76
ENCODING 9580
SWIDTH 960 0
DWIDTH 12 0
BBX 12 12 0 -2
BITMAP
0000
1000
0800
0800
0800
0800
0820
0840
0880
0b00
0c00
0000
ENDCHAR
STARTCHAR 01-05-77
ENCODING 9581
SWIDTH 960 0
DWIDTH 12 0
BBX 12 12 0 -2
BITMAP
0000
0000
0000
23c0
1c40
1040
1040
1040
11c0
1e40
0000
0000
ENDCHAR
STARTCHAR 01-05-78
ENCODING 9582
SWIDTH 960 0
DWIDTH 12 0
BBX 12 12 0 -2
BITMAP
0000
0000
0000
0000
21c0
1e40
1040
0880
0880
0100
0100
0200
ENDCHAR
STARTCHAR 01-05-79
ENCODING 9583
SWIDTH 960 0
DWIDTH 12 0
BBX 12 12 0 -2
BITMAP
0000
0000
23e0
1c20
1020
0840
0840
0080
0100
0200
0400
0000
ENDCHAR
STARTCHAR 01-05-80
ENCODING 9584
SWIDTH 960 0
DWIDTH 12 0
BBX 12 12 0 -2
BITMAP
0000
0200
0100
03e0
3d00
1100
0900
0bc0
3d20
0100
0100
0100
ENDCHAR
STARTCHAR 01-05-81
ENCODING 9585
SWIDTH 960 0
DWIDTH 12 0
BBX 12 12 0 -2
BITMAP
0000
0000
0000
03e0
3c40
0480
0200
0200
03e0
7e10
0000
0000
ENDCHAR
STARTCHAR 01-05-82
ENCODING 9586
SWIDTH 960 0
DWIDTH 12 0
BBX 12 12 0 -2
BITMAP
0000
0000
21e0
1e20
0020
01e0
0e40
0040
0080
0300
0c00
0000
ENDCHAR
STARTCHAR 01-05-83
ENCODING 9587
SWIDTH 960 0
DWIDTH 12 0
BBX 12 12 0 -2
BITMAP
0000
0000
3000
0800
0420
0020
0040
0080
0100
1200
0c00
0000
ENDCHAR
STARTCHAR 01-05-84
ENCODING 9588
SWIDTH 960 0
DWIDTH 12 0
BBX 12 12 0 -2
BITMAP
0000
04a0
0250
03d0
3e40
1040
1040
0080
0080
0100
0200
0c00
ENDCHAR
STARTCHAR 01-05-85
ENCODING 9589
SWIDTH 960 0
DWIDTH 12 0
BBX 12 12 0 -2
BITMAP
0000
0000
0000
0000
0400
0200
13c0
0e40
0440
0440
0940
1080
ENDCHAR
STARTCHAR 01-05-86
ENCODING 9590
SWIDTH 960 0
DWIDTH 12 0
BBX 12 12 0 -2
BITMAP
0000
0000
0000
0000
1000
0800
09c0
1600
2100
0100
0200
0400
ENDCHAR
STARTCHAR 01-05-87
ENCODING 9591
SWIDTH 960 0
DWIDTH 12 0
BBX 12 12 0 -2
BITMAP
0000
0860
0490
2790
1c60
0440
0440
0840
0840
1040
2280
0100
ENDCHAR
STARTCHAR 01-05-88
ENCODING 9592
SWIDTH 960 0
DWIDTH 12 0
BBX 12 12 0 -2
BITMAP
0000
0860
0490
0490
0760
3a00
0260
0780
3900
0100
0080
0080
ENDCHAR
STARTCHAR 01-05-89
ENCODING 9593
SWIDTH 960 0
DWIDTH 12 0
BBX 12 12 0 -2
BITMAP
0000
0260
0290
0390
0460
0840
1080
0080
0100
0200
0400
1800
ENDCHAR
STARTCHAR 01-05-90
ENCODING 9594
SWIDTH 960 0
DWIDTH 12 0
BBX 12 12 0 -2
BITMAP
0000
1060
0890
0990
1e60
1100
2100
0100
0200
0200
0400
0800
ENDCHAR
STARTCHAR 01-05-91
ENCODING 9595
SWIDTH 960 0
DWIDTH 12 0
BBX 12 12 0 -2
BITMAP
0000
0060
0090
2790
18e0
0080
0080
0080
0080
0f80
3080
0000
ENDCHAR
STARTCHAR 01-05-92
ENCODING 9596
SWIDTH 960 0
DWIDTH 12 0
BBX 12 12 0 -2
BITMAP
0000
2060
1090
1390
54e0
3880
1100
1200
1000
0800
07c0
0000
ENDCHAR
STARTCHAR 01-05-93
ENCODING 9597
SWIDTH 960 0
DWIDTH 12 0
BBX 12 12 0 -2
BITMAP
0000
0060
0890
4490
2260
1240
1040
0080
0080
0100
0200
0400
ENDCHAR
STARTCHAR 01-05-94
ENCODING 9598
SWIDTH 960 0
DWIDTH 12 0
BBX 12 12 0 -2
BITMAP
0000
0860
0490
0490
0460
0780
0460
0400
0400
0400
0400
0400
ENDCHAR
STARTCHAR 01-06-01
ENCODING 9761
SWIDTH 960 0
DWIDTH 12 0
BBX 12 12 0 -2
BITMAP
0000
0200
0200
0700
0700
0980
0f80
1980
10c0
30c0
78e0
0000
ENDCHAR
STARTCHAR 01-06-02
ENCODING 9762
SWIDTH 960 0
DWIDTH 12 0
BBX 12 12 0 -2
BITMAP
0000
3f00
1880
18c0
18c0
1f80
1840
1860
1860
1840
3f80
0000
ENDCHAR
STARTCHAR 01-06-03
ENCODING 9763
SWIDTH 960 0
DWIDTH 12 0
BBX 12 12 0 -2
BITMAP
0000
1fc0
0c40
0c20
0c00
0c00
0c00
0c00
0c00
0c00
1e00
0000
ENDCHAR
STARTCHAR 01-06-04
ENCODING 9764
SWIDTH 960 0
DWIDTH 12 0
BBX 12 12 0 -2
BITMAP
0000
0200
0200
0700
0700
0980
0980
0980
10c0
10c0
3fe0
0000
ENDCHAR
STARTCHAR 01-06-05
ENCODING 9765
SWIDTH 960 0
DWIDTH 12 0
BBX 12 12 0 -2
BITMAP
0000
3fc0
1840
1820
1880
1f80
1880
1800
1820
1840
3fc0
0000
ENDCHAR
STARTCHAR 01-06-06
ENCODING 9766
SWIDTH 960 0
DWIDTH 12 0
BBX 12 12 0 -2
BITMAP
0000
1fc0
10c0
2180
0300
0300
0600
0c00
0820
1840
3fc0
0000
ENDCHAR
STARTCHAR 01-06-07
ENCODING 9767
SWIDTH 960 0
DWIDTH 12 0
BBX 12 12 0 -2
BITMAP
0000
38e0
18c0
18c0
18c0
1fc0
18c0
18c0
18c0
18c0
38e0
0000
ENDCHAR
STARTCHAR 01-06-08
ENCODING 9768
SWIDTH 960 0
DWIDTH 12 0
BBX 12 12 0 -2
BITMAP
0000
0700
0880
1040
3560
3760
3560
3560
1040
0880
0700
0000
ENDCHAR
STARTCHAR 01-06-09
ENCODING 9769
SWIDTH 960 0
DWIDTH 12 0
BBX 12 12 0 -2
BITMAP
0000
0f00
0600
0600
0600
0600
0600
0600
0600
0600
0f00
0000
ENDCHAR
STARTCHAR 01-06-10
ENCODING 9770
SWIDTH 960 0
DWIDTH 12 0
BBX 12 12 0 -2
BITMAP
0000
73c0
3100
3100
3200
3700
3700
3980
3180
30c0
71e0
0000
ENDCHAR
STARTCHAR 01-06-11
ENCODING 9771
SWIDTH 960 0
DWIDTH 12 0
BBX 12 12 0 -2
BITMAP
0000
0200
0200
0700
0700
0980
0980
0980
10c0
10c0
38e0
0000
ENDCHAR
STARTCHAR 01-06-12
ENCODING 9772
SWIDTH 960 0
DWIDTH 12 0
BBX 12 12 0 -2
BITMAP
0000
70e0
30c0
30c0
39c0
39c0
2ac0
2ec0
24c0
24c0
70e0
0000
ENDCHAR
STARTCHAR 01-06-13
ENCODING 9773
SWIDTH 960 0
DWIDTH 12 0
BBX 12 12 0 -2
BITMAP
0000
30e0
1840
1c40
1e40
1640
1340
1340
11c0
10c0
3840
0000
ENDCHAR
STARTCHAR 01-06-14
ENCODING 9774
SWIDTH 960 0
DWIDTH 12 0
BBX 12 12 0 -2
BITMAP
0000
1fe0
1fc0
2040
0000
0f80
0f80
0000
1020
1fc0
3fc0
0000
ENDCHAR
STARTCHAR 01-06-15
ENCODING 9775
SWIDTH 960 0
DWIDTH 12 0
BBX 12 12 0 -2
BITMAP
0000
0700
0880
18c0
3060
3060
3060
3060
18c0
0880
0700
0000
ENDCHAR
STARTCHAR 01-06-16
ENCODING 9776
SWIDTH 960 0
DWIDTH 12 0
BBX 12 12 0 -2
BITMAP
0000
3fe0
18c0
18c0
18c0
18c0
18c0
18c0
18c0
18c0
3de0
0000
ENDCHAR
STARTCHAR 01-06-17
ENCODING 9777
SWIDTH 960 0
DWIDTH 12 0
BBX 12 12 0 -2
BITMAP
0000
3f80
18c0
1860
1860
18c0
1f80
1800
1800
1800
3c00
0000
ENDCHAR
STARTCHAR 01-06-18
ENCODING 9778
SWIDTH 960 0
DWIDTH 12 0
BBX 12 12 0 -2
BITMAP
0000
3fc0
1840
0c20
0600
0300
0300
0600
0c20
1840
3fc0
0000
ENDCHAR
STARTCHAR 01-06-19
ENCODING 9779
SWIDTH 960 0
DWIDTH 12 0
BBX 12 12 0 -2
BITMAP
0000
3fc0
2640
4620
0600
0600
0600
0600
0600
0600
0f00
0000
ENDCHAR
STARTCHAR 01-06-20
ENCODING 9780
SWIDTH 960 0
DWIDTH 12 0
BBX 12 12 0 -2
BITMAP
0000
1980
3fc0
2640
4620
0600
0600
0600
0600
0600
0f00
0000
ENDCHAR
STARTCHAR 01-06-21
ENCODING 9781
SWIDTH 960 0
DWIDTH 12 0
BBX 12 12 0 -2
BITMAP
0000
1f80
0600
1f80
2640
6660
6660
2640
1f80
0600
1f80
0000
ENDCHAR
STARTCHAR 01-06-22
ENCODING 9782
SWIDTH 960 0
DWIDTH 12 0
BBX 12 12 0 -2
BITMAP
0000
38e0
1840
0c80
0f00
0700
0700
0580
0980
10c0
38e0
0000
ENDCHAR
STARTCHAR 01-06-23
ENCODING 9783
SWIDTH 960 0
DWIDTH 12 0
BBX 12 12 0 -2
BITMAP
0000
1f80
0600
6660
36c0
36c0
36c0
1680
0f00
0600
1f80
0000
ENDCHAR
STARTCHAR 01-06-24
ENCODING 9784
SWIDTH 960 0
DWIDTH 12 0
BBX 12 12 0 -2
BITMAP
0000
0700
0880
18c0
3060
3060
3060
18c0
0880
2520
3de0
0000
ENDCHAR
STARTCHAR 01-06-25
ENCODING 9785
SWIDTH 960 0
DWIDTH 12 0
BBX 12 12 0 -2
BITMAP
0000
0200
0500
0880
1040
2020
2020
2720
1ac0
0200
0700
0000
ENDCHAR
STARTCHAR 01-06-26
ENCODING 9786
SWIDTH 960 0
DWIDTH 12 0
BBX 12 12 0 -2
BITMAP
0000
0200
0700
0f80
1fc0
3fe0
3fe0
3fe0
1ac0
0200
0700
0000
ENDCHAR
STARTCHAR 01-06-27
ENCODING 9787
SWIDTH 960 0
DWIDTH 12 0
BBX 12 12 0 -2
BITMAP
0000
0200
0500
0880
1040
2020
2020
1040
0880
0500
0200
0000
ENDCHAR
STARTCHAR 01-06-28
ENCODING 9788
SWIDTH 960 0
DWIDTH 12 0
BBX 12 12 0 -2
BITMAP
0000
0200
0700
0f80
1fc0
3fe0
3fe0
1fc0
0f80
0700
0200
0000
ENDCHAR
STARTCHAR 01-06-29
ENCODING 9789
SWIDTH 960 0
DWIDTH 12 0
BBX 12 12 0 -2
BITMAP
0000
0d80
1240
2220
2020
2020
1040
0880
0500
0200
0200
0000
ENDCHAR
STARTCHAR 01-06-30
ENCODING 9790
SWIDTH 960 0
DWIDTH 12 0
BBX 12 12 0 -2
BITMAP
0000
0d80
1fc0
3fe0
3fe0
3fe0
1fc0
0f80
0700
0200
0200
0000
ENDCHAR
STARTCHAR 01-06-31
ENCODING 9791
SWIDTH 960 0
DWIDTH 12 0
BBX 12 12 0 -2
BITMAP
0000
0700
0880
0880
18c0
2520
2020
2720
1ac0
0200
0700
0000
ENDCHAR
STARTCHAR 01-06-32
ENCODING 9792
SWIDTH 960 0
DWIDTH 12 0
BBX 12 12 0 -2
BITMAP
0000
0700
0f80
0f80
1740
3ae0
3fe0
3fe0
1ac0
0200
0700
0000
ENDCHAR
STARTCHAR 01-06-33
ENCODING 9793
SWIDTH 960 0
DWIDTH 12 0
BBX 12 12 0 -2
BITMAP
0000
0000
0000
0000
0000
0740
08c0
1080
1100
1340
0c80
0000
ENDCHAR
STARTCHAR 01-06-34
ENCODING 9794
SWIDTH 960 0
DWIDTH 12 0
BBX 12 12 0 -2
BITMAP
0000
0180
0240
0440
0440
0b80
0880
0840
1840
1440
1380
2000
ENDCHAR
STARTCHAR 01-06-35
ENCODING 9795
SWIDTH 960 0
DWIDTH 12 0
BBX 12 12 0 -2
BITMAP
0000
0000
0000
0000
0000
1cc0
2300
0200
0600
0600
0400
0000
ENDCHAR
STARTCHAR 01-06-36
ENCODING 9796
SWIDTH 960 0
DWIDTH 12 0
BBX 12 12 0 -2
BITMAP
0000
0700
0880
0440
0240
0700
0880
1080
1080
1100
0e00
0000
ENDCHAR
STARTCHAR 01-06-37
ENCODING 9797
SWIDTH 960 0
DWIDTH 12 0
BBX 12 12 0 -2
BITMAP
0000
0000
0000
0000
0000
0700
0880
0600
1800
1080
0f00
0000
ENDCHAR
STARTCHAR 01-06-38
ENCODING 9798
SWIDTH 960 0
DWIDTH 12 0
BBX 12 12 0 -2
BITMAP
0000
08c0
0980
0700
0400
0800
1000
1000
0e00
0100
0100
0600
ENDCHAR
STARTCHAR 01-06-39
ENCODING 9799
SWIDTH 960 0
DWIDTH 12 0
BBX 12 12 0 -2
BITMAP
0000
0000
0000
0000
0000
0980
1640
0440
0840
0880
0880
0080
ENDCHAR
STARTCHAR 01-06-40
ENCODING 9800
SWIDTH 960 0
DWIDTH 12 0
BBX 12 12 0 -2
BITMAP
0000
0180
0240
0440
0840
0fc0
1080
1080
1100
1200
0c00
0000
ENDCHAR
STARTCHAR 01-06-41
ENCODING 9801
SWIDTH 960 0
DWIDTH 12 0
BBX 12 12 0 -2
BITMAP
0000
0000
0000
0000
0000
0400
0800
0800
1000
1300
0c00
0000
ENDCHAR
STARTCHAR 01-06-42
ENCODING 9802
SWIDTH 960 0
DWIDTH 12 0
BBX 12 12 0 -2
BITMAP
0000
0000
0000
0000
0000
0980
0a40
0c00
1200
1240
2180
0000
ENDCHAR
STARTCHAR 01-06-43
ENCODING 9803
SWIDTH 960 0
DWIDTH 12 0
BBX 12 12 0 -2
BITMAP
0000
0600
0100
0100
0100
0300
0500
0500
0900
1080
1040
0000
ENDCHAR
STARTCHAR 01-06-44
ENCODING 9804
SWIDTH 960 0
DWIDTH 12 0
BBX 12 12 0 -2
BITMAP
0000
0000
0000
0000
0000
0880
0880
0900
1100
1340
2c80
2000
ENDCHAR
STARTCHAR 01-06-45
ENCODING 9805
SWIDTH 960 0
DWIDTH 12 0
BBX 12 12 0 -2
BITMAP
0000
0000
0000
0000
0000
1040
0840
0880
0900
1e00
1000
0000
ENDCHAR
STARTCHAR 01-06-46
ENCODING 9806
SWIDTH 960 0
DWIDTH 12 0
BBX 12 12 0 -2
BITMAP
0000
0600
0c00
0780
0800
0c00
1380
1000
0800
0600
0100
0e00
ENDCHAR
STARTCHAR 01-06-47
ENCODING 9807
SWIDTH 960 0
DWIDTH 12 0
BBX 12 12 0 -2
BITMAP
0000
0000
0000
0000
0000
0700
0880
1080
1080
1100
0e00
0000
ENDCHAR
STARTCHAR 01-06-48
ENCODING 9808
SWIDTH 960 0
DWIDTH 12 0
BBX 12 12 0 -2
BITMAP
0000
0000
0000
0000
0c40
1780
2500
0900
0900
1100
20c0
0000
ENDCHAR
STARTCHAR 01-06-49
ENCODING 9809
SWIDTH 960 0
DWIDTH 12 0
BBX 12 12 0 -2
BITMAP
0000
0000
0000
0000
0000
0380
0440
0840
0840
1480
1300
1000
ENDCHAR
STARTCHAR 01-06-50
ENCODING 9810
SWIDTH 960 0
DWIDTH 12 0
BBX 12 12 0 -2
BITMAP
0000
0000
0000
0000
01c0
0700
0880
1080
1080
1100
0e00
0000
ENDCHAR
STARTCHAR 01-06-51
ENCODING 9811
SWIDTH 960 0
DWIDTH 12 0
BBX 12 12 0 -2
BITMAP
0000
0000
0000
0000
0c40
1380
2400
0400
0800
0980
0600
0000
ENDCHAR
STARTCHAR 01-06-52
ENCODING 9812
SWIDTH 960 0
DWIDTH 12 0
BBX 12 12 0 -2
BITMAP
0000
0000
0000
0000
0000
0880
0840
0840
1080
1100
0e00
0000
ENDCHAR
STARTCHAR 01-06-53
ENCODING 9813
SWIDTH 960 0
DWIDTH 12 0
BBX 12 12 0 -2
BITMAP
0000
0000
0000
0100
0100
0780
0a40
1240
1280
0f00
0400
0400
ENDCHAR
STARTCHAR 01-06-54
ENCODING 9814
SWIDTH 960 0
DWIDTH 12 0
BBX 12 12 0 -2
BITMAP
0000
0000
0000
0000
0000
0c40
1280
0300
0600
0a00
1200
2180
ENDCHAR
STARTCHAR 01-06-55
ENCODING 9815
SWIDTH 960 0
DWIDTH 12 0
BBX 12 12 0 -2
BITMAP
0000
0000
0080
0080
0100
3980
0940
1240
1280
0f00
0400
0400
ENDCHAR
STARTCHAR 01-06-56
ENCODING 9816
SWIDTH 960 0
DWIDTH 12 0
BBX 12 12 0 -2
BITMAP
0000
0000
0000
0000
0000
0840
1220
1220
2220
2640
1980
0000
ENDCHAR
STARTCHAR 01-06-57
ENCODING 9817
SWIDTH 960 0
DWIDTH 12 0
BBX 12 12 0 -2
BITMAP
0000
0000
0000
0000
0780
0840
1040
1040
0880
0400
1200
0c00
ENDCHAR
STARTCHAR 01-06-58
ENCODING 9818
SWIDTH 960 0
DWIDTH 12 0
BBX 12 12 0 -2
BITMAP
0000
1fc0
2fa0
5050
6630
6230
6230
6230
6730
5050
2fa0
1fc0
ENDCHAR
STARTCHAR 01-06-59
ENCODING 9819
SWIDTH 960 0
DWIDTH 12 0
BBX 12 12 0 -2
BITMAP
0000
1fc0
2fa0
5050
6730
6130
6230
6430
6730
5050
2fa0
1fc0
ENDCHAR
STARTCHAR 01-06-60
ENCODING 9820
SWIDTH 960 0
DWIDTH 12 0
BBX 12 12 0 -2
BITMAP
0000
1fc0
2fa0
5050
6730
6130
6630
6130
6730
5050
2fa0
1fc0
ENDCHAR
STARTCHAR 01-06-61
ENCODING 9821
SWIDTH 960 0
DWIDTH 12 0
BBX 12 12 0 -2
BITMAP
0000
1fc0
2fa0
5050
6230
6630
6a30
6f30
6230
5050
2fa0
1fc0
ENDCHAR
STARTCHAR 01-06-62
ENCODING 9822
SWIDTH 960 0
DWIDTH 12 0
BBX 12 12 0 -2
BITMAP
0000
1fc0
2fa0
5050
6730
6430
6730
6130
6730
5050
2fa0
1fc0
ENDCHAR
STARTCHAR 01-06-63
ENCODING 9823
SWIDTH 960 0
DWIDTH 12 0
BBX 12 12 0 -2
BITMAP
0000
1fc0
2fa0
5050
6330
6430
6730
6530
6730
5050
2fa0
1fc0
ENDCHAR
STARTCHAR 01-06-64
ENCODING 9824
SWIDTH 960 0
DWIDTH 12 0
BBX 12 12 0 -2
BITMAP
0000
1fc0
2fa0
5050
6730
6530
6130
6230
6230
5050
2fa0
1fc0
ENDCHAR
STARTCHAR 01-06-65
ENCODING 9825
SWIDTH 960 0
DWIDTH 12 0
BBX 12 12 0 -2
BITMAP
0000
1fc0
2fa0
5050
6730
6530
6730
6530
6730
5050
2fa0
1fc0
ENDCHAR
STARTCHAR 01-06-66
ENCODING 9826
SWIDTH 960 0
DWIDTH 12 0
BBX 12 12 0 -2
BITMAP
0000
1fc0
2fa0
5050
6730
6530
6730
6130
6630
5050
2fa0
1fc0
ENDCHAR
STARTCHAR 01-06-67
ENCODING 9827
SWIDTH 960 0
DWIDTH 12 0
BBX 12 12 0 -2
BITMAP
0000
1fc0
2fa0
5050
65b0
6db0
65b0
65b0
6fb0
5050
2fa0
1fc0
ENDCHAR
STARTCHAR 01-06-68
ENCODING 9828
SWIDTH 960 0
DWIDTH 12 0
BBX 12 12 0 -2
BITMAP
0000
0600
1980
1080
2040
2040
2040
4020
4020
4020
7fe0
0000
ENDCHAR
STARTCHAR 01-06-69
ENCODING 9829
SWIDTH 960 0
DWIDTH 12 0
BBX 12 12 0 -2
BITMAP
0000
0600
1f80
1f80
3fc0
3fc0
3fc0
7fe0
7fe0
7fe0
7fe0
0000
ENDCHAR
STARTCHAR 01-06-70
ENCODING 9830
SWIDTH 960 0
DWIDTH 12 0
BBX 12 12 0 -2
BITMAP
0000
3fe0
0000
3fe0
2220
5ad0
6730
5ad0
28a0
2720
1040
0f80
ENDCHAR
STARTCHAR 01-06-71
ENCODING 9831
SWIDTH 960 0
DWIDTH 12 0
BBX 12 12 0 -2
BITMAP
0000
0000
3fe0
68b0
6fb0
1fc0
38e0
38e0
78f0
7ff0
7ff0
0000
ENDCHAR
STARTCHAR 01-06-72
ENCODING 9832
SWIDTH 960 0
DWIDTH 12 0
BBX 12 12 0 -2
BITMAP
0000
0200
2220
1040
0700
0f80
6fb0
0f80
0700
1040
2220
0200
ENDCHAR
STARTCHAR 01-06-73
ENCODING 9833
SWIDTH 960 0
DWIDTH 12 0
BBX 12 12 0 -2
BITMAP
0000
0000
0e00
1f00
3fe0
7ff0
7fe0
7ff0
3be0
01c0
0000
0000
ENDCHAR
STARTCHAR 01-06-74
ENCODING 9834
SWIDTH 960 0
DWIDTH 12 0
BBX 12 12 0 -2
BITMAP
0000
0200
0200
1fc0
3fe0
7ff0
4a90
0200
0200
0200
1200
0c00
ENDCHAR
STARTCHAR 01-06-75
ENCODING 9835
SWIDTH 960 0
DWIDTH 12 0
BBX 12 12 0 -2
BITMAP
0000
09d0
2fe0
59d0
2de0
2da0
5550
2220
4010
4210
4210
3fe0
ENDCHAR
STARTCHAR 01-06-76
ENCODING 9836
SWIDTH 960 0
DWIDTH 12 0
BBX 12 12 0 -2
BITMAP
0000
0200
1240
1440
2480
2480
3260
5250
5250
6490
2020
1fc0
ENDCHAR
STARTCHAR 01-06-77
ENCODING 9837
SWIDTH 960 0
DWIDTH 12 0
BBX 12 12 0 -2
BITMAP
0000
0000
0000
0ff0
1010
1020
2020
2040
4040
7f80
0000
0000
ENDCHAR
STARTCHAR 01-06-78
ENCODING 9838
SWIDTH 960 0
DWIDTH 12 0
BBX 12 12 0 -2
BITMAP
0000
0000
0000
0000
0200
03c0
0440
1840
0080
0100
0200
1c00
ENDCHAR
STARTCHAR 01-06-79
ENCODING 9839
SWIDTH 960 0
DWIDTH 12 0
BBX 12 12 0 -2
BITMAP
0000
0000
0000
0000
0c00
0200
1820
0420
0040
0080
1300
0c00
ENDCHAR
STARTCHAR 01-06-80
ENCODING 9840
SWIDTH 960 0
DWIDTH 12 0
BBX 12 12 0 -2
BITMAP
0000
0000
0000
0000
09c0
0640
0080
0080
0100
0280
0440
1820
ENDCHAR
STARTCHAR 01-06-81
ENCODING 9841
SWIDTH 960 0
DWIDTH 12 0
BBX 12 12 0 -2
BITMAP
0000
0000
0000
0000
0800
0400
0400
0700
04c0
0400
0400
0400
ENDCHAR
STARTCHAR 01-06-82
ENCODING 9842
SWIDTH 960 0
DWIDTH 12 0
BBX 12 12 0 -2
BITMAP
0000
0000
0000
0000
09c0
0640
0040
0880
0500
0300
0480
1840
ENDCHAR
STARTCHAR 01-06-83
ENCODING 9843
SWIDTH 960 0
DWIDTH 12 0
BBX 12 12 0 -2
BITMAP
0000
0000
0000
0000
0000
0900
0480
0480
0440
0840
0840
1040
ENDCHAR
STARTCHAR 01-06-84
ENCODING 9844
SWIDTH 960 0
DWIDTH 12 0
BBX 12 12 0 -2
BITMAP
0000
0000
0000
0000
1000
0880
0900
0e00
0800
0800
0800
07c0
ENDCHAR
STARTCHAR 01-06-85
ENCODING 9845
SWIDTH 960 0
DWIDTH 12 0
BBX 12 12 0 -2
BITMAP
0000
0000
0000
0000
13c0
0c40
0040
0080
0080
0100
0200
0c00
ENDCHAR
STARTCHAR 01-06-86
ENCODING 9846
SWIDTH 960 0
DWIDTH 12 0
BBX 12 12 0 -2
BITMAP
0000
0000
0000
0000
0000
0400
0400
0a00
0900
3080
0060
0000
ENDCHAR
STARTCHAR 01-06-87
ENCODING 9847
SWIDTH 960 0
DWIDTH 12 0
BBX 12 12 0 -2
BITMAP
0000
0000
0000
0000
0400
13c0
0e00
0200
0a40
0a20
1220
0600
ENDCHAR
STARTCHAR 01-06-88
ENCODING 9848
SWIDTH 960 0
DWIDTH 12 0
BBX 12 12 0 -2
BITMAP
0000
0000
0000
0060
1390
0c90
00e0
0080
0100
0100
0200
0c00
ENDCHAR
STARTCHAR 01-06-89
ENCODING 9849
SWIDTH 960 0
DWIDTH 12 0
BBX 12 12 0 -2
BITMAP
0000
0000
0000
0000
0400
0200
0200
0400
0480
0840
0bc0
1c40
ENDCHAR
STARTCHAR 01-06-90
ENCODING 9850
SWIDTH 960 0
DWIDTH 12 0
BBX 12 12 0 -2
BITMAP
0000
0000
0000
0000
0b80
0400
11c0
0e40
0040
0080
0100
0600
ENDCHAR
STARTCHAR 01-06-91
ENCODING 9851
SWIDTH 960 0
DWIDTH 12 0
BBX 12 12 0 -2
BITMAP
0000
0000
0000
0000
1100
0880
0880
0880
0880
0100
0100
0200
ENDCHAR
STARTCHAR 01-06-92
ENCODING 9852
SWIDTH 960 0
DWIDTH 12 0
BBX 12 12 0 -2
BITMAP
0000
0000
0000
0000
0200
1100
0900
0900
0920
1120
1140
2180
ENDCHAR
STARTCHAR 01-06-93
ENCODING 9853
SWIDTH 960 0
DWIDTH 12 0
BBX 12 12 0 -2
BITMAP
0000
0000
0000
0000
1000
0800
0800
0800
0840
0880
0b00
0c00
ENDCHAR
STARTCHAR 01-06-94
ENCODING 9854
SWIDTH 960 0
DWIDTH 12 0
BBX 12 12 0 -2
BITMAP
0000
0000
0000
0000
0000
23c0
1c40
1040
1040
1040
11c0
1e40
ENDCHAR
STARTCHAR 01-07-01
ENCODING 10017
SWIDTH 960 0
DWIDTH 12 0
BBX 12 12 0 -2
BITMAP
0000
0200
0200
0700
0700
0980
0f80
1980
10c0
30c0
78e0
0000
ENDCHAR
STARTCHAR 01-07-02
ENCODING 10018
SWIDTH 960 0
DWIDTH 12 0
BBX 12 12 0 -2
BITMAP
0000
3fc0
1840
1820
1800
1f80
1840
1860
1860
1840
3f80
0000
ENDCHAR
STARTCHAR 01-07-03
ENCODING 10019
SWIDTH 960 0
DWIDTH 12 0
BBX 12 12 0 -2
BITMAP
0000
3f00
1880
18c0
18c0
1f80
1840
1860
1860
1840
3f80
0000
ENDCHAR
STARTCHAR 01-07-04
ENCODING 10020
SWIDTH 960 0
DWIDTH 12 0
BBX 12 12 0 -2
BITMAP
0000
1fc0
0c40
0c20
0c00
0c00
0c00
0c00
0c00
0c00
1e00
0000
ENDCHAR
STARTCHAR 01-07-05
ENCODING 10021
SWIDTH 960 0
DWIDTH 12 0
BBX 12 12 0 -2
BITMAP
0000
0fe0
04c0
04c0
04c0
04c0
04c0
08c0
08c0
10c0
3fe0
2020
ENDCHAR
STARTCHAR 01-07-06
ENCODING 10022
SWIDTH 960 0
DWIDTH 12 0
BBX 12 12 0 -2
BITMAP
0000
3fc0
1840
1820
1880
1f80
1880
1800
1820
1840
3fc0
0000
ENDCHAR
STARTCHAR 01-07-07
ENCODING 10023
SWIDTH 960 0
DWIDTH 12 0
BBX 12 12 0 -2
BITMAP
0000
1980
1980
3fc0
1820
1880
1f80
1880
1820
1840
3fc0
0000
ENDCHAR
STARTCHAR 01-07-08
ENCODING 10024
SWIDTH 960 0
DWIDTH 12 0
BBX 12 12 0 -2
BITMAP
0000
6660
2640
2640
1680
0f00
0f00
1680
2640
2640
76e0
0000
ENDCHAR
STARTCHAR 01-07-09
ENCODING 10025
SWIDTH 960 0
DWIDTH 12 0
BBX 12 12 0 -2
BITMAP
0000
0700
1980
10c0
0080
0700
0080
00c0
20c0
1180
0e00
0000
ENDCHAR
STARTCHAR 01-07-10
ENCODING 10026
SWIDTH 960 0
DWIDTH 12 0
BBX 12 12 0 -2
BITMAP
0000
38e0
18c0
19c0
19c0
1ac0
1ac0
1cc0
1cc0
18c0
38e0
0000
ENDCHAR
STARTCHAR 01-07-11
ENCODING 10027
SWIDTH 960 0
DWIDTH 12 0
BBX 12 12 0 -2
BITMAP
0000
0d80
0d80
38e0
18c0
19c0
1ac0
1ac0
1cc0
18c0
38e0
0000
ENDCHAR
STARTCHAR 01-07-12
ENCODING 10028
SWIDTH 960 0
DWIDTH 12 0
BBX 12 12 0 -2
BITMAP
0000
70c0
3160
3160
3200
3700
3700
3980
3180
30c0
71e0
0000
ENDCHAR
STARTCHAR 01-07-13
ENCODING 10029
SWIDTH 960 0
DWIDTH 12 0
BBX 12 12 0 -2
BITMAP
0000
0fe0
04c0
04c0
04c0
04c0
04c0
04c0
68c0
68c0
30e0
0000
ENDCHAR
STARTCHAR 01-07-14
ENCODING 10030
SWIDTH 960 0
DWIDTH 12 0
BBX 12 12 0 -2
BITMAP
0000
39c0
1980
1980
1d80
1f80
1680
36c0
32c0
30c0
70e0
0000
ENDCHAR
STARTCHAR 01-07-15
ENCODING 10031
SWIDTH 960 0
DWIDTH 12 0
BBX 12 12 0 -2
BITMAP
0000
38e0
18c0
18c0
18c0
1fc0
18c0
18c0
18c0
18c0
38e0
0000
ENDCHAR
STARTCHAR 01-07-16
ENCODING 10032
SWIDTH 960 0
DWIDTH 12 0
BBX 12 12 0 -2
BITMAP
0000
0700
0880
18c0
3060
3060
3060
3060
18c0
0880
0700
0000
ENDCHAR
STARTCHAR 01-07-17
ENCODING 10033
SWIDTH 960 0
DWIDTH 12 0
BBX 12 12 0 -2
BITMAP
0000
3fe0
18c0
18c0
18c0
18c0
18c0
18c0
18c0
18c0
3de0
0000
ENDCHAR
STARTCHAR 01-07-18
ENCODING 10034
SWIDTH 960 0
DWIDTH 12 0
BBX 12 12 0 -2
BITMAP
0000
3f80
18c0
1860
1860
18c0
1f80
1800
1800
1800
3c00
0000
ENDCHAR
STARTCHAR 01-07-19
ENCODING 10035
SWIDTH 960 0
DWIDTH 12 0
BBX 12 12 0 -2
BITMAP
0000
0740
08c0
1840
3040
3000
3000
3000
1840
08c0
0700
0000
ENDCHAR
STARTCHAR 01-07-20
ENCODING 10036
SWIDTH 960 0
DWIDTH 12 0
BBX 12 12 0 -2
BITMAP
0000
3fc0
2640
4620
0600
0600
0600
0600
0600
0600
0f00
0000
ENDCHAR
STARTCHAR 01-07-21
ENCODING 10037
SWIDTH 960 0
DWIDTH 12 0
BBX 12 12 0 -2
BITMAP
0000
38e0
1840
1c40
0c80
0680
0680
0300
0100
0200
1a00
1c00
ENDCHAR
STARTCHAR 01-07-22
ENCODING 10038
SWIDTH 960 0
DWIDTH 12 0
BBX 12 12 0 -2
BITMAP
0000
1f80
0600
1f80
2640
6660
6660
2640
1f80
0600
1f80
0000
ENDCHAR
STARTCHAR 01-07-23
ENCODING 10039
SWIDTH 960 0
DWIDTH 12 0
BBX 12 12 0 -2
BITMAP
0000
38e0
1840
0c80
0f00
0700
0700
0580
0980
10c0
38e0
0000
ENDCHAR
STARTCHAR 01-07-24
ENCODING 10040
SWIDTH 960 0
DWIDTH 12 0
BBX 12 12 0 -2
BITMAP
0000
39e0
18c0
18c0
18c0
18c0
18c0
18c0
18c0
18c0
3fe0
0020
ENDCHAR
STARTCHAR 01-07-25
ENCODING 10041
SWIDTH 960 0
DWIDTH 12 0
BBX 12 12 0 -2
BITMAP
0000
38e0
18c0
18c0
18c0
18c0
0fc0
00c0
00c0
00c0
01e0
0000
ENDCHAR
STARTCHAR 01-07-26
ENCODING 10042
SWIDTH 960 0
DWIDTH 12 0
BBX 12 12 0 -2
BITMAP
0000
76e0
36c0
36c0
36c0
36c0
36c0
36c0
36c0
36c0
7fe0
0000
ENDCHAR
STARTCHAR 01-07-27
ENCODING 10043
SWIDTH 960 0
DWIDTH 12 0
BBX 12 12 0 -2
BITMAP
0000
76e0
36c0
36c0
36c0
36c0
36c0
36c0
36c0
36c0
7fe0
0020
ENDCHAR
STARTCHAR 01-07-28
ENCODING 10044
SWIDTH 960 0
DWIDTH 12 0
BBX 12 12 0 -2
BITMAP
0000
3e00
2c00
4c00
0c00
0fc0
0c60
0c60
0c60
0c60
1fc0
0000
ENDCHAR
STARTCHAR 01-07-29
ENCODING 10045
SWIDTH 960 0
DWIDTH 12 0
BBX 12 12 0 -2
BITMAP
0000
70e0
30c0
30c0
30c0
3ec0
33c0
33c0
33c0
33c0
7ee0
0000
ENDCHAR
STARTCHAR 01-07-30
ENCODING 10046
SWIDTH 960 0
DWIDTH 12 0
BBX 12 12 0 -2
BITMAP
0000
3c00
1800
1800
1800
1f80
18c0
18c0
18c0
18c0
3f80
0000
ENDCHAR
STARTCHAR 01-07-31
ENCODING 10047
SWIDTH 960 0
DWIDTH 12 0
BBX 12 12 0 -2
BITMAP
0000
0700
1880
10c0
0060
0660
09e0
0060
10c0
1880
0700
0000
ENDCHAR
STARTCHAR 01-07-32
ENCODING 10048
SWIDTH 960 0
DWIDTH 12 0
BBX 12 12 0 -2
BITMAP
0000
7180
3240
3660
3660
3660
3e60
3660
3660
3240
7180
0000
ENDCHAR
STARTCHAR 01-07-33
ENCODING 10049
SWIDTH 960 0
DWIDTH 12 0
BBX 12 12 0 -2
BITMAP
0000
0fe0
18c0
30c0
30c0
18c0
0fc0
0cc0
08c0
18c0
21e0
0000
ENDCHAR
STARTCHAR 01-07-34
ENCODING 10050
SWIDTH 960 0
DWIDTH 12 0
BBX 12 12 0 -2
BITMAP
03f0
0200
0200
0200
0200
0200
0200
0200
0200
0200
0200
0200
ENDCHAR
STARTCHAR 01-07-35
ENCODING 10051
SWIDTH 960 0
DWIDTH 12 0
BBX 12 12 0 -2
BITMAP
0200
0200
0200
0200
0200
0200
0200
0200
0200
0200
0200
03f0
ENDCHAR
STARTCHAR 01-07-36
ENCODING 10052
SWIDTH 960 0
DWIDTH 12 0
BBX 12 12 0 -2
BITMAP
0200
0200
0200
0700
0a80
1240
1240
1240
0a80
0700
0200
0200
ENDCHAR
STARTCHAR 01-07-37
ENCODING 10053
SWIDTH 960 0
DWIDTH 12 0
BBX 12 12 0 -2
BITMAP
fff0
0200
0200
0700
0a80
1240
1240
1240
0a80
0700
0200
0200
ENDCHAR
STARTCHAR 01-07-38
ENCODING 10054
SWIDTH 960 0
DWIDTH 12 0
BBX 12 12 0 -2
BITMAP
0200
0200
0200
0700
0a80
1240
1240
1240
0a80
0700
0200
fff0
ENDCHAR
STARTCHAR 01-07-39
ENCODING 10055
SWIDTH 960 0
DWIDTH 12 0
BBX 12 12 0 -2
BITMAP
0200
0200
0200
0200
0700
0700
0a80
1240
1240
3fe0
0200
0200
ENDCHAR
STARTCHAR 01-07-40
ENCODING 10056
SWIDTH 960 0
DWIDTH 12 0
BBX 12 12 0 -2
BITMAP
fff0
0200
0200
0200
0700
0700
0a80
1240
1240
3fe0
0200
0200
ENDCHAR
STARTCHAR 01-07-41
ENCODING 10057
SWIDTH 960 0
DWIDTH 12 0
BBX 12 12 0 -2
BITMAP
0200
0200
0200
0200
0700
0700
0a80
1240
1240
3fe0
0200
fff0
ENDCHAR
STARTCHAR 01-07-42
ENCODING 10058
SWIDTH 960 0
DWIDTH 12 0
BBX 12 12 0 -2
BITMAP
0200
0200
0200
0200
0200
1a00
2720
02c0
0200
0200
0200
0200
ENDCHAR
STARTCHAR 01-07-43
ENCODING 10059
SWIDTH 960 0
DWIDTH 12 0
BBX 12 12 0 -2
BITMAP
fff0
0200
0200
0200
0200
1a00
2720
02c0
0200
0200
0200
0200
ENDCHAR
STARTCHAR 01-07-44
ENCODING 10060
SWIDTH 960 0
DWIDTH 12 0
BBX 12 12 0 -2
BITMAP
0200
0200
0200
0200
0200
1a00
2720
02c0
0200
0200
0200
fff0
ENDCHAR
STARTCHAR 01-07-45
ENCODING 10061
SWIDTH 960 0
DWIDTH 12 0
BBX 12 12 0 -2
BITMAP
fff0
0200
0200
0200
0200
0200
0200
0200
0200
0200
0200
0200
ENDCHAR
STARTCHAR 01-07-46
ENCODING 10062
SWIDTH 960 0
DWIDTH 12 0
BBX 12 12 0 -2
BITMAP
0200
0200
0200
0200
0200
0200
0200
0200
0200
0200
0200
fff0
ENDCHAR
STARTCHAR 01-07-47
ENCODING 10063
SWIDTH 960 0
DWIDTH 12 0
BBX 12 12 0 -2
BITMAP
fe00
0200
0200
0200
0200
0200
0200
0200
0200
0200
0200
0200
ENDCHAR
STARTCHAR 01-07-48
ENCODING 10064
SWIDTH 960 0
DWIDTH 12 0
BBX 12 12 0 -2
BITMAP
0200
0200
0200
0200
0200
0200
0200
0200
0200
0200
0200
fe00
ENDCHAR
STARTCHAR 01-07-49
ENCODING 10065
SWIDTH 960 0
DWIDTH 12 0
BBX 12 12 0 -2
BITMAP
0000
0000
0000
0000
0000
0f80
00c0
0fc0
18c0
18c0
0f40
0000
ENDCHAR
STARTCHAR 01-07-50
ENCODING 10066
SWIDTH 960 0
DWIDTH 12 0
BBX 12 12 0 -2
BITMAP
0000
0080
0700
0800
0800
1f00
1880
18c0
18c0
0880
0700
0000
ENDCHAR
STARTCHAR 01-07-51
ENCODING 10067
SWIDTH 960 0
DWIDTH 12 0
BBX 12 12 0 -2
BITMAP
0000
0000
0000
0000
0000
1f80
0cc0
0f80
0cc0
0cc0
1f80
0000
ENDCHAR
STARTCHAR 01-07-52
ENCODING 10068
SWIDTH 960 0
DWIDTH 12 0
BBX 12 12 0 -2
BITMAP
0000
0000
0000
0000
0000
1f80
0c40
0c00
0c00
0c00
1e00
0000
ENDCHAR
STARTCHAR 01-07-53
ENCODING 10069
SWIDTH 960 0
DWIDTH 12 0
BBX 12 12 0 -2
BITMAP
0000
0000
0000
0000
0000
0fc0
0580
0580
0580
0980
1f80
1040
ENDCHAR
STARTCHAR 01-07-54
ENCODING 10070
SWIDTH 960 0
DWIDTH 12 0
BBX 12 12 0 -2
BITMAP
0000
0000
0000
0000
0000
0700
0880
1fc0
1800
0880
0700
0000
ENDCHAR
STARTCHAR 01-07-55
ENCODING 10071
SWIDTH 960 0
DWIDTH 12 0
BBX 12 12 0 -2
BITMAP
0000
0000
0000
0d80
0d80
0700
0880
1fc0
1800
0880
0700
0000
ENDCHAR
STARTCHAR 01-07-56
ENCODING 10072
SWIDTH 960 0
DWIDTH 12 0
BBX 12 12 0 -2
BITMAP
0000
0000
0000
0000
0000
36c0
1680
0f00
1f80
1680
36c0
0000
ENDCHAR
STARTCHAR 01-07-57
ENCODING 10073
SWIDTH 960 0
DWIDTH 12 0
BBX 12 12 0 -2
BITMAP
0000
0000
0000
0000
0000
0f80
10c0
0780
00c0
10c0
0f80
0000
ENDCHAR
STARTCHAR 01-07-58
ENCODING 10074
SWIDTH 960 0
DWIDTH 12 0
BBX 12 12 0 -2
BITMAP
0000
0000
0000
0000
0000
38e0
19c0
1ac0
1ac0
1cc0
38e0
0000
ENDCHAR
STARTCHAR 01-07-59
ENCODING 10075
SWIDTH 960 0
DWIDTH 12 0
BBX 12 12 0 -2
BITMAP
0000
0000
0d80
0700
0000
38e0
19c0
1ac0
1ac0
1cc0
38e0
0000
ENDCHAR
STARTCHAR 01-07-60
ENCODING 10076
SWIDTH 960 0
DWIDTH 12 0
BBX 12 12 0 -2
BITMAP
0000
0000
0000
0000
0000
1cc0
0dc0
0e00
0d00
0d80
1dc0
0000
ENDCHAR
STARTCHAR 01-07-61
ENCODING 10077
SWIDTH 960 0
DWIDTH 12 0
BBX 12 12 0 -2
BITMAP
0000
0000
0000
0000
0000
0fc0
0580
0580
0580
1980
19c0
0000
ENDCHAR
STARTCHAR 01-07-62
ENCODING 10078
SWIDTH 960 0
DWIDTH 12 0
BBX 12 12 0 -2
BITMAP
0000
0000
0000
0000
0000
38e0
19c0
1dc0
16c0
12c0
38e0
0000
ENDCHAR
STARTCHAR 01-07-63
ENCODING 10079
SWIDTH 960 0
DWIDTH 12 0
BBX 12 12 0 -2
BITMAP
0000
0000
0000
0000
0000
38e0
18c0
1fc0
18c0
18c0
38e0
0000
ENDCHAR
STARTCHAR 01-07-64
ENCODING 10080
SWIDTH 960 0
DWIDTH 12 0
BBX 12 12 0 -2
BITMAP
0000
0000
0000
0000
0000
0700
0880
18c0
18c0
0880
0700
0000
ENDCHAR
STARTCHAR 01-07-65
ENCODING 10081
SWIDTH 960 0
DWIDTH 12 0
BBX 12 12 0 -2
BITMAP
0000
0000
0000
0000
0000
3fc0
1980
1980
1980
1980
39c0
0000
ENDCHAR
STARTCHAR 01-07-66
ENCODING 10082
SWIDTH 960 0
DWIDTH 12 0
BBX 12 12 0 -2
BITMAP
0000
0000
0000
0000
0000
1b80
0cc0
0cc0
0cc0
0f80
0c00
1e00
ENDCHAR
STARTCHAR 01-07-67
ENCODING 10083
SWIDTH 960 0
DWIDTH 12 0
BBX 12 12 0 -2
BITMAP
0000
0000
0000
0000
0000
0780
0880
1800
1800
0880
0700
0000
ENDCHAR
STARTCHAR 01-07-68
ENCODING 10084
SWIDTH 960 0
DWIDTH 12 0
BBX 12 12 0 -2
BITMAP
0000
0000
0000
0000
0000
1f80
1680
2640
0600
0600
0f00
0000
ENDCHAR
STARTCHAR 01-07-69
ENCODING 10085
SWIDTH 960 0
DWIDTH 12 0
BBX 12 12 0 -2
BITMAP
0000
0000
0000
0000
0000
3dc0
1880
0c80
0700
0300
1a00
1c00
ENDCHAR
STARTCHAR 01-07-70
ENCODING 10086
SWIDTH 960 0
DWIDTH 12 0
BBX 12 12 0 -2
BITMAP
0000
0200
0600
0600
1680
2f40
6660
6660
2f40
1680
0600
0f00
ENDCHAR
STARTCHAR 01-07-71
ENCODING 10087
SWIDTH 960 0
DWIDTH 12 0
BBX 12 12 0 -2
BITMAP
0000
0000
0000
0000
0000
39c0
1c80
0f00
0f00
1380
39c0
0000
ENDCHAR
STARTCHAR 01-07-72
ENCODING 10088
SWIDTH 960 0
DWIDTH 12 0
BBX 12 12 0 -2
BITMAP
0000
0000
0000
0000
0000
39c0
1980
1980
1980
1980
1fc0
0040
ENDCHAR
STARTCHAR 01-07-73
ENCODING 10089
SWIDTH 960 0
DWIDTH 12 0
BBX 12 12 0 -2
BITMAP
0000
0000
0000
0000
0000
39c0
1980
1980
0f80
0180
03c0
0000
ENDCHAR
STARTCHAR 01-07-74
ENCODING 10090
SWIDTH 960 0
DWIDTH 12 0
BBX 12 12 0 -2
BITMAP
0000
0000
0000
0000
0000
76e0
36c0
36c0
36c0
36c0
7fe0
0000
ENDCHAR
STARTCHAR 01-07-75
ENCODING 10091
SWIDTH 960 0
DWIDTH 12 0
BBX 12 12 0 -2
BITMAP
0000
0000
0000
0000
0000
76e0
36c0
36c0
36c0
36c0
7fe0
0020
ENDCHAR
STARTCHAR 01-07-76
ENCODING 10092
SWIDTH 960 0
DWIDTH 12 0
BBX 12 12 0 -2
BITMAP
0000
0000
0000
0000
0000
3f00
2600
47c0
0660
0660
0fc0
0000
ENDCHAR
STARTCHAR 01-07-77
ENCODING 10093
SWIDTH 960 0
DWIDTH 12 0
BBX 12 12 0 -2
BITMAP
0000
0000
0000
0000
0000
79e0
30c0
3cc0
36c0
36c0
7de0
0000
ENDCHAR
STARTCHAR 01-07-78
ENCODING 10094
SWIDTH 960 0
DWIDTH 12 0
BBX 12 12 0 -2
BITMAP
0000
0000
0000
0000
0000
3c00
1800
1f80
18c0
18c0
3f80
0000
ENDCHAR
STARTCHAR 01-07-79
ENCODING 10095
SWIDTH 960 0
DWIDTH 12 0
BBX 12 12 0 -2
BITMAP
0000
0000
0000
0000
0000
1f00
2080
0dc0
16c0
2080
1f00
0000
ENDCHAR
STARTCHAR 01-07-80
ENCODING 10096
SWIDTH 960 0
DWIDTH 12 0
BBX 12 12 0 -2
BITMAP
0000
0000
0000
0000
0000
7980
3240
3e60
3660
3240
7980
0000
ENDCHAR
STARTCHAR 01-07-81
ENCODING 10097
SWIDTH 960 0
DWIDTH 12 0
BBX 12 12 0 -2
BITMAP
0000
0000
0000
0000
0000
0fc0
1980
1980
0f80
1980
21c0
0000
ENDCHAR
STARTCHAR 01-07-82
ENCODING 10098
SWIDTH 960 0
DWIDTH 12 0
BBX 12 12 0 -2
BITMAP
0000
00a0
4750
3950
2100
1100
1100
0200
0200
0400
0800
0000
ENDCHAR
STARTCHAR 01-07-83
ENCODING 10099
SWIDTH 960 0
DWIDTH 12 0
BBX 12 12 0 -2
BITMAP
0000
02a0
0150
03d0
3d00
1100
0900
0bc0
3d20
0100
0100
0100
ENDCHAR
STARTCHAR 01-07-84
ENCODING 10100
SWIDTH 960 0
DWIDTH 12 0
BBX 12 12 0 -2
BITMAP
0000
00a0
0050
03d0
3c40
0480
0200
0200
03e0
7e10
0000
0000
ENDCHAR
STARTCHAR 01-07-85
ENCODING 10101
SWIDTH 960 0
DWIDTH 12 0
BBX 12 12 0 -2
BITMAP
0000
00a0
4750
3950
0100
0700
3900
0100
0200
0400
1800
0000
ENDCHAR
STARTCHAR 01-07-86
ENCODING 10102
SWIDTH 960 0
DWIDTH 12 0
BBX 12 12 0 -2
BITMAP
0000
00e0
0700
3800
0700
00e0
3fe0
3800
0700
00e0
0700
3800
ENDCHAR
STARTCHAR 01-07-87
ENCODING 10103
SWIDTH 960 0
DWIDTH 12 0
BBX 12 12 0 -2
BITMAP
0000
3800
0700
00e0
0700
3800
3fe0
00e0
0700
3800
0700
00e0
ENDCHAR
STARTCHAR 01-07-88
ENCODING 10104
SWIDTH 960 0
DWIDTH 12 0
BBX 12 12 0 -2
BITMAP
0000
0800
3800
0840
0880
0900
0200
05c0
0820
11c0
2020
01c0
ENDCHAR
STARTCHAR 01-07-89
ENCODING 10105
SWIDTH 960 0
DWIDTH 12 0
BBX 12 12 0 -2
BITMAP
0000
3800
0400
1840
2080
3d00
0200
05c0
0820
11c0
2020
01c0
ENDCHAR
STARTCHAR 01-07-90
ENCODING 10106
SWIDTH 960 0
DWIDTH 12 0
BBX 12 12 0 -2
BITMAP
0000
0800
3800
0840
0880
0900
0200
05e0
0900
11c0
2020
01c0
ENDCHAR
STARTCHAR 01-07-91
ENCODING 10107
SWIDTH 960 0
DWIDTH 12 0
BBX 12 12 0 -2
BITMAP
0000
0000
0020
0040
0080
0100
0200
6200
1400
0800
0800
0000
ENDCHAR
STARTCHAR 01-07-92
ENCODING 10108
SWIDTH 960 0
DWIDTH 12 0
BBX 12 12 0 -2
BITMAP
0000
30c0
4920
4920
3fe0
0900
0900
3fc0
4920
4920
30c0
0000
ENDCHAR
STARTCHAR 01-07-93
ENCODING 10109
SWIDTH 960 0
DWIDTH 12 0
BBX 12 12 0 -2
BITMAP
0000
0000
0000
0000
0000
0000
0000
0000
0000
2040
2040
3fc0
ENDCHAR
STARTCHAR 01-07-94
ENCODING 10110
SWIDTH 960 0
DWIDTH 12 0
BBX 12 12 0 -2
BITMAP
0000
0000
00e0
00a0
00a0
08a0
1920
2e20
4040
2f80
1800
0800
ENDCHAR
STARTCHAR 01-08-01
ENCODING 10273
SWIDTH 960 0
DWIDTH 12 0
BBX 12 12 0 -2
BITMAP
0000
0000
0000
0000
0000
0000
fff0
0000
0000
0000
0000
0000
ENDCHAR
STARTCHAR 01-08-02
ENCODING 10274
SWIDTH 960 0
DWIDTH 12 0
BBX 12 12 0 -2
BITMAP
0200
0200
0200
0200
0200
0200
0200
0200
0200
0200
0200
0200
ENDCHAR
STARTCHAR 01-08-03
ENCODING 10275
SWIDTH 960 0
DWIDTH 12 0
BBX 12 12 0 -2
BITMAP
0000
0000
0000
0000
0000
0000
03f0
0200
0200
0200
0200
0200
ENDCHAR
STARTCHAR 01-08-04
ENCODING 10276
SWIDTH 960 0
DWIDTH 12 0
BBX 12 12 0 -2
BITMAP
0000
0000
0000
0000
0000
0000
fe00
0200
0200
0200
0200
0200
ENDCHAR
STARTCHAR 01-08-05
ENCODING 10277
SWIDTH 960 0
DWIDTH 12 0
BBX 12 12 0 -2
BITMAP
0200
0200
0200
0200
0200
0200
fe00
0000
0000
0000
0000
0000
ENDCHAR
STARTCHAR 01-08-06
ENCODING 10278
SWIDTH 960 0
DWIDTH 12 0
BBX 12 12 0 -2
BITMAP
0200
0200
0200
0200
0200
0200
03f0
0000
0000
0000
0000
0000
ENDCHAR
STARTCHAR 01-08-07
ENCODING 10279
SWIDTH 960 0
DWIDTH 12 0
BBX 12 12 0 -2
BITMAP
0200
0200
0200
0200
0200
0200
03f0
0200
0200
0200
0200
0200
ENDCHAR
STARTCHAR 01-08-08
ENCODING 10280
SWIDTH 960 0
DWIDTH 12 0
BBX 12 12 0 -2
BITMAP
0000
0000
0000
0000
0000
0000
fff0
0200
0200
0200
0200
0200
ENDCHAR
STARTCHAR 01-08-09
ENCODING 10281
SWIDTH 960 0
DWIDTH 12 0
BBX 12 12 0 -2
BITMAP
0200
0200
0200
0200
0200
0200
fe00
0200
0200
0200
0200
0200
ENDCHAR
STARTCHAR 01-08-10
ENCODING 10282
SWIDTH 960 0
DWIDTH 12 0
BBX 12 12 0 -2
BITMAP
0200
0200
0200
0200
0200
0200
fff0
0000
0000
0000
0000
0000
ENDCHAR
STARTCHAR 01-08-11
ENCODING 10283
SWIDTH 960 0
DWIDTH 12 0
BBX 12 12 0 -2
BITMAP
0200
0200
0200
0200
0200
0200
fff0
0200
0200
0200
0200
0200
ENDCHAR
STARTCHAR 01-08-12
ENCODING 10284
SWIDTH 960 0
DWIDTH 12 0
BBX 12 12 0 -2
BITMAP
0000
0000
0000
0000
0000
fff0
fff0
0000
0000
0000
0000
0000
ENDCHAR
STARTCHAR 01-08-13
ENCODING 10285
SWIDTH 960 0
DWIDTH 12 0
BBX 12 12 0 -2
BITMAP
0600
0600
0600
0600
0600
0600
0600
0600
0600
0600
0600
0600
ENDCHAR
STARTCHAR 01-08-14
ENCODING 10286
SWIDTH 960 0
DWIDTH 12 0
BBX 12 12 0 -2
BITMAP
0000
0000
0000
0000
0000
07f0
07f0
0600
0600
0600
0600
0600
ENDCHAR
STARTCHAR 01-08-15
ENCODING 10287
SWIDTH 960 0
DWIDTH 12 0
BBX 12 12 0 -2
BITMAP
0000
0000
0000
0000
0000
fe00
fe00
0600
0600
0600
0600
0600
ENDCHAR
STARTCHAR 01-08-16
ENCODING 10288
SWIDTH 960 0
DWIDTH 12 0
BBX 12 12 0 -2
BITMAP
0600
0600
0600
0600
0600
fe00
fe00
0000
0000
0000
0000
0000
ENDCHAR
STARTCHAR 01-08-17
ENCODING 10289
SWIDTH 960 0
DWIDTH 12 0
BBX 12 12 0 -2
BITMAP
0600
0600
0600
0600
0600
07f0
07f0
0000
0000
0000
0000
0000
ENDCHAR
STARTCHAR 01-08-18
ENCODING 10290
SWIDTH 960 0
DWIDTH 12 0
BBX 12 12 0 -2
BITMAP
0600
0600
0600
0600
0600
07f0
07f0
0600
0600
0600
0600
0600
ENDCHAR
STARTCHAR 01-08-19
ENCODING 10291
SWIDTH 960 0
DWIDTH 12 0
BBX 12 12 0 -2
BITMAP
0000
0000
0000
0000
0000
fff0
fff0
0600
0600
0600
0600
0600
ENDCHAR
STARTCHAR 01-08-20
ENCODING 10292
SWIDTH 960 0
DWIDTH 12 0
BBX 12 12 0 -2
BITMAP
0600
0600
0600
0600
0600
fe00
fe00
0600
0600
0600
0600
0600
ENDCHAR
STARTCHAR 01-08-21
ENCODING 10293
SWIDTH 960 0
DWIDTH 12 0
BBX 12 12 0 -2
BITMAP
0600
0600
0600
0600
0600
fff0
fff0
0000
0000
0000
0000
0000
ENDCHAR
STARTCHAR 01-08-22
ENCODING 10294
SWIDTH 960 0
DWIDTH 12 0
BBX 12 12 0 -2
BITMAP
0600
0600
0600
0600
0600
fff0
fff0
0600
0600
0600
0600
0600
ENDCHAR
STARTCHAR 01-08-23
ENCODING 10295
SWIDTH 960 0
DWIDTH 12 0
BBX 12 12 0 -2
BITMAP
0600
0600
0600
0600
0600
0600
07f0
0600
0600
0600
0600
0600
ENDCHAR
STARTCHAR 01-08-24
ENCODING 10296
SWIDTH 960 0
DWIDTH 12 0
BBX 12 12 0 -2
BITMAP
0000
0000
0000
0000
0000
fff0
fff0
0200
0200
0200
0200
0200
ENDCHAR
STARTCHAR 01-08-25
ENCODING 10297
SWIDTH 960 0
DWIDTH 12 0
BBX 12 12 0 -2
BITMAP
0600
0600
0600
0600
0600
0600
fe00
0600
0600
0600
0600
0600
ENDCHAR
STARTCHAR 01-08-26
ENCODING 10298
SWIDTH 960 0
DWIDTH 12 0
BBX 12 12 0 -2
BITMAP
0200
0200
0200
0200
0200
fff0
fff0
0000
0000
0000
0000
0000
ENDCHAR
STARTCHAR 01-08-27
ENCODING 10299
SWIDTH 960 0
DWIDTH 12 0
BBX 12 12 0 -2
BITMAP
0200
0200
0200
0200
0200
fff0
fff0
0200
0200
0200
0200
0200
ENDCHAR
STARTCHAR 01-08-28
ENCODING 10300
SWIDTH 960 0
DWIDTH 12 0
BBX 12 12 0 -2
BITMAP
0200
0200
0200
0200
0200
03f0
03f0
0200
0200
0200
0200
0200
ENDCHAR
STARTCHAR 01-08-29
ENCODING 10301
SWIDTH 960 0
DWIDTH 12 0
BBX 12 12 0 -2
BITMAP
0000
0000
0000
0000
0000
0000
fff0
0600
0600
0600
0600
0600
ENDCHAR
STARTCHAR 01-08-30
ENCODING 10302
SWIDTH 960 0
DWIDTH 12 0
BBX 12 12 0 -2
BITMAP
0200
0200
0200
0200
0200
fe00
fe00
0200
0200
0200
0200
0200
ENDCHAR
STARTCHAR 01-08-31
ENCODING 10303
SWIDTH 960 0
DWIDTH 12 0
BBX 12 12 0 -2
BITMAP
0600
0600
0600
0600
0600
0600
fff0
0000
0000
0000
0000
0000
ENDCHAR
STARTCHAR 01-08-32
ENCODING 10304
SWIDTH 960 0
DWIDTH 12 0
BBX 12 12 0 -2
BITMAP
0600
0600
0600
0600
0600
0600
fff0
0600
0600
0600
0600
0600
ENDCHAR
STARTCHAR 01-08-33
ENCODING 10305
SWIDTH 960 0
DWIDTH 12 0
BBX 12 12 0 -2
BITMAP
0000
1fc0
2020
4c90
5390
4290
4490
4890
5090
5fd0
2020
1fc0
ENDCHAR
STARTCHAR 01-08-34
ENCODING 10306
SWIDTH 960 0
DWIDTH 12 0
BBX 12 12 0 -2
BITMAP
0000
1fc0
2020
4d90
5250
4250
4490
4890
5110
5fd0
2020
1fc0
ENDCHAR
STARTCHAR 01-08-35
ENCODING 10307
SWIDTH 960 0
DWIDTH 12 0
BBX 12 12 0 -2
BITMAP
0000
1fc0
2020
4d90
5350
4250
4490
4850
5150
5f90
2020
1fc0
ENDCHAR
STARTCHAR 01-08-36
ENCODING 10308
SWIDTH 960 0
DWIDTH 12 0
BBX 12 12 0 -2
BITMAP
0000
1fc0
2020
4c50
52d0
4350
4650
4bd0
5050
5ed0
2020
1fc0
ENDCHAR
STARTCHAR 01-08-37
ENCODING 10309
SWIDTH 960 0
DWIDTH 12 0
BBX 12 12 0 -2
BITMAP
0000
1fc0
2020
4dd0
5310
4310
45d0
4850
5150
5f90
2020
1fc0
ENDCHAR
STARTCHAR 01-08-38
ENCODING 10310
SWIDTH 960 0
DWIDTH 12 0
BBX 12 12 0 -2
BITMAP
0000
1fc0
2020
4d90
5350
4310
45d0
4950
5150
5fd0
2020
1fc0
ENDCHAR
STARTCHAR 01-08-39
ENCODING 10311
SWIDTH 960 0
DWIDTH 12 0
BBX 12 12 0 -2
BITMAP
0000
1fc0
2020
4fd0
5250
4250
4490
4890
5090
5e90
2020
1fc0
ENDCHAR
STARTCHAR 01-08-40
ENCODING 10312
SWIDTH 960 0
DWIDTH 12 0
BBX 12 12 0 -2
BITMAP
0000
1fc0
2020
4d90
5350
4350
4490
4950
5150
5f90
2020
1fc0
ENDCHAR
STARTCHAR 01-08-41
ENCODING 10313
SWIDTH 960 0
DWIDTH 12 0
BBX 12 12 0 -2
BITMAP
0000
1fc0
2020
4d90
5350
4350
44d0
4850
5150
5f90
2020
1fc0
ENDCHAR
STARTCHAR 01-08-42
ENCODING 10314
SWIDTH 960 0
DWIDTH 12 0
BBX 12 12 0 -2
BITMAP
0000
1fc0
2020
4c90
5350
4350
4d50
4350
5350
4c90
2020
1fc0
ENDCHAR
STARTCHAR 01-08-43
ENCODING 10315
SWIDTH 960 0
DWIDTH 12 0
BBX 12 12 0 -2
BITMAP
0000
1fc0
2020
4c90
5390
4290
4c90
4290
5290
4dd0
2020
1fc0
ENDCHAR
STARTCHAR 01-08-44
ENCODING 10316
SWIDTH 960 0
DWIDTH 12 0
BBX 12 12 0 -2
BITMAP
0000
1fc0
2020
4d90
5250
4250
4c90
4290
5310
4dd0
2020
1fc0
ENDCHAR
STARTCHAR 01-08-45
ENCODING 10317
SWIDTH 960 0
DWIDTH 12 0
BBX 12 12 0 -2
BITMAP
0000
1fc0
2020
4d90
5250
4250
4c90
4250
5250
4d90
2020
1fc0
ENDCHAR
STARTCHAR 01-08-46
ENCODING 10318
SWIDTH 960 0
DWIDTH 12 0
BBX 12 12 0 -2
BITMAP
0000
1fc0
2020
4c50
52d0
4350
4d50
43d0
5250
4cd0
2020
1fc0
ENDCHAR
STARTCHAR 01-08-47
ENCODING 10319
SWIDTH 960 0
DWIDTH 12 0
BBX 12 12 0 -2
BITMAP
0000
1fc0
2020
4dd0
5310
4310
4dd0
4250
5350
4dd0
2020
1fc0
ENDCHAR
STARTCHAR 01-08-48
ENCODING 10320
SWIDTH 960 0
DWIDTH 12 0
BBX 12 12 0 -2
BITMAP
0000
1fc0
2020
4d90
5350
4310
4dd0
4350
5350
4dd0
2020
1fc0
ENDCHAR
STARTCHAR 01-08-49
ENCODING 10321
SWIDTH 960 0
DWIDTH 12 0
BBX 12 12 0 -2
BITMAP
0000
1fc0
2020
4dd0
5250
4250
4c90
4290
5290
4c90
2020
1fc0
ENDCHAR
STARTCHAR 01-08-50
ENCODING 10322
SWIDTH 960 0
DWIDTH 12 0
BBX 12 12 0 -2
BITMAP
0000
1fc0
2020
4d90
5350
4350
4d90
4350
5350
4d90
2020
1fc0
ENDCHAR
STARTCHAR 01-08-51
ENCODING 10323
SWIDTH 960 0
DWIDTH 12 0
BBX 12 12 0 -2
BITMAP
0000
1fc0
2020
4d90
5350
4350
4cd0
4250
5250
4d90
2020
1fc0
ENDCHAR
STARTCHAR 01-08-52
ENCODING 10324
SWIDTH 960 0
DWIDTH 12 0
BBX 12 12 0 -2
BITMAP
0000
1fc0
2020
4490
4d50
5550
5550
5f50
4550
4e90
2020
1fc0
ENDCHAR
STARTCHAR 01-08-53
ENCODING 10325
SWIDTH 960 0
DWIDTH 12 0
BBX 12 12 0 -2
BITMAP
0000
1fc0
2020
4490
4d90
5490
5490
5e90
4490
4fd0
2020
1fc0
ENDCHAR
STARTCHAR 01-08-54
ENCODING 10326
SWIDTH 960 0
DWIDTH 12 0
BBX 12 12 0 -2
BITMAP
0000
1fc0
2020
4590
4e50
5450
5490
5e90
4510
4fd0
2020
1fc0
ENDCHAR
STARTCHAR 01-08-55
ENCODING 10327
SWIDTH 960 0
DWIDTH 12 0
BBX 12 12 0 -2
BITMAP
0000
1fc0
2020
4590
4e50
5450
5490
5e50
4550
4f90
2020
1fc0
ENDCHAR
STARTCHAR 01-08-56
ENCODING 10328
SWIDTH 960 0
DWIDTH 12 0
BBX 12 12 0 -2
BITMAP
0000
1fc0
2020
4450
4cd0
5550
5650
5fd0
4450
4ed0
2020
1fc0
ENDCHAR
STARTCHAR 01-08-57
ENCODING 10329
SWIDTH 960 0
DWIDTH 12 0
BBX 12 12 0 -2
BITMAP
0000
1fc0
2020
45d0
4d10
5510
55d0
5e50
4550
4f90
2020
1fc0
ENDCHAR
STARTCHAR 01-08-58
ENCODING 10330
SWIDTH 960 0
DWIDTH 12 0
BBX 12 12 0 -2
BITMAP
0000
1fc0
2020
4590
4d50
5510
55d0
5f50
4550
4fd0
2020
1fc0
ENDCHAR
STARTCHAR 01-08-59
ENCODING 10331
SWIDTH 960 0
DWIDTH 12 0
BBX 12 12 0 -2
BITMAP
0000
1fc0
2020
47d0
4e50
5450
5490
5e90
4490
4e90
2020
1fc0
ENDCHAR
STARTCHAR 01-08-60
ENCODING 10332
SWIDTH 960 0
DWIDTH 12 0
BBX 12 12 0 -2
BITMAP
0000
1fc0
2020
4590
4d50
5550
5490
5f50
4550
4f90
2020
1fc0
ENDCHAR
STARTCHAR 01-08-61
ENCODING 10333
SWIDTH 960 0
DWIDTH 12 0
BBX 12 12 0 -2
BITMAP
0000
1fc0
2020
4590
4d50
5550
54d0
5e50
4550
4f90
2020
1fc0
ENDCHAR
STARTCHAR 01-08-62
ENCODING 10334
SWIDTH 960 0
DWIDTH 12 0
BBX 12 12 0 -2
BITMAP
0000
1fc0
2020
5e90
5150
5150
5f50
4350
5350
4c90
2020
1fc0
ENDCHAR
STARTCHAR 01-08-71
ENCODING 10343
SWIDTH 960 0
DWIDTH 12 0
BBX 12 12 0 -2
BITMAP
0000
0700
1ec0
3e20
3e20
7e10
7e10
7e10
3e20
3e20
1ec0
0700
ENDCHAR
STARTCHAR 01-08-72
ENCODING 10344
SWIDTH 960 0
DWIDTH 12 0
BBX 12 12 0 -2
BITMAP
0000
0700
1bc0
23e0
23e0
43f0
43f0
43f0
23e0
23c0
1b80
0700
ENDCHAR
STARTCHAR 01-08-73
ENCODING 10345
SWIDTH 960 0
DWIDTH 12 0
BBX 12 12 0 -2
BITMAP
0000
0700
18c0
2020
2020
4010
7ff0
7ff0
3fe0
3fe0
1fc0
0700
ENDCHAR
STARTCHAR 01-08-74
ENCODING 10346
SWIDTH 960 0
DWIDTH 12 0
BBX 12 12 0 -2
BITMAP
0000
0700
1fc0
3fe0
3fe0
7ff0
7ff0
4010
2020
2020
18c0
0700
ENDCHAR
STARTCHAR 01-08-75
ENCODING 10347
SWIDTH 960 0
DWIDTH 12 0
BBX 12 12 0 -2
BITMAP
0000
0900
0d80
0d80
0d80
0d00
0900
0900
0000
0d80
0d80
0000
ENDCHAR
STARTCHAR 01-08-76
ENCODING 10348
SWIDTH 960 0
DWIDTH 12 0
BBX 12 12 0 -2
BITMAP
0000
18c0
2520
6730
6730
0c60
1080
1080
0000
1080
1080
0000
ENDCHAR
STARTCHAR 01-08-77
ENCODING 10349
SWIDTH 960 0
DWIDTH 12 0
BBX 12 12 0 -2
BITMAP
0000
0c40
1260
3360
3360
0660
0840
0840
0000
0840
0840
0000
ENDCHAR
STARTCHAR 01-08-78
ENCODING 10350
SWIDTH 960 0
DWIDTH 12 0
BBX 12 12 0 -2
BITMAP
0000
2180
3240
3660
3660
30c0
2100
2100
0000
2100
2100
0000
ENDCHAR
STARTCHAR 01-08-79
ENCODING 10351
SWIDTH 960 0
DWIDTH 12 0
BBX 12 12 0 -2
BITMAP
0000
0880
0500
0700
0500
0980
0f80
1980
10c0
30c0
78e0
0000
ENDCHAR
STARTCHAR 01-08-80
ENCODING 10352
SWIDTH 960 0
DWIDTH 12 0
BBX 12 12 0 -2
BITMAP
0000
0000
0880
0500
0200
0f00
0180
0f80
1980
1980
0ec0
0000
ENDCHAR
STARTCHAR 01-08-81
ENCODING 10353
SWIDTH 960 0
DWIDTH 12 0
BBX 12 12 0 -2
BITMAP
0000
0000
1100
0a00
0400
0e00
0600
0600
0600
0600
0f00
0000
ENDCHAR
STARTCHAR 01-08-82
ENCODING 10354
SWIDTH 960 0
DWIDTH 12 0
BBX 12 12 0 -2
BITMAP
0000
0100
72e0
34c0
39c0
39c0
2ac0
2ec0
24c0
24c0
70e0
0000
ENDCHAR
STARTCHAR 01-08-83
ENCODING 10355
SWIDTH 960 0
DWIDTH 12 0
BBX 12 12 0 -2
BITMAP
0000
0000
0100
0200
0400
36c0
1b60
1b60
1b60
1b60
3b70
0000
ENDCHAR
STARTCHAR 01-08-84
ENCODING 10356
SWIDTH 960 0
DWIDTH 12 0
BBX 12 12 0 -2
BITMAP
0000
0400
32e0
1940
1c40
1640
1740
1340
11c0
10c0
3840
0000
ENDCHAR
STARTCHAR 01-08-85
ENCODING 10357
SWIDTH 960 0
DWIDTH 12 0
BBX 12 12 0 -2
BITMAP
0000
0000
0400
0200
0100
1b80
0cc0
0cc0
0cc0
0cc0
1ce0
0000
ENDCHAR
STARTCHAR 01-08-86
ENCODING 10358
SWIDTH 960 0
DWIDTH 12 0
BBX 12 12 0 -2
BITMAP
0000
0880
0500
0200
0700
18c0
3060
3060
3060
18c0
0700
0000
ENDCHAR
STARTCHAR 01-08-87
ENCODING 10359
SWIDTH 960 0
DWIDTH 12 0
BBX 12 12 0 -2
BITMAP
0000
0000
0880
0500
0200
0f80
18c0
18c0
18c0
18c0
0f80
0000
ENDCHAR
STARTCHAR 01-08-88
ENCODING 10360
SWIDTH 960 0
DWIDTH 12 0
BBX 12 12 0 -2
BITMAP
0000
0000
0880
0500
0200
1dc0
0cc0
0cc0
0cc0
0cc0
0760
0000
ENDCHAR
STARTCHAR 01-08-89
ENCODING 10361
SWIDTH 960 0
DWIDTH 12 0
BBX 12 12 0 -2
BITMAP
0000
0f80
0000
0d80
0d80
0000
1dc0
0cc0
0cc0
0cc0
0760
0000
ENDCHAR
STARTCHAR 01-08-90
ENCODING 10362
SWIDTH 960 0
DWIDTH 12 0
BBX 12 12 0 -2
BITMAP
0000
0100
0200
0d80
0d80
0000
1dc0
0cc0
0cc0
0cc0
0760
0000
ENDCHAR
STARTCHAR 01-08-91
ENCODING 10363
SWIDTH 960 0
DWIDTH 12 0
BBX 12 12 0 -2
BITMAP
0000
0880
0500
0f80
0d80
0000
1dc0
0cc0
0cc0
0cc0
0760
0000
ENDCHAR
STARTCHAR 01-08-92
ENCODING 10364
SWIDTH 960 0
DWIDTH 12 0
BBX 12 12 0 -2
BITMAP
0000
0400
0200
0d80
0d80
0000
1dc0
0cc0
0cc0
0cc0
0760
0000
ENDCHAR
STARTCHAR 01-09-01
ENCODING 10529
SWIDTH 960 0
DWIDTH 12 0
BBX 12 12 0 -2
BITMAP
0000
0700
08c0
1840
7f80
3000
7f00
3000
1840
08c0
0700
0000
ENDCHAR
STARTCHAR 01-09-02
ENCODING 10530
SWIDTH 960 0
DWIDTH 12 0
BBX 12 12 0 -2
BITMAP
0000
0000
0000
0000
0000
0000
0000
0000
0000
0000
0000
aaa0
ENDCHAR
STARTCHAR 01-09-03
ENCODING 10531
SWIDTH 960 0
DWIDTH 12 0
BBX 12 12 0 -2
BITMAP
0000
0300
0300
0000
0200
0200
0200
0300
0300
0300
0300
0300
ENDCHAR
STARTCHAR 01-09-04
ENCODING 10532
SWIDTH 960 0
DWIDTH 12 0
BBX 12 12 0 -2
BITMAP
0000
0000
2020
1740
0880
1040
1040
1040
0880
1740
2020
0000
ENDCHAR
STARTCHAR 01-09-05
ENCODING 10533
SWIDTH 960 0
DWIDTH 12 0
BBX 12 12 0 -2
BITMAP
0000
0000
0200
0200
0200
0200
0000
0200
0200
0200
0200
0000
ENDCHAR
STARTCHAR 01-09-06
ENCODING 10534
SWIDTH 960 0
DWIDTH 12 0
BBX 12 12 0 -2
BITMAP
0000
0f80
1040
2760
48d0
5850
5810
5850
4890
2720
1040
0f80
ENDCHAR
STARTCHAR 01-09-07
ENCODING 10535
SWIDTH 960 0
DWIDTH 12 0
BBX 12 12 0 -2
BITMAP
0000
0700
0980
0780
0980
0780
0000
0000
0000
0000
0000
0000
ENDCHAR
STARTCHAR 01-09-08
ENCODING 10536
SWIDTH 960 0
DWIDTH 12 0
BBX 12 12 0 -2
BITMAP
0000
0000
0000
0000
0000
0120
0240
06c0
0240
0120
0000
0000
ENDCHAR
STARTCHAR 01-09-09
ENCODING 10537
SWIDTH 960 0
DWIDTH 12 0
BBX 12 12 0 -2
BITMAP
0000
0000
0000
0000
0000
0000
3e00
0000
0000
0000
0000
aaa0
ENDCHAR
STARTCHAR 01-09-10
ENCODING 10538
SWIDTH 960 0
DWIDTH 12 0
BBX 12 12 0 -2
BITMAP
0000
0f80
1040
3f20
4c90
4c90
4f10
4c90
4c90
3e60
1040
0f80
ENDCHAR
STARTCHAR 01-09-11
ENCODING 10539
SWIDTH 960 0
DWIDTH 12 0
BBX 12 12 0 -2
BITMAP
0000
0000
0f80
0000
0000
0000
0000
0000
0000
0000
0000
0000
ENDCHAR
STARTCHAR 01-09-12
ENCODING 10540
SWIDTH 960 0
DWIDTH 12 0
BBX 12 12 0 -2
BITMAP
0000
0700
0980
0700
0c00
0f80
0000
0000
0000
0000
0000
0000
ENDCHAR
STARTCHAR 01-09-13
ENCODING 10541
SWIDTH 960 0
DWIDTH 12 0
BBX 12 12 0 -2
BITMAP
0000
0f00
0180
0f00
0180
0f00
0000
0000
0000
0000
0000
0000
ENDCHAR
STARTCHAR 01-09-14
ENCODING 10542
SWIDTH 960 0
DWIDTH 12 0
BBX 12 12 0 -2
BITMAP
0000
0000
0000
0000
0200
0700
0200
0000
0000
0000
0000
0000
ENDCHAR
STARTCHAR 01-09-15
ENCODING 10543
SWIDTH 960 0
DWIDTH 12 0
BBX 12 12 0 -2
BITMAP
0000
0000
0000
0000
0000
0000
0000
0000
0200
0300
0080
0300
ENDCHAR
STARTCHAR 01-09-16
ENCODING 10544
SWIDTH 960 0
DWIDTH 12 0
BBX 12 12 0 -2
BITMAP
0000
0200
1e00
0600
0600
1f80
0000
0000
0000
0000
0000
0000
ENDCHAR
STARTCHAR 01-09-17
ENCODING 10545
SWIDTH 960 0
DWIDTH 12 0
BBX 12 12 0 -2
BITMAP
0000
0600
1980
1980
1980
0600
0000
0000
0000
0000
0000
0000
ENDCHAR
STARTCHAR 01-09-18
ENCODING 10546
SWIDTH 960 0
DWIDTH 12 0
BBX 12 12 0 -2
BITMAP
0000
0000
0000
0000
0000
0480
0240
0360
0240
0480
0000
0000
ENDCHAR
STARTCHAR 01-09-19
ENCODING 10547
SWIDTH 960 0
DWIDTH 12 0
BBX 12 12 0 -2
BITMAP
0000
0800
3800
0840
0880
0900
0200
0440
08c0
1140
23e0
0040
ENDCHAR
STARTCHAR 01-09-20
ENCODING 10548
SWIDTH 960 0
DWIDTH 12 0
BBX 12 12 0 -2
BITMAP
0000
0800
3800
0840
0880
0900
0200
05c0
0820
10c0
2100
01e0
ENDCHAR
STARTCHAR 01-09-21
ENCODING 10549
SWIDTH 960 0
DWIDTH 12 0
BBX 12 12 0 -2
BITMAP
0000
3800
0400
3840
0480
3900
0200
0440
08c0
1140
23e0
0040
ENDCHAR
STARTCHAR 01-09-22
ENCODING 10550
SWIDTH 960 0
DWIDTH 12 0
BBX 12 12 0 -2
BITMAP
0000
0600
0600
0000
0200
0200
0600
0800
18c0
18c0
0880
0700
ENDCHAR
STARTCHAR 01-09-23
ENCODING 10551
SWIDTH 960 0
DWIDTH 12 0
BBX 12 12 0 -2
BITMAP
0000
0400
0200
0100
0700
0580
0980
1f80
10c0
30c0
78e0
0000
ENDCHAR
STARTCHAR 01-09-24
ENCODING 10552
SWIDTH 960 0
DWIDTH 12 0
BBX 12 12 0 -2
BITMAP
0000
0100
0200
0400
0700
0580
0980
1f80
10c0
30c0
78e0
0000
ENDCHAR
STARTCHAR 01-09-25
ENCODING 10553
SWIDTH 960 0
DWIDTH 12 0
BBX 12 12 0 -2
BITMAP
0000
0200
0500
0880
0700
0580
0980
1f80
10c0
30c0
78e0
0000
ENDCHAR
STARTCHAR 01-09-26
ENCODING 10554
SWIDTH 960 0
DWIDTH 12 0
BBX 12 12 0 -2
BITMAP
0000
0c80
1300
0000
0700
0580
0980
1f80
10c0
30c0
78e0
0000
ENDCHAR
STARTCHAR 01-09-27
ENCODING 10555
SWIDTH 960 0
DWIDTH 12 0
BBX 12 12 0 -2
BITMAP
0000
0d80
0d80
0000
0700
0580
0980
1f80
10c0
30c0
78e0
0000
ENDCHAR
STARTCHAR 01-09-28
ENCODING 10556
SWIDTH 960 0
DWIDTH 12 0
BBX 12 12 0 -2
BITMAP
0000
0600
0900
0900
0700
0580
0980
1f80
10c0
30c0
78e0
0000
ENDCHAR
STARTCHAR 01-09-29
ENCODING 10557
SWIDTH 960 0
DWIDTH 12 0
BBX 12 12 0 -2
BITMAP
0000
07e0
0620
0e10
0e40
17c0
1640
3e00
2610
4620
67e0
0000
ENDCHAR
STARTCHAR 01-09-30
ENCODING 10558
SWIDTH 960 0
DWIDTH 12 0
BBX 12 12 0 -2
BITMAP
0000
0740
08c0
1840
3040
3000
3000
1840
08c0
0700
0200
0c00
ENDCHAR
STARTCHAR 01-09-31
ENCODING 10559
SWIDTH 960 0
DWIDTH 12 0
BBX 12 12 0 -2
BITMAP
0000
0400
0200
3fc0
1820
1900
1f00
1900
1820
1840
3fc0
0000
ENDCHAR
STARTCHAR 01-09-32
ENCODING 10560
SWIDTH 960 0
DWIDTH 12 0
BBX 12 12 0 -2
BITMAP
0000
0200
0400
3fc0
1820
1900
1f00
1900
1820
1840
3fc0
0000
ENDCHAR
STARTCHAR 01-09-33
ENCODING 10561
SWIDTH 960 0
DWIDTH 12 0
BBX 12 12 0 -2
BITMAP
0000
0600
0900
3fc0
1820
1900
1f00
1900
1820
1840
3fc0
0000
ENDCHAR
STARTCHAR 01-09-34
ENCODING 10562
SWIDTH 960 0
DWIDTH 12 0
BBX 12 12 0 -2
BITMAP
0000
0d80
0d80
3fc0
1820
1900
1f00
1900
1820
1840
3fc0
0000
ENDCHAR
STARTCHAR 01-09-35
ENCODING 10563
SWIDTH 960 0
DWIDTH 12 0
BBX 12 12 0 -2
BITMAP
0000
0400
0200
0f00
0600
0600
0600
0600
0600
0600
0f00
0000
ENDCHAR
STARTCHAR 01-09-36
ENCODING 10564
SWIDTH 960 0
DWIDTH 12 0
BBX 12 12 0 -2
BITMAP
0000
0200
0400
0f00
0600
0600
0600
0600
0600
0600
0f00
0000
ENDCHAR
STARTCHAR 01-09-37
ENCODING 10565
SWIDTH 960 0
DWIDTH 12 0
BBX 12 12 0 -2
BITMAP
0000
0200
0500
0880
0f00
0600
0600
0600
0600
0600
0f00
0000
ENDCHAR
STARTCHAR 01-09-38
ENCODING 10566
SWIDTH 960 0
DWIDTH 12 0
BBX 12 12 0 -2
BITMAP
0000
0d80
0d80
0000
0f00
0600
0600
0600
0600
0600
0f00
0000
ENDCHAR
STARTCHAR 01-09-39
ENCODING 10567
SWIDTH 960 0
DWIDTH 12 0
BBX 12 12 0 -2
BITMAP
0000
3f00
1880
1840
1860
1860
3c60
1860
1840
1880
3f00
0000
ENDCHAR
STARTCHAR 01-09-40
ENCODING 10568
SWIDTH 960 0
DWIDTH 12 0
BBX 12 12 0 -2
BITMAP
0000
0640
0980
3860
1c40
1640
1740
1340
11c0
10c0
3840
0000
ENDCHAR
STARTCHAR 01-09-41
ENCODING 10569
SWIDTH 960 0
DWIDTH 12 0
BBX 12 12 0 -2
BITMAP
0000
0400
0200
0700
18c0
3060
3060
3060
3060
18c0
0700
0000
ENDCHAR
STARTCHAR 01-09-42
ENCODING 10570
SWIDTH 960 0
DWIDTH 12 0
BBX 12 12 0 -2
BITMAP
0000
0100
0200
0700
18c0
3060
3060
3060
3060
18c0
0700
0000
ENDCHAR
STARTCHAR 01-09-43
ENCODING 10571
SWIDTH 960 0
DWIDTH 12 0
BBX 12 12 0 -2
BITMAP
0000
0200
0500
0880
0700
18c0
3060
3060
3060
18c0
0700
0000
ENDCHAR
STARTCHAR 01-09-44
ENCODING 10572
SWIDTH 960 0
DWIDTH 12 0
BBX 12 12 0 -2
BITMAP
0000
0c80
1300
0700
18c0
3060
3060
3060
3060
18c0
0700
0000
ENDCHAR
STARTCHAR 01-09-45
ENCODING 10573
SWIDTH 960 0
DWIDTH 12 0
BBX 12 12 0 -2
BITMAP
0000
0d80
0d80
0700
18c0
3060
3060
3060
3060
18c0
0700
0000
ENDCHAR
STARTCHAR 01-09-46
ENCODING 10574
SWIDTH 960 0
DWIDTH 12 0
BBX 12 12 0 -2
BITMAP
0000
0720
08c0
18c0
3160
3260
3260
3460
18c0
1880
2700
0000
ENDCHAR
STARTCHAR 01-09-47
ENCODING 10575
SWIDTH 960 0
DWIDTH 12 0
BBX 12 12 0 -2
BITMAP
0000
0400
0200
39e0
1840
1840
1840
1840
1840
0cc0
0700
0000
ENDCHAR
STARTCHAR 01-09-48
ENCODING 10576
SWIDTH 960 0
DWIDTH 12 0
BBX 12 12 0 -2
BITMAP
0000
0100
0200
3ce0
1840
1840
1840
1840
1840
0cc0
0700
0000
ENDCHAR
STARTCHAR 01-09-49
ENCODING 10577
SWIDTH 960 0
DWIDTH 12 0
BBX 12 12 0 -2
BITMAP
0000
0200
0500
38e0
1840
1840
1840
1840
1840
0cc0
0700
0000
ENDCHAR
STARTCHAR 01-09-50
ENCODING 10578
SWIDTH 960 0
DWIDTH 12 0
BBX 12 12 0 -2
BITMAP
0000
0d80
0d80
38e0
1840
1840
1840
1840
1840
0cc0
0700
0000
ENDCHAR
STARTCHAR 01-09-51
ENCODING 10579
SWIDTH 960 0
DWIDTH 12 0
BBX 12 12 0 -2
BITMAP
0000
0100
0200
3ce0
1840
0c80
0f00
0600
0600
0600
0f00
0000
ENDCHAR
STARTCHAR 01-09-52
ENCODING 10580
SWIDTH 960 0
DWIDTH 12 0
BBX 12 12 0 -2
BITMAP
0000
3c00
1800
1f80
18c0
1860
18c0
1f80
1800
1800
3c00
0000
ENDCHAR
STARTCHAR 01-09-53
ENCODING 10581
SWIDTH 960 0
DWIDTH 12 0
BBX 12 12 0 -2
BITMAP
0000
0700
0880
18c0
1880
1b00
18c0
18c0
18c0
1a80
3900
0000
ENDCHAR
STARTCHAR 01-09-54
ENCODING 10582
SWIDTH 960 0
DWIDTH 12 0
BBX 12 12 0 -2
BITMAP
0000
0000
0400
0200
0100
0f00
0180
0f80
1980
1980
0ec0
0000
ENDCHAR
STARTCHAR 01-09-55
ENCODING 10583
SWIDTH 960 0
DWIDTH 12 0
BBX 12 12 0 -2
BITMAP
0000
0000
0100
0200
0400
0f00
0180
0f80
1980
1980
0ec0
0000
ENDCHAR
STARTCHAR 01-09-56
ENCODING 10584
SWIDTH 960 0
DWIDTH 12 0
BBX 12 12 0 -2
BITMAP
0000
0000
0200
0500
0880
0f00
0180
0f80
1980
1980
0ec0
0000
ENDCHAR
STARTCHAR 01-09-57
ENCODING 10585
SWIDTH 960 0
DWIDTH 12 0
BBX 12 12 0 -2
BITMAP
0000
0000
0c80
1300
0000
0f00
0180
0f80
1980
1980
0ec0
0000
ENDCHAR
STARTCHAR 01-09-58
ENCODING 10586
SWIDTH 960 0
DWIDTH 12 0
BBX 12 12 0 -2
BITMAP
0000
0000
0d80
0d80
0000
0f00
0180
0f80
1980
1980
0ec0
0000
ENDCHAR
STARTCHAR 01-09-59
ENCODING 10587
SWIDTH 960 0
DWIDTH 12 0
BBX 12 12 0 -2
BITMAP
0000
0000
0600
0900
0600
0f00
0180
0f80
1980
1980
0ec0
0000
ENDCHAR
STARTCHAR 01-09-60
ENCODING 10588
SWIDTH 960 0
DWIDTH 12 0
BBX 12 12 0 -2
BITMAP
0000
0000
0000
0000
0000
3dc0
0720
3ff0
6700
6710
3de0
0000
ENDCHAR
STARTCHAR 01-09-61
ENCODING 10589
SWIDTH 960 0
DWIDTH 12 0
BBX 12 12 0 -2
BITMAP
0000
0000
0000
0000
0000
0f80
1880
1800
1880
0f00
0200
0c00
ENDCHAR
STARTCHAR 01-09-62
ENCODING 10590
SWIDTH 960 0
DWIDTH 12 0
BBX 12 12 0 -2
BITMAP
0000
0000
0400
0200
0100
0f80
18c0
1fc0
1800
1840
0f80
0000
ENDCHAR
STARTCHAR 01-09-63
ENCODING 10591
SWIDTH 960 0
DWIDTH 12 0
BBX 12 12 0 -2
BITMAP
0000
0000
0100
0200
0400
0f80
18c0
1fc0
1800
1840
0f80
0000
ENDCHAR
STARTCHAR 01-09-64
ENCODING 10592
SWIDTH 960 0
DWIDTH 12 0
BBX 12 12 0 -2
BITMAP
0000
0000
0200
0500
0880
0f80
18c0
1fc0
1800
1840
0f80
0000
ENDCHAR
STARTCHAR 01-09-65
ENCODING 10593
SWIDTH 960 0
DWIDTH 12 0
BBX 12 12 0 -2
BITMAP
0000
0000
0d80
0d80
0000
0f80
18c0
1fc0
1800
1840
0f80
0000
ENDCHAR
STARTCHAR 01-09-66
ENCODING 10594
SWIDTH 960 0
DWIDTH 12 0
BBX 12 12 0 -2
BITMAP
0000
0000
0800
0400
0200
0e00
0600
0600
0600
0600
0f00
0000
ENDCHAR
STARTCHAR 01-09-67
ENCODING 10595
SWIDTH 960 0
DWIDTH 12 0
BBX 12 12 0 -2
BITMAP
0000
0000
0200
0400
0800
0e00
0600
0600
0600
0600
0f00
0000
ENDCHAR
STARTCHAR 01-09-68
ENCODING 10596
SWIDTH 960 0
DWIDTH 12 0
BBX 12 12 0 -2
BITMAP
0000
0000
0400
0a00
1100
0e00
0600
0600
0600
0600
0f00
0000
ENDCHAR
STARTCHAR 01-09-69
ENCODING 10597
SWIDTH 960 0
DWIDTH 12 0
BBX 12 12 0 -2
BITMAP
0000
0000
1b00
1b00
0000
0e00
0600
0600
0600
0600
0f00
0000
ENDCHAR
STARTCHAR 01-09-70
ENCODING 10598
SWIDTH 960 0
DWIDTH 12 0
BBX 12 12 0 -2
BITMAP
0000
0cc0
0300
0c80
0080
06c0
09c0
18c0
18c0
18c0
0980
0600
ENDCHAR
STARTCHAR 01-09-71
ENCODING 10599
SWIDTH 960 0
DWIDTH 12 0
BBX 12 12 0 -2
BITMAP
0000
0000
0c80
1300
0000
1b80
0cc0
0cc0
0cc0
0cc0
1ce0
0000
ENDCHAR
STARTCHAR 01-09-72
ENCODING 10600
SWIDTH 960 0
DWIDTH 12 0
BBX 12 12 0 -2
BITMAP
0000
0000
0400
0200
0100
0f80
18c0
18c0
18c0
18c0
0f80
0000
ENDCHAR
STARTCHAR 01-09-73
ENCODING 10601
SWIDTH 960 0
DWIDTH 12 0
BBX 12 12 0 -2
BITMAP
0000
0000
0100
0200
0400
0f80
18c0
18c0
18c0
18c0
0f80
0000
ENDCHAR
STARTCHAR 01-09-74
ENCODING 10602
SWIDTH 960 0
DWIDTH 12 0
BBX 12 12 0 -2
BITMAP
0000
0000
0200
0500
0880
0f80
18c0
18c0
18c0
18c0
0f80
0000
ENDCHAR
STARTCHAR 01-09-75
ENCODING 10603
SWIDTH 960 0
DWIDTH 12 0
BBX 12 12 0 -2
BITMAP
0000
0000
0c80
1300
0000
0f80
18c0
18c0
18c0
18c0
0f80
0000
ENDCHAR
STARTCHAR 01-09-76
ENCODING 10604
SWIDTH 960 0
DWIDTH 12 0
BBX 12 12 0 -2
BITMAP
0000
0000
0d80
0d80
0000
0f80
18c0
18c0
18c0
18c0
0f80
0000
ENDCHAR
STARTCHAR 01-09-77
ENCODING 10605
SWIDTH 960 0
DWIDTH 12 0
BBX 12 12 0 -2
BITMAP
0000
0000
0000
0000
0040
0f80
19c0
1ac0
1ac0
1cc0
0f80
1000
ENDCHAR
STARTCHAR 01-09-78
ENCODING 10606
SWIDTH 960 0
DWIDTH 12 0
BBX 12 12 0 -2
BITMAP
0000
0000
0400
0200
0100
1dc0
0cc0
0cc0
0cc0
0cc0
0760
0000
ENDCHAR
STARTCHAR 01-09-79
ENCODING 10607
SWIDTH 960 0
DWIDTH 12 0
BBX 12 12 0 -2
BITMAP
0000
0000
0100
0200
0400
1dc0
0cc0
0cc0
0cc0
0cc0
0760
0000
ENDCHAR
STARTCHAR 01-09-80
ENCODING 10608
SWIDTH 960 0
DWIDTH 12 0
BBX 12 12 0 -2
BITMAP
0000
0000
0200
0500
0880
1dc0
0cc0
0cc0
0cc0
0cc0
0760
0000
ENDCHAR
STARTCHAR 01-09-81
ENCODING 10609
SWIDTH 960 0
DWIDTH 12 0
BBX 12 12 0 -2
BITMAP
0000
0000
0d80
0d80
0000
1dc0
0cc0
0cc0
0cc0
0cc0
0760
0000
ENDCHAR
STARTCHAR 01-09-82
ENCODING 10610
SWIDTH 960 0
DWIDTH 12 0
BBX 12 12 0 -2
BITMAP
0000
0000
0080
0100
0200
1ce0
0c40
0680
0780
0300
1a00
1c00
ENDCHAR
STARTCHAR 01-09-83
ENCODING 10611
SWIDTH 960 0
DWIDTH 12 0
BBX 12 12 0 -2
BITMAP
0000
1c00
0c00
0c00
0c00
0f80
0cc0
0cc0
0cc0
0f80
0c00
1e00
ENDCHAR
STARTCHAR 01-09-84
ENCODING 10612
SWIDTH 960 0
DWIDTH 12 0
BBX 12 12 0 -2
BITMAP
0000
0000
0d80
0d80
0000
1ce0
0c40
0680
0780
0300
1a00
1c00
ENDCHAR
STARTCHAR 01-09-85
ENCODING 10613
SWIDTH 960 0
DWIDTH 12 0
BBX 12 12 0 -2
BITMAP
0000
0f80
0000
0300
0700
0580
0980
1f80
10c0
30c0
78e0
0000
ENDCHAR
STARTCHAR 01-09-86
ENCODING 10614
SWIDTH 960 0
DWIDTH 12 0
BBX 12 12 0 -2
BITMAP
0000
0f00
0000
0f00
0600
0600
0600
0600
0600
0600
0f00
0000
ENDCHAR
STARTCHAR 01-09-87
ENCODING 10615
SWIDTH 960 0
DWIDTH 12 0
BBX 12 12 0 -2
BITMAP
0000
0f80
0000
3ce0
1840
1840
1840
1840
1840
0cc0
0700
0000
ENDCHAR
STARTCHAR 01-09-88
ENCODING 10616
SWIDTH 960 0
DWIDTH 12 0
BBX 12 12 0 -2
BITMAP
0000
0f80
0000
3fc0
1820
1900
1f00
1900
1820
1840
3fc0
0000
ENDCHAR
STARTCHAR 01-09-89
ENCODING 10617
SWIDTH 960 0
DWIDTH 12 0
BBX 12 12 0 -2
BITMAP
0000
0f80
0000
0700
18c0
3060
3060
3060
3060
18c0
0700
0000
ENDCHAR
STARTCHAR 01-09-90
ENCODING 10618
SWIDTH 960 0
DWIDTH 12 0
BBX 12 12 0 -2
BITMAP
0000
0000
0000
0f00
0000
0f00
0180
0f80
1980
1980
0ec0
0000
ENDCHAR
STARTCHAR 01-09-91
ENCODING 10619
SWIDTH 960 0
DWIDTH 12 0
BBX 12 12 0 -2
BITMAP
0000
0000
0000
0f00
0000
0e00
0600
0600
0600
0600
0f00
0000
ENDCHAR
STARTCHAR 01-09-92
ENCODING 10620
SWIDTH 960 0
DWIDTH 12 0
BBX 12 12 0 -2
BITMAP
0000
0000
0000
0f80
0000
1dc0
0cc0
0cc0
0cc0
0cc0
0760
0000
ENDCHAR
STARTCHAR 01-09-93
ENCODING 10621
SWIDTH 960 0
DWIDTH 12 0
BBX 12 12 0 -2
BITMAP
0000
0000
0000
0f80
0000
0f80
18c0
1fc0
1800
1840
0f80
0000
ENDCHAR
STARTCHAR 01-09-94
ENCODING 10622
SWIDTH 960 0
DWIDTH 12 0
BBX 12 12 0 -2
BITMAP
0000
0000
0000
0f80
0000
0700
0880
18c0
18c0
0880
0700
0000
ENDCHAR
STARTCHAR 01-10-01
ENCODING 10785
SWIDTH 960 0
DWIDTH 12 0
BBX 12 12 0 -2
BITMAP
0000
0200
0200
0700
0700
0980
0f80
1980
10c0
78e0
0040
0030
ENDCHAR
STARTCHAR 01-10-02
ENCODING 10786
SWIDTH 960 0
DWIDTH 12 0
BBX 12 12 0 -2
BITMAP
0000
0840
0840
0780
0000
0000
0000
0000
0000
0000
0000
0000
ENDCHAR
STARTCHAR 01-10-03
ENCODING 10787
SWIDTH 960 0
DWIDTH 12 0
BBX 12 12 0 -2
BITMAP
0000
3800
1800
1800
1a00
1c00
3800
5800
1820
1840
3fc0
0000
ENDCHAR
STARTCHAR 01-10-04
ENCODING 10788
SWIDTH 960 0
DWIDTH 12 0
BBX 12 12 0 -2
BITMAP
0000
3c40
1a80
1900
1800
1800
1800
1800
1820
1840
3fc0
0000
ENDCHAR
STARTCHAR 01-10-05
ENCODING 10789
SWIDTH 960 0
DWIDTH 12 0
BBX 12 12 0 -2
BITMAP
0000
0200
0400
0680
0980
1880
1e00
0780
11c0
1880
1700
0000
ENDCHAR
STARTCHAR 01-10-06
ENCODING 10790
SWIDTH 960 0
DWIDTH 12 0
BBX 12 12 0 -2
BITMAP
0000
0880
0500
0680
0980
1880
1e00
0780
11c0
1880
1700
0000
ENDCHAR
STARTCHAR 01-10-07
ENCODING 10791
SWIDTH 960 0
DWIDTH 12 0
BBX 12 12 0 -2
BITMAP
0000
0680
0980
1880
1c00
0f80
03c0
10c0
1880
1700
0200
0c00
ENDCHAR
STARTCHAR 01-10-08
ENCODING 10792
SWIDTH 960 0
DWIDTH 12 0
BBX 12 12 0 -2
BITMAP
0000
0880
0500
3fc0
2640
4620
0600
0600
0600
0600
0f00
0000
ENDCHAR
STARTCHAR 01-10-09
ENCODING 10793
SWIDTH 960 0
DWIDTH 12 0
BBX 12 12 0 -2
BITMAP
0000
0100
0200
1fc0
1180
2300
0600
0c00
0820
1840
3fc0
0000
ENDCHAR
STARTCHAR 01-10-10
ENCODING 10794
SWIDTH 960 0
DWIDTH 12 0
BBX 12 12 0 -2
BITMAP
0000
0880
0500
1fc0
1180
2300
0600
0c00
0820
1840
3fc0
0000
ENDCHAR
STARTCHAR 01-10-11
ENCODING 10795
SWIDTH 960 0
DWIDTH 12 0
BBX 12 12 0 -2
BITMAP
0000
0600
0600
1fc0
1180
2300
0600
0c00
0820
1840
3fc0
0000
ENDCHAR
STARTCHAR 01-10-12
ENCODING 10796
SWIDTH 960 0
DWIDTH 12 0
BBX 12 12 0 -2
BITMAP
0000
0000
0000
0000
0000
0f00
0180
0f80
1980
1980
0e80
0060
ENDCHAR
STARTCHAR 01-10-13
ENCODING 10797
SWIDTH 960 0
DWIDTH 12 0
BBX 12 12 0 -2
BITMAP
0000
0000
0000
0000
0000
0000
0000
0080
0100
0100
00c0
00c0
ENDCHAR
STARTCHAR 01-10-14
ENCODING 10798
SWIDTH 960 0
DWIDTH 12 0
BBX 12 12 0 -2
BITMAP
0000
0e00
0600
0600
0680
0700
0e00
1600
0600
0600
0f00
0000
ENDCHAR
STARTCHAR 01-10-15
ENCODING 10799
SWIDTH 960 0
DWIDTH 12 0
BBX 12 12 0 -2
BITMAP
0000
0880
0500
0e00
0600
0600
0600
0600
0600
0600
0f00
0000
ENDCHAR
STARTCHAR 01-10-16
ENCODING 10800
SWIDTH 960 0
DWIDTH 12 0
BBX 12 12 0 -2
BITMAP
0000
0000
0100
0200
0400
0fc0
18c0
0e00
0380
18c0
2f80
0000
ENDCHAR
STARTCHAR 01-10-17
ENCODING 10801
SWIDTH 960 0
DWIDTH 12 0
BBX 12 12 0 -2
BITMAP
0000
0880
0500
0200
0000
0000
0000
0000
0000
0000
0000
0000
ENDCHAR
STARTCHAR 01-10-18
ENCODING 10802
SWIDTH 960 0
DWIDTH 12 0
BBX 12 12 0 -2
BITMAP
0000
0000
0880
0500
0200
0fc0
18c0
0e00
0380
18c0
2f80
0000
ENDCHAR
STARTCHAR 01-10-19
ENCODING 10803
SWIDTH 960 0
DWIDTH 12 0
BBX 12 12 0 -2
BITMAP
0000
0000
0000
0000
0fc0
18c0
0e00
0380
18c0
2f80
0100
0600
ENDCHAR
STARTCHAR 01-10-20
ENCODING 10804
SWIDTH 960 0
DWIDTH 12 0
BBX 12 12 0 -2
BITMAP
0000
0880
0500
0200
0600
1f80
0600
0600
0600
0640
0380
0000
ENDCHAR
STARTCHAR 01-10-21
ENCODING 10805
SWIDTH 960 0
DWIDTH 12 0
BBX 12 12 0 -2
BITMAP
0000
0000
0100
0200
0400
0fc0
1180
0300
0600
0c40
1f80
0000
ENDCHAR
STARTCHAR 01-10-22
ENCODING 10806
SWIDTH 960 0
DWIDTH 12 0
BBX 12 12 0 -2
BITMAP
0000
0280
0500
0a00
0000
0000
0000
0000
0000
0000
0000
0000
ENDCHAR
STARTCHAR 01-10-23
ENCODING 10807
SWIDTH 960 0
DWIDTH 12 0
BBX 12 12 0 -2
BITMAP
0000
0000
0880
0500
0200
0fc0
1180
0300
0600
0c40
1f80
0000
ENDCHAR
STARTCHAR 01-10-24
ENCODING 10808
SWIDTH 960 0
DWIDTH 12 0
BBX 12 12 0 -2
BITMAP
0000
0000
0600
0600
0000
0fc0
1180
0300
0600
0c40
1f80
0000
ENDCHAR
STARTCHAR 01-10-25
ENCODING 10809
SWIDTH 960 0
DWIDTH 12 0
BBX 12 12 0 -2
BITMAP
0000
0100
0200
3fc0
1860
1860
1fc0
1980
18c0
18c0
3ce0
0000
ENDCHAR
STARTCHAR 01-10-26
ENCODING 10810
SWIDTH 960 0
DWIDTH 12 0
BBX 12 12 0 -2
BITMAP
0000
0900
0600
0000
0700
0580
0980
1f80
10c0
30c0
78e0
0000
ENDCHAR
STARTCHAR 01-10-27
ENCODING 10811
SWIDTH 960 0
DWIDTH 12 0
BBX 12 12 0 -2
BITMAP
0000
0080
3d00
1a00
1800
1800
1800
1800
1820
1840
3fc0
0000
ENDCHAR
STARTCHAR 01-10-28
ENCODING 10812
SWIDTH 960 0
DWIDTH 12 0
BBX 12 12 0 -2
BITMAP
0000
0200
0400
0740
08c0
1840
3000
3000
1840
08c0
0700
0000
ENDCHAR
STARTCHAR 01-10-29
ENCODING 10813
SWIDTH 960 0
DWIDTH 12 0
BBX 12 12 0 -2
BITMAP
0000
0880
0500
0740
08c0
1840
3000
3000
1840
08c0
0700
0000
ENDCHAR
STARTCHAR 01-10-30
ENCODING 10814
SWIDTH 960 0
DWIDTH 12 0
BBX 12 12 0 -2
BITMAP
0000
3fc0
1820
1800
1900
1f00
1900
1820
1840
3fc0
0080
0060
ENDCHAR
STARTCHAR 01-10-31
ENCODING 10815
SWIDTH 960 0
DWIDTH 12 0
BBX 12 12 0 -2
BITMAP
0000
0880
0500
3fc0
1820
1900
1f00
1900
1820
1840
3fc0
0000
ENDCHAR
STARTCHAR 01-10-32
ENCODING 10816
SWIDTH 960 0
DWIDTH 12 0
BBX 12 12 0 -2
BITMAP
0000
0880
0500
3f00
1880
1840
1860
1860
1840
1880
3f00
0000
ENDCHAR
STARTCHAR 01-10-33
ENCODING 10817
SWIDTH 960 0
DWIDTH 12 0
BBX 12 12 0 -2
BITMAP
0000
0100
32e0
1c40
1c40
1640
1740
1340
11c0
10c0
3840
0000
ENDCHAR
STARTCHAR 01-10-34
ENCODING 10818
SWIDTH 960 0
DWIDTH 12 0
BBX 12 12 0 -2
BITMAP
0000
0c80
3360
1840
1c40
1640
1740
1340
11c0
10c0
3840
0000
ENDCHAR
STARTCHAR 01-10-35
ENCODING 10819
SWIDTH 960 0
DWIDTH 12 0
BBX 12 12 0 -2
BITMAP
0000
0480
0900
0700
18c0
3060
3060
3060
3060
18c0
0700
0000
ENDCHAR
STARTCHAR 01-10-36
ENCODING 10820
SWIDTH 960 0
DWIDTH 12 0
BBX 12 12 0 -2
BITMAP
0000
0880
0500
3fc0
1860
1860
1fc0
1980
18c0
18c0
3ce0
0000
ENDCHAR
STARTCHAR 01-10-37
ENCODING 10821
SWIDTH 960 0
DWIDTH 12 0
BBX 12 12 0 -2
BITMAP
0000
0300
0480
3ce0
1b40
1840
1840
1840
1840
0cc0
0700
0000
ENDCHAR
STARTCHAR 01-10-38
ENCODING 10822
SWIDTH 960 0
DWIDTH 12 0
BBX 12 12 0 -2
BITMAP
0000
0480
0900
3ce0
1840
1840
1840
1840
1840
0cc0
0700
0000
ENDCHAR
STARTCHAR 01-10-39
ENCODING 10823
SWIDTH 960 0
DWIDTH 12 0
BBX 12 12 0 -2
BITMAP
0000
3fc0
2640
4620
0600
0600
0600
0600
0600
0f00
0400
1800
ENDCHAR
STARTCHAR 01-10-40
ENCODING 10824
SWIDTH 960 0
DWIDTH 12 0
BBX 12 12 0 -2
BITMAP
0000
0000
0100
0200
0400
1bc0
0cc0
0c00
0c00
0c00
1e00
0000
ENDCHAR
STARTCHAR 01-10-41
ENCODING 10825
SWIDTH 960 0
DWIDTH 12 0
BBX 12 12 0 -2
BITMAP
0000
0000
0900
0600
0000
0f00
0180
0f80
1980
1980
0ec0
0000
ENDCHAR
STARTCHAR 01-10-42
ENCODING 10826
SWIDTH 960 0
DWIDTH 12 0
BBX 12 12 0 -2
BITMAP
0000
0200
0400
0e00
0600
0600
0600
0600
0600
0600
0f00
0000
ENDCHAR
STARTCHAR 01-10-43
ENCODING 10827
SWIDTH 960 0
DWIDTH 12 0
BBX 12 12 0 -2
BITMAP
0000
0000
0100
0200
0400
0f80
1880
1800
1800
1880
0f00
0000
ENDCHAR
STARTCHAR 01-10-44
ENCODING 10828
SWIDTH 960 0
DWIDTH 12 0
BBX 12 12 0 -2
BITMAP
0000
0000
0880
0500
0200
0f80
1880
1800
1800
1880
0f00
0000
ENDCHAR
STARTCHAR 01-10-45
ENCODING 10829
SWIDTH 960 0
DWIDTH 12 0
BBX 12 12 0 -2
BITMAP
0000
0000
0000
0000
0000
0f80
18c0
1fc0
1800
1840
0f80
00e0
ENDCHAR
STARTCHAR 01-10-46
ENCODING 10830
SWIDTH 960 0
DWIDTH 12 0
BBX 12 12 0 -2
BITMAP
0000
0000
0880
0500
0200
0f80
18c0
1fc0
1800
1840
0f80
0000
ENDCHAR
STARTCHAR 01-10-47
ENCODING 10831
SWIDTH 960 0
DWIDTH 12 0
BBX 12 12 0 -2
BITMAP
0000
1100
0a00
0780
0180
0f80
1980
1980
1980
1980
0fc0
0000
ENDCHAR
STARTCHAR 01-10-48
ENCODING 10832
SWIDTH 960 0
DWIDTH 12 0
BBX 12 12 0 -2
BITMAP
0000
0380
0180
0fc0
0180
0f80
1980
1980
1980
1980
0fc0
0000
ENDCHAR
STARTCHAR 01-10-49
ENCODING 10833
SWIDTH 960 0
DWIDTH 12 0
BBX 12 12 0 -2
BITMAP
0000
0000
0100
0200
0400
1b80
0cc0
0cc0
0cc0
0cc0
1ce0
0000
ENDCHAR
STARTCHAR 01-10-50
ENCODING 10834
SWIDTH 960 0
DWIDTH 12 0
BBX 12 12 0 -2
BITMAP
0000
0000
0880
0500
0200
1b80
0cc0
0cc0
0cc0
0cc0
1ce0
0000
ENDCHAR
STARTCHAR 01-10-51
ENCODING 10835
SWIDTH 960 0
DWIDTH 12 0
BBX 12 12 0 -2
BITMAP
0000
0000
0480
0900
1200
0700
0880
18c0
18c0
0880
0700
0000
ENDCHAR
STARTCHAR 01-10-52
ENCODING 10836
SWIDTH 960 0
DWIDTH 12 0
BBX 12 12 0 -2
BITMAP
0000
0000
0880
0500
0200
1bc0
0cc0
0c00
0c00
0c00
1e00
0000
ENDCHAR
STARTCHAR 01-10-53
ENCODING 10837
SWIDTH 960 0
DWIDTH 12 0
BBX 12 12 0 -2
BITMAP
0000
0000
0880
0500
0200
1dc0
0cc0
0cc0
0cc0
0cc0
0760
0000
ENDCHAR
STARTCHAR 01-10-54
ENCODING 10838
SWIDTH 960 0
DWIDTH 12 0
BBX 12 12 0 -2
BITMAP
0000
0000
0480
0900
1200
1dc0
0cc0
0cc0
0cc0
0cc0
0760
0000
ENDCHAR
STARTCHAR 01-10-55
ENCODING 10839
SWIDTH 960 0
DWIDTH 12 0
BBX 12 12 0 -2
BITMAP
0000
0000
0200
0600
0600
1f80
0600
0600
0640
0380
0200
0c00
ENDCHAR
STARTCHAR 01-10-56
ENCODING 10840
SWIDTH 960 0
DWIDTH 12 0
BBX 12 12 0 -2
BITMAP
0000
0600
0600
0000
0000
0000
0000
0000
0000
0000
0000
0000
ENDCHAR
STARTCHAR 01-10-57
ENCODING 10841
SWIDTH 960 0
DWIDTH 12 0
BBX 12 12 0 -2
BITMAP
0000
0200
0500
0880
0f40
18c0
3040
3000
1840
08c0
0700
0000
ENDCHAR
STARTCHAR 01-10-58
ENCODING 10842
SWIDTH 960 0
DWIDTH 12 0
BBX 12 12 0 -2
BITMAP
0000
0200
0500
0880
0f40
18c0
3000
31e0
18c0
08c0
0740
0000
ENDCHAR
STARTCHAR 01-10-59
ENCODING 10843
SWIDTH 960 0
DWIDTH 12 0
BBX 12 12 0 -2
BITMAP
0000
0200
0500
38e0
18c0
18c0
1fc0
18c0
18c0
18c0
38e0
0000
ENDCHAR
STARTCHAR 01-10-60
ENCODING 10844
SWIDTH 960 0
DWIDTH 12 0
BBX 12 12 0 -2
BITMAP
0000
0200
0500
09c0
0180
0180
0180
0180
1180
1900
0e00
0000
ENDCHAR
STARTCHAR 01-10-61
ENCODING 10845
SWIDTH 960 0
DWIDTH 12 0
BBX 12 12 0 -2
BITMAP
0000
0200
0500
0e80
0980
1880
1e00
0780
11c0
1880
1700
0000
ENDCHAR
STARTCHAR 01-10-62
ENCODING 10846
SWIDTH 960 0
DWIDTH 12 0
BBX 12 12 0 -2
BITMAP
0000
0900
0600
38e0
1840
1840
1840
1840
1840
0cc0
0700
0000
ENDCHAR
STARTCHAR 01-10-63
ENCODING 10847
SWIDTH 960 0
DWIDTH 12 0
BBX 12 12 0 -2
BITMAP
0000
0000
0200
0500
0880
0f80
1880
1800
1800
1880
0f00
0000
ENDCHAR
STARTCHAR 01-10-64
ENCODING 10848
SWIDTH 960 0
DWIDTH 12 0
BBX 12 12 0 -2
BITMAP
0000
0000
0200
0500
08c0
0f80
1980
1900
0e00
1f80
10c0
0f80
ENDCHAR
STARTCHAR 01-10-65
ENCODING 10849
SWIDTH 960 0
DWIDTH 12 0
BBX 12 12 0 -2
BITMAP
0000
1d00
0e80
0c40
0c00
0f80
0cc0
0cc0
0cc0
0cc0
1ce0
0000
ENDCHAR
STARTCHAR 01-10-66
ENCODING 10850
SWIDTH 960 0
DWIDTH 12 0
BBX 12 12 0 -2
BITMAP
0000
0000
0200
0500
0880
0700
0300
0300
0300
0300
2200
3c00
ENDCHAR
STARTCHAR 01-10-67
ENCODING 10851
SWIDTH 960 0
DWIDTH 12 0
BBX 12 12 0 -2
BITMAP
0000
0000
0200
0500
0880
0fc0
18c0
0e00
0380
18c0
2f80
0000
ENDCHAR
STARTCHAR 01-10-68
ENCODING 10852
SWIDTH 960 0
DWIDTH 12 0
BBX 12 12 0 -2
BITMAP
0000
0000
0900
0600
0000
1dc0
0cc0
0cc0
0cc0
0cc0
0760
0000
ENDCHAR
STARTCHAR 01-10-69
ENCODING 10853
SWIDTH 960 0
DWIDTH 12 0
BBX 12 12 0 -2
BITMAP
0000
0000
0000
0000
0000
36c0
1b60
1b60
1b60
1b60
3b60
00c0
ENDCHAR
STARTCHAR 01-10-70
ENCODING 10854
SWIDTH 960 0
DWIDTH 12 0
BBX 12 12 0 -2
BITMAP
0000
0000
0000
0000
0000
1dc0
0cc0
0cc0
0cc0
0c80
0700
0000
ENDCHAR
STARTCHAR 01-10-71
ENCODING 10855
SWIDTH 960 0
DWIDTH 12 0
BBX 12 12 0 -2
BITMAP
0000
0000
0000
0000
0000
0380
06c0
06c0
0600
0600
0f00
0000
ENDCHAR
STARTCHAR 01-10-72
ENCODING 10856
SWIDTH 960 0
DWIDTH 12 0
BBX 12 12 0 -2
BITMAP
0000
0380
06c0
0600
0600
0600
0600
0600
0600
0600
3600
1c00
ENDCHAR
STARTCHAR 01-10-73
ENCODING 10857
SWIDTH 960 0
DWIDTH 12 0
BBX 12 12 0 -2
BITMAP
0000
0000
0000
0000
0000
1f80
1300
0600
0700
3180
3180
1f00
ENDCHAR
STARTCHAR 01-10-74
ENCODING 10858
SWIDTH 960 0
DWIDTH 12 0
BBX 12 12 0 -2
BITMAP
0000
0e00
0600
0600
0e00
1600
1600
0fc0
0600
0600
0f00
0000
ENDCHAR
STARTCHAR 01-10-75
ENCODING 10859
SWIDTH 960 0
DWIDTH 12 0
BBX 12 12 0 -2
BITMAP
0000
3800
1800
1800
1800
1fc0
1980
1b00
1b80
18c0
3cc0
0f80
ENDCHAR
STARTCHAR 01-10-76
ENCODING 10860
SWIDTH 960 0
DWIDTH 12 0
BBX 12 12 0 -2
BITMAP
0000
0000
0000
0000
0000
0780
0300
0300
0300
3300
3d80
0000
ENDCHAR
STARTCHAR 01-10-77
ENCODING 10861
SWIDTH 960 0
DWIDTH 12 0
BBX 12 12 0 -2
BITMAP
0000
0000
0200
0600
0600
1f80
0600
0600
0600
0600
0640
0380
ENDCHAR
STARTCHAR 01-10-78
ENCODING 10862
SWIDTH 960 0
DWIDTH 12 0
BBX 12 12 0 -2
BITMAP
0000
0380
0180
0180
0180
0f80
1980
1980
1980
1980
0fa0
00e0
ENDCHAR
STARTCHAR 01-10-79
ENCODING 10863
SWIDTH 960 0
DWIDTH 12 0
BBX 12 12 0 -2
BITMAP
0000
0000
0000
0000
0000
3700
1980
1980
1980
1980
39a0
00e0
ENDCHAR
STARTCHAR 01-10-80
ENCODING 10864
SWIDTH 960 0
DWIDTH 12 0
BBX 12 12 0 -2
BITMAP
0000
0000
0000
0000
0000
1bc0
0cc0
0c00
0c00
0c00
0d00
0700
ENDCHAR
STARTCHAR 01-10-81
ENCODING 10865
SWIDTH 960 0
DWIDTH 12 0
BBX 12 12 0 -2
BITMAP
0000
0000
0000
0000
0fc0
18c0
0e00
0380
18c0
1f80
1000
0c00
ENDCHAR
STARTCHAR 01-10-82
ENCODING 10866
SWIDTH 960 0
DWIDTH 12 0
BBX 12 12 0 -2
BITMAP
0000
0000
0000
0000
0000
0fc0
1180
0300
0600
0c40
1f80
0060
ENDCHAR
STARTCHAR 01-10-83
ENCODING 10867
SWIDTH 960 0
DWIDTH 12 0
BBX 12 12 0 -2
BITMAP
0000
0000
0000
0000
0000
0780
0300
0300
0300
3300
3d40
00c0
ENDCHAR
STARTCHAR 01-10-84
ENCODING 10868
SWIDTH 960 0
DWIDTH 12 0
BBX 12 12 0 -2
BITMAP
0000
0e00
0600
0600
0600
0600
0600
0600
0600
0600
0680
0380
ENDCHAR
STARTCHAR 01-10-85
ENCODING 10869
SWIDTH 960 0
DWIDTH 12 0
BBX 12 12 0 -2
BITMAP
0000
0000
0000
0000
0000
0f80
0300
0300
0f80
0300
2200
3c00
ENDCHAR
STARTCHAR 01-10-86
ENCODING 10870
SWIDTH 960 0
DWIDTH 12 0
BBX 12 12 0 -2
BITMAP
0000
0000
0000
0000
0000
1b80
0cc0
0cc0
0cc0
0cc0
2ce0
3800
ENDCHAR
STARTCHAR 01-10-87
ENCODING 10871
SWIDTH 960 0
DWIDTH 12 0
BBX 12 12 0 -2
BITMAP
0000
0200
0700
0200
0000
0700
0300
0300
0300
1f80
1200
0c00
ENDCHAR
STARTCHAR 01-10-88
ENCODING 10872
SWIDTH 960 0
DWIDTH 12 0
BBX 12 12 0 -2
BITMAP
0000
0000
0000
00e0
0160
0300
0380
0780
05c0
08c0
1ce0
0000
ENDCHAR
STARTCHAR 01-10-89
ENCODING 10873
SWIDTH 960 0
DWIDTH 12 0
BBX 12 12 0 -2
BITMAP
0000
0000
0000
0000
0000
0f40
18c0
18c0
08c0
07c0
0880
0f00
ENDCHAR
STARTCHAR 01-10-90
ENCODING 10874
SWIDTH 960 0
DWIDTH 12 0
BBX 12 12 0 -2
BITMAP
0000
0000
0000
0000
0000
1b80
0cc0
0cc0
0cc0
0cc0
1c80
0300
ENDCHAR
STARTCHAR 01-10-91
ENCODING 10875
SWIDTH 960 0
DWIDTH 12 0
BBX 12 12 0 -2
BITMAP
0000
0000
0000
0000
0000
3b70
1b60
1b60
1b60
1b60
0de0
0070
ENDCHAR
STARTCHAR 01-10-92
ENCODING 10876
SWIDTH 960 0
DWIDTH 12 0
BBX 12 12 0 -2
BITMAP
0000
0000
0000
0000
1cc0
0dc0
0f80
0cc0
0cc0
0cc0
0b80
0000
ENDCHAR
STARTCHAR 01-10-93
ENCODING 10877
SWIDTH 960 0
DWIDTH 12 0
BBX 12 12 0 -2
BITMAP
0000
1c00
0c00
1f00
0c00
0f80
0cc0
0cc0
0cc0
0cc0
1ce0
0000
ENDCHAR
STARTCHAR 01-10-94
ENCODING 10878
SWIDTH 960 0
DWIDTH 12 0
BBX 12 12 0 -2
BITMAP
0000
0f00
1880
30c0
30c0
1800
0e00
0600
0600
0600
0f00
0000
ENDCHAR
STARTCHAR 01-11-01
ENCODING 11041
SWIDTH 960 0
DWIDTH 12 0
BBX 12 12 0 -2
BITMAP
0000
0f00
1180
30c0
30c0
0180
0700
0600
0600
0600
0f00
0000
ENDCHAR
STARTCHAR 01-11-02
ENCODING 11042
SWIDTH 960 0
DWIDTH 12 0
BBX 12 12 0 -2
BITMAP
0000
03c0
0440
0c00
0c00
0f80
0cc0
0cc0
0cc0
0cc0
1ce0
0000
ENDCHAR
STARTCHAR 01-11-03
ENCODING 11043
SWIDTH 960 0
DWIDTH 12 0
BBX 12 12 0 -2
BITMAP
0000
0000
0000
0700
0880
1040
1240
1240
1040
0880
0700
0000
ENDCHAR
STARTCHAR 01-11-04
ENCODING 11044
SWIDTH 960 0
DWIDTH 12 0
BBX 12 12 0 -2
BITMAP
0000
0000
0200
0200
0f80
0200
0200
0f80
0200
0200
0200
0000
ENDCHAR
STARTCHAR 01-11-05
ENCODING 11045
SWIDTH 960 0
DWIDTH 12 0
BBX 12 12 0 -2
BITMAP
0000
03c0
0440
0c00
0c00
0f80
0cc0
0cc0
0cc0
0cc0
1f80
0000
ENDCHAR
STARTCHAR 01-11-06
ENCODING 11046
SWIDTH 960 0
DWIDTH 12 0
BBX 12 12 0 -2
BITMAP
0000
00e0
01a0
0180
0180
0f80
1980
1980
1980
1980
0fc0
0000
ENDCHAR
STARTCHAR 01-11-07
ENCODING 11047
SWIDTH 960 0
DWIDTH 12 0
BBX 12 12 0 -2
BITMAP
0000
0000
0000
0000
01c0
02c0
0600
0600
0600
0f00
2600
3c00
ENDCHAR
STARTCHAR 01-11-08
ENCODING 11048
SWIDTH 960 0
DWIDTH 12 0
BBX 12 12 0 -2
BITMAP
0000
0000
0000
0020
0050
0f40
18c0
18c0
08c0
07c0
0880
0f00
ENDCHAR
STARTCHAR 01-11-09
ENCODING 11049
SWIDTH 960 0
DWIDTH 12 0
BBX 12 12 0 -2
BITMAP
0000
0720
08d0
1840
3000
3000
31e0
30c0
18c0
08c0
0740
0000
ENDCHAR
STARTCHAR 01-11-10
ENCODING 11050
SWIDTH 960 0
DWIDTH 12 0
BBX 12 12 0 -2
BITMAP
0000
0000
0000
0000
0000
3dc0
6660
67e0
6600
6620
3dc0
0000
ENDCHAR
STARTCHAR 01-11-11
ENCODING 11051
SWIDTH 960 0
DWIDTH 12 0
BBX 12 12 0 -2
BITMAP
0000
1bc0
2620
2600
6640
67c0
6640
6600
2620
2640
1bc0
0000
ENDCHAR
STARTCHAR 01-11-12
ENCODING 11052
SWIDTH 960 0
DWIDTH 12 0
BBX 12 12 0 -2
BITMAP
0000
0200
0700
0200
0000
0e00
0600
1f80
0600
0600
0f00
0000
ENDCHAR
STARTCHAR 01-11-13
ENCODING 11053
SWIDTH 960 0
DWIDTH 12 0
BBX 12 12 0 -2
BITMAP
0000
0000
0000
0000
0000
1dc0
0cc0
3fe0
0cc0
0cc0
0760
0000
ENDCHAR
STARTCHAR 01-11-14
ENCODING 11054
SWIDTH 960 0
DWIDTH 12 0
BBX 12 12 0 -2
BITMAP
0000
0000
0000
0000
0000
0f80
18c0
1fc0
00c0
10c0
0f80
0000
ENDCHAR
STARTCHAR 01-11-15
ENCODING 11055
SWIDTH 960 0
DWIDTH 12 0
BBX 12 12 0 -2
BITMAP
0000
0000
0000
0000
0000
0f80
18c0
1fc0
18c0
18c0
0f80
0000
ENDCHAR
STARTCHAR 01-11-16
ENCODING 11056
SWIDTH 960 0
DWIDTH 12 0
BBX 12 12 0 -2
BITMAP
0000
0000
0000
0000
0000
0f80
10c0
00c0
1fc0
18c0
0f80
0000
ENDCHAR
STARTCHAR 01-11-17
ENCODING 11057
SWIDTH 960 0
DWIDTH 12 0
BBX 12 12 0 -2
BITMAP
0000
0000
0000
0000
0000
0f80
10c0
0380
00c0
10c0
0f80
0000
ENDCHAR
STARTCHAR 01-11-18
ENCODING 11058
SWIDTH 960 0
DWIDTH 12 0
BBX 12 12 0 -2
BITMAP
0000
0000
0000
0000
0000
0f80
10c0
1380
10c0
10c0
0f80
0000
ENDCHAR
STARTCHAR 01-11-19
ENCODING 11059
SWIDTH 960 0
DWIDTH 12 0
BBX 12 12 0 -2
BITMAP
0000
0000
0000
0000
0000
1b80
0cc0
0cc0
0f80
0c00
0780
0000
ENDCHAR
STARTCHAR 01-11-20
ENCODING 11060
SWIDTH 960 0
DWIDTH 12 0
BBX 12 12 0 -2
BITMAP
0000
0000
0000
0000
0000
3b70
1b60
1b60
1b60
1b60
0db0
0000
ENDCHAR
STARTCHAR 01-11-21
ENCODING 11061
SWIDTH 960 0
DWIDTH 12 0
BBX 12 12 0 -2
BITMAP
0000
0000
0000
0000
0000
1dc0
1540
0880
18c0
18c0
0f80
0000
ENDCHAR
STARTCHAR 01-11-22
ENCODING 11062
SWIDTH 960 0
DWIDTH 12 0
BBX 12 12 0 -2
BITMAP
0000
0000
0000
0000
39c0
1080
0900
0900
0600
0600
0600
0000
ENDCHAR
STARTCHAR 01-11-23
ENCODING 11063
SWIDTH 960 0
DWIDTH 12 0
BBX 12 12 0 -2
BITMAP
0000
0000
0000
0000
0000
0400
0600
0f00
0b00
1180
39c0
0000
ENDCHAR
STARTCHAR 01-11-24
ENCODING 11064
SWIDTH 960 0
DWIDTH 12 0
BBX 12 12 0 -2
BITMAP
0000
0000
0000
0000
0000
0f00
1180
0180
0180
1180
1f00
0000
ENDCHAR
STARTCHAR 01-11-25
ENCODING 11065
SWIDTH 960 0
DWIDTH 12 0
BBX 12 12 0 -2
BITMAP
0000
0000
0000
0000
0000
0e80
1980
1980
1980
1980
0ec0
0000
ENDCHAR
STARTCHAR 01-11-26
ENCODING 11066
SWIDTH 960 0
DWIDTH 12 0
BBX 12 12 0 -2
BITMAP
0000
0000
0000
0000
0000
3700
1980
1980
1980
1980
1700
0000
ENDCHAR
STARTCHAR 01-11-27
ENCODING 11067
SWIDTH 960 0
DWIDTH 12 0
BBX 12 12 0 -2
BITMAP
0000
0000
0000
0000
0000
0900
0d80
1dc0
1ec0
2660
7670
0000
ENDCHAR
STARTCHAR 01-11-28
ENCODING 11068
SWIDTH 960 0
DWIDTH 12 0
BBX 12 12 0 -2
BITMAP
0000
1ce0
0cc0
0cc0
0cc0
0cc0
07c0
00c0
00c0
00c0
00e0
0000
ENDCHAR
STARTCHAR 01-11-29
ENCODING 11069
SWIDTH 960 0
DWIDTH 12 0
BBX 12 12 0 -2
BITMAP
0000
0f00
1880
30c0
30c0
1800
0e00
0600
1f80
0600
0f00
0000
ENDCHAR
STARTCHAR 01-11-30
ENCODING 11070
SWIDTH 960 0
DWIDTH 12 0
BBX 12 12 0 -2
BITMAP
0000
0f00
1180
30c0
30c0
0180
0700
0600
1f80
0600
0f00
0000
ENDCHAR
STARTCHAR 01-11-31
ENCODING 11071
SWIDTH 960 0
DWIDTH 12 0
BBX 12 12 0 -2
BITMAP
0000
0000
0000
0000
0000
0f80
1880
1800
1b00
1c80
0f00
0800
ENDCHAR
STARTCHAR 01-11-32
ENCODING 11072
SWIDTH 960 0
DWIDTH 12 0
BBX 12 12 0 -2
BITMAP
0000
0000
0000
0000
0000
0fc0
1180
0300
06c0
0d40
1fc0
0200
ENDCHAR
STARTCHAR 01-11-33
ENCODING 11073
SWIDTH 960 0
DWIDTH 12 0
BBX 12 12 0 -2
BITMAP
0000
0780
0300
0300
0300
0300
0300
0300
0300
3300
3d80
0000
ENDCHAR
STARTCHAR 01-11-34
ENCODING 11074
SWIDTH 960 0
DWIDTH 12 0
BBX 12 12 0 -2
BITMAP
0000
03c0
0440
0c00
0c00
0f80
0cc0
0cc0
0cc0
0cc0
1cc0
0380
ENDCHAR
STARTCHAR 01-11-35
ENCODING 11075
SWIDTH 960 0
DWIDTH 12 0
BBX 12 12 0 -2
BITMAP
0000
0000
0000
0000
0000
0f20
11e0
07a0
1990
1180
0f00
0000
ENDCHAR
STARTCHAR 01-11-36
ENCODING 11076
SWIDTH 960 0
DWIDTH 12 0
BBX 12 12 0 -2
BITMAP
0000
0400
0200
0100
0000
3dc0
0720
3ff0
6700
6710
3de0
0000
ENDCHAR
STARTCHAR 01-11-37
ENCODING 11077
SWIDTH 960 0
DWIDTH 12 0
BBX 12 12 0 -2
BITMAP
0000
0100
0200
0400
0000
3dc0
0720
3ff0
6700
6710
3de0
0000
ENDCHAR
STARTCHAR 01-11-38
ENCODING 11078
SWIDTH 960 0
DWIDTH 12 0
BBX 12 12 0 -2
BITMAP
0000
0000
0400
0200
0100
0e80
1980
1980
1980
1980
0ec0
0000
ENDCHAR
STARTCHAR 01-11-39
ENCODING 11079
SWIDTH 960 0
DWIDTH 12 0
BBX 12 12 0 -2
BITMAP
0000
0000
0100
0200
0400
0e80
1980
1980
1980
1980
0ec0
0000
ENDCHAR
STARTCHAR 01-11-40
ENCODING 11080
SWIDTH 960 0
DWIDTH 12 0
BBX 12 12 0 -2
BITMAP
0000
0000
0400
0200
0100
0f00
1180
0180
0180
1180
1f00
0000
ENDCHAR
STARTCHAR 01-11-41
ENCODING 11081
SWIDTH 960 0
DWIDTH 12 0
BBX 12 12 0 -2
BITMAP
0000
0000
0100
0200
0400
0f00
1180
0180
0180
1180
1f00
0000
ENDCHAR
STARTCHAR 01-11-42
ENCODING 11082
SWIDTH 960 0
DWIDTH 12 0
BBX 12 12 0 -2
BITMAP
0000
0000
0400
0200
0100
0400
0600
0f00
0b00
1180
39c0
0000
ENDCHAR
STARTCHAR 01-11-43
ENCODING 11083
SWIDTH 960 0
DWIDTH 12 0
BBX 12 12 0 -2
BITMAP
0000
0000
0100
0200
0400
0400
0600
0f00
0b00
1180
39c0
0000
ENDCHAR
STARTCHAR 01-11-44
ENCODING 11084
SWIDTH 960 0
DWIDTH 12 0
BBX 12 12 0 -2
BITMAP
0000
0000
0400
0200
0100
0f80
10c0
00c0
1fc0
18c0
0f80
0000
ENDCHAR
STARTCHAR 01-11-45
ENCODING 11085
SWIDTH 960 0
DWIDTH 12 0
BBX 12 12 0 -2
BITMAP
0000
0000
0100
0200
0400
0f80
10c0
00c0
1fc0
18c0
0f80
0000
ENDCHAR
STARTCHAR 01-11-46
ENCODING 11086
SWIDTH 960 0
DWIDTH 12 0
BBX 12 12 0 -2
BITMAP
0000
0000
0400
0200
0100
0f20
11e0
07a0
1990
1180
0f00
0000
ENDCHAR
STARTCHAR 01-11-47
ENCODING 11087
SWIDTH 960 0
DWIDTH 12 0
BBX 12 12 0 -2
BITMAP
0000
0000
0100
0200
0400
0f20
11e0
07a0
1990
1180
0f00
0000
ENDCHAR
STARTCHAR 01-11-48
ENCODING 11088
SWIDTH 960 0
DWIDTH 12 0
BBX 12 12 0 -2
BITMAP
0000
0000
0400
0200
0100
0f80
1840
0f00
1800
1840
0780
0000
ENDCHAR
STARTCHAR 01-11-49
ENCODING 11089
SWIDTH 960 0
DWIDTH 12 0
BBX 12 12 0 -2
BITMAP
0000
0000
0100
0200
0400
0f80
1840
0f00
1800
1840
0780
0000
ENDCHAR
STARTCHAR 01-11-50
ENCODING 11090
SWIDTH 960 0
DWIDTH 12 0
BBX 12 12 0 -2
BITMAP
0000
0f80
1040
2020
0000
0000
0000
0000
0000
0000
0000
0000
ENDCHAR
STARTCHAR 01-11-51
ENCODING 11091
SWIDTH 960 0
DWIDTH 12 0
BBX 12 12 0 -2
BITMAP
0000
0200
0200
0200
0200
0000
0000
0000
0000
0000
0000
0000
ENDCHAR
STARTCHAR 01-11-52
ENCODING 11092
SWIDTH 960 0
DWIDTH 12 0
BBX 12 12 0 -2
BITMAP
0000
0000
0000
0000
0000
0000
0000
0000
0200
0200
0200
0200
ENDCHAR
STARTCHAR 01-11-53
ENCODING 11093
SWIDTH 960 0
DWIDTH 12 0
BBX 12 12 0 -2
BITMAP
0000
0000
0000
0000
0f80
0700
0200
0000
0200
0700
0f80
0000
ENDCHAR
STARTCHAR 01-11-54
ENCODING 11094
SWIDTH 960 0
DWIDTH 12 0
BBX 12 12 0 -2
BITMAP
0000
0000
0000
0000
0f80
0700
0200
0000
0000
0000
0000
0000
ENDCHAR
STARTCHAR 01-11-55
ENCODING 11095
SWIDTH 960 0
DWIDTH 12 0
BBX 12 12 0 -2
BITMAP
0000
0880
0880
0700
0000
0000
0000
0000
0000
0000
0000
0000
ENDCHAR
STARTCHAR 01-11-56
ENCODING 11096
SWIDTH 960 0
DWIDTH 12 0
BBX 12 12 0 -2
BITMAP
0000
0000
0000
0000
0000
0000
0000
0000
0000
2020
1040
0f80
ENDCHAR
STARTCHAR 01-11-57
ENCODING 11097
SWIDTH 960 0
DWIDTH 12 0
BBX 12 12 0 -2
BITMAP
0000
0480
0900
1200
0000
0000
0000
0000
0000
0000
0000
0000
ENDCHAR
STARTCHAR 01-11-58
ENCODING 11098
SWIDTH 960 0
DWIDTH 12 0
BBX 12 12 0 -2
BITMAP
0000
0100
0200
0400
0000
0000
0000
0000
0000
0000
0000
0000
ENDCHAR
STARTCHAR 01-11-59
ENCODING 11099
SWIDTH 960 0
DWIDTH 12 0
BBX 12 12 0 -2
BITMAP
0000
0f00
0000
0000
0000
0000
0000
0000
0000
0000
0000
0000
ENDCHAR
STARTCHAR 01-11-60
ENCODING 11100
SWIDTH 960 0
DWIDTH 12 0
BBX 12 12 0 -2
BITMAP
0000
0400
0200
0100
0000
0000
0000
0000
0000
0000
0000
0000
ENDCHAR
STARTCHAR 01-11-61
ENCODING 11101
SWIDTH 960 0
DWIDTH 12 0
BBX 12 12 0 -2
BITMAP
0000
1200
0900
0480
0000
0000
0000
0000
0000
0000
0000
0000
ENDCHAR
STARTCHAR 01-11-62
ENCODING 11102
SWIDTH 960 0
DWIDTH 12 0
BBX 12 12 0 -2
BITMAP
0000
0880
0500
0200
0000
0000
0000
0000
0000
0000
0000
0000
ENDCHAR
STARTCHAR 01-11-63
ENCODING 11103
SWIDTH 960 0
DWIDTH 12 0
BBX 12 12 0 -2
BITMAP
0000
0200
0500
0880
0000
0000
0000
0000
0000
0000
0000
0000
ENDCHAR
STARTCHAR 01-11-64
ENCODING 11104
SWIDTH 960 0
DWIDTH 12 0
BBX 12 12 0 -2
BITMAP
fe00
0200
0200
0200
0200
0200
0200
0200
0200
0200
0200
0200
ENDCHAR
STARTCHAR 01-11-65
ENCODING 11105
SWIDTH 960 0
DWIDTH 12 0
BBX 12 12 0 -2
BITMAP
0200
0200
0200
fe00
0200
0200
0200
0200
0200
0200
0200
0200
ENDCHAR
STARTCHAR 01-11-66
ENCODING 11106
SWIDTH 960 0
DWIDTH 12 0
BBX 12 12 0 -2
BITMAP
0200
0200
0200
0200
0200
0200
fe00
0200
0200
0200
0200
0200
ENDCHAR
STARTCHAR 01-11-67
ENCODING 11107
SWIDTH 960 0
DWIDTH 12 0
BBX 12 12 0 -2
BITMAP
0200
0200
0200
0200
0200
0200
0200
0200
fe00
0200
0200
0200
ENDCHAR
STARTCHAR 01-11-68
ENCODING 11108
SWIDTH 960 0
DWIDTH 12 0
BBX 12 12 0 -2
BITMAP
0200
0200
0200
0200
0200
0200
0200
0200
0200
0200
0200
fe00
ENDCHAR
STARTCHAR 01-11-69
ENCODING 11109
SWIDTH 960 0
DWIDTH 12 0
BBX 12 12 0 -2
BITMAP
0040
0040
00c0
0140
0140
0240
0440
0440
0840
1040
1040
2040
ENDCHAR
STARTCHAR 01-11-70
ENCODING 11110
SWIDTH 960 0
DWIDTH 12 0
BBX 12 12 0 -2
BITMAP
2040
1040
1040
0840
0440
0440
0240
0140
0140
00c0
0040
0040
ENDCHAR
STARTCHAR 01-11-71
ENCODING 11111
SWIDTH 960 0
DWIDTH 12 0
BBX 12 12 0 -2
BITMAP
0000
0000
0000
0000
0000
0000
0000
0000
0600
0900
0900
0600
ENDCHAR
STARTCHAR 01-11-72
ENCODING 11112
SWIDTH 960 0
DWIDTH 12 0
BBX 12 12 0 -2
BITMAP
0000
0000
0000
0000
0000
0000
0000
0000
0000
0880
0880
0700
ENDCHAR
STARTCHAR 01-11-73
ENCODING 11113
SWIDTH 960 0
DWIDTH 12 0
BBX 12 12 0 -2
BITMAP
0000
0000
0000
0000
0000
0000
0000
0000
0000
0300
0080
0300
ENDCHAR
STARTCHAR 01-11-74
ENCODING 11114
SWIDTH 960 0
DWIDTH 12 0
BBX 12 12 0 -2
BITMAP
0000
0000
0000
0000
0000
0000
0000
0000
0000
0300
0400
0300
ENDCHAR
STARTCHAR 01-11-75
ENCODING 11115
SWIDTH 960 0
DWIDTH 12 0
BBX 12 12 0 -2
BITMAP
0000
0000
0000
0000
0000
0000
0000
0000
0000
0200
0f80
0200
ENDCHAR
STARTCHAR 01-11-76
ENCODING 11116
SWIDTH 960 0
DWIDTH 12 0
BBX 12 12 0 -2
BITMAP
0000
0000
0000
0000
0000
0000
0000
0000
0000
0000
0f80
0000
ENDCHAR
STARTCHAR 01-11-77
ENCODING 11117
SWIDTH 960 0
DWIDTH 12 0
BBX 12 12 0 -2
BITMAP
0000
0d80
0d80
0000
0000
0000
0000
0000
0000
0000
0000
0000
ENDCHAR
STARTCHAR 01-11-78
ENCODING 11118
SWIDTH 960 0
DWIDTH 12 0
BBX 12 12 0 -2
BITMAP
0000
0d80
0200
0d80
0000
0000
0000
0000
0000
0000
0000
0000
ENDCHAR
STARTCHAR 01-11-79
ENCODING 11119
SWIDTH 960 0
DWIDTH 12 0
BBX 12 12 0 -2
BITMAP
0000
0000
0000
0000
0000
0000
0000
0000
0000
0200
0200
0200
ENDCHAR
STARTCHAR 01-11-80
ENCODING 11120
SWIDTH 960 0
DWIDTH 12 0
BBX 12 12 0 -2
BITMAP
0000
0000
0000
0000
0000
0000
0000
0000
0000
0700
0880
0880
ENDCHAR
STARTCHAR 01-11-81
ENCODING 11121
SWIDTH 960 0
DWIDTH 12 0
BBX 12 12 0 -2
BITMAP
0000
0000
0000
0000
0000
0700
0140
0140
0080
0000
0000
0000
ENDCHAR
STARTCHAR 01-11-82
ENCODING 11122
SWIDTH 960 0
DWIDTH 12 0
BBX 12 12 0 -2
BITMAP
0000
0000
0000
0000
0000
0000
0000
0000
0000
0000
0d80
0d80
ENDCHAR
STARTCHAR 01-11-83
ENCODING 11123
SWIDTH 960 0
DWIDTH 12 0
BBX 12 12 0 -2
BITMAP
0000
0000
0000
0000
0000
0000
0000
0000
0000
0000
0c80
1300
ENDCHAR
STARTCHAR 01-11-84
ENCODING 11124
SWIDTH 960 0
DWIDTH 12 0
BBX 12 12 0 -2
BITMAP
0000
0000
0000
0000
0000
0000
0000
0000
0000
0000
0d80
1240
ENDCHAR
STARTCHAR 01-11-85
ENCODING 11125
SWIDTH 960 0
DWIDTH 12 0
BBX 12 12 0 -2
BITMAP
0000
0000
0000
0000
0000
0000
0c80
1300
0000
0000
0000
0000
ENDCHAR
STARTCHAR 01-11-86
ENCODING 11126
SWIDTH 960 0
DWIDTH 12 0
BBX 12 12 0 -2
BITMAP
0000
0000
0000
0000
0000
0000
0000
0200
0200
0f80
0000
0000
ENDCHAR
STARTCHAR 01-11-87
ENCODING 11127
SWIDTH 960 0
DWIDTH 12 0
BBX 12 12 0 -2
BITMAP
0000
0000
0000
0000
0000
0000
0000
0000
0000
0f80
0200
0200
ENDCHAR
STARTCHAR 01-11-88
ENCODING 11128
SWIDTH 960 0
DWIDTH 12 0
BBX 12 12 0 -2
BITMAP
0000
0000
0000
0000
0000
0000
0000
0200
0200
0e00
0200
0200
ENDCHAR
STARTCHAR 01-11-89
ENCODING 11129
SWIDTH 960 0
DWIDTH 12 0
BBX 12 12 0 -2
BITMAP
0000
0000
0000
0000
0000
0000
0000
0200
0200
0380
0200
0200
ENDCHAR
STARTCHAR 01-11-90
ENCODING 11130
SWIDTH 960 0
DWIDTH 12 0
BBX 12 12 0 -2
BITMAP
0000
0000
0000
0000
0000
0000
0000
0000
0000
0f80
0880
0880
ENDCHAR
STARTCHAR 01-11-91
ENCODING 11131
SWIDTH 960 0
DWIDTH 12 0
BBX 12 12 0 -2
BITMAP
0000
0000
0000
0000
0000
0000
0000
0000
0000
0880
0880
0f80
ENDCHAR
STARTCHAR 01-11-92
ENCODING 11132
SWIDTH 960 0
DWIDTH 12 0
BBX 12 12 0 -2
BITMAP
0000
0000
0000
0000
0000
0000
0000
0000
0f80
0880
0880
0f80
ENDCHAR
STARTCHAR 01-11-93
ENCODING 11133
SWIDTH 960 0
DWIDTH 12 0
BBX 12 12 0 -2
BITMAP
0000
0c80
1300
0000
0000
0000
0000
0000
0000
0000
0000
0000
ENDCHAR
STARTCHAR 01-11-94
ENCODING 11134
SWIDTH 960 0
DWIDTH 12 0
BBX 12 12 0 -2
BITMAP
0000
01c0
0040
0040
0000
0000
0000
0000
0000
0000
0000
0000
ENDCHAR
STARTCHAR 01-12-01
ENCODING 11297
SWIDTH 960 0
DWIDTH 12 0
BBX 12 12 0 -2
BITMAP
0000
1fc0
3fe0
7df0
79f0
7df0
7df0
7df0
7df0
7070
3fe0
1fc0
ENDCHAR
STARTCHAR 01-12-02
ENCODING 11298
SWIDTH 960 0
DWIDTH 12 0
BBX 12 12 0 -2
BITMAP
0000
1fc0
3fe0
78f0
7770
7ef0
7df0
7bf0
77f0
7070
3fe0
1fc0
ENDCHAR
STARTCHAR 01-12-03
ENCODING 11299
SWIDTH 960 0
DWIDTH 12 0
BBX 12 12 0 -2
BITMAP
0000
1fc0
3fe0
78f0
7770
7f70
7cf0
7f70
7770
78f0
3fe0
1fc0
ENDCHAR
STARTCHAR 01-12-04
ENCODING 11300
SWIDTH 960 0
DWIDTH 12 0
BBX 12 12 0 -2
BITMAP
0000
1fc0
3fe0
7df0
79f0
75f0
6df0
6070
7df0
78f0
3fe0
1fc0
ENDCHAR
STARTCHAR 01-12-05
ENCODING 11301
SWIDTH 960 0
DWIDTH 12 0
BBX 12 12 0 -2
BITMAP
0000
1fc0
3fe0
7070
77f0
77f0
70f0
7f70
7770
78f0
3fe0
1fc0
ENDCHAR
STARTCHAR 01-12-06
ENCODING 11302
SWIDTH 960 0
DWIDTH 12 0
BBX 12 12 0 -2
BITMAP
0000
1fc0
3fe0
78f0
7770
77f0
70f0
7770
7770
78f0
3fe0
1fc0
ENDCHAR
STARTCHAR 01-12-07
ENCODING 11303
SWIDTH 960 0
DWIDTH 12 0
BBX 12 12 0 -2
BITMAP
0000
1fc0
3fe0
7070
7770
7ef0
7ef0
7df0
7df0
7df0
3fe0
1fc0
ENDCHAR
STARTCHAR 01-12-08
ENCODING 11304
SWIDTH 960 0
DWIDTH 12 0
BBX 12 12 0 -2
BITMAP
0000
1fc0
3fe0
78f0
7770
7770
78f0
7770
7770
78f0
3fe0
1fc0
ENDCHAR
STARTCHAR 01-12-09
ENCODING 11305
SWIDTH 960 0
DWIDTH 12 0
BBX 12 12 0 -2
BITMAP
0000
1fc0
3fe0
78f0
7770
7770
7870
7f70
7770
78f0
3fe0
1fc0
ENDCHAR
STARTCHAR 01-12-10
ENCODING 11306
SWIDTH 960 0
DWIDTH 12 0
BBX 12 12 0 -2
BITMAP
0000
1fc0
3fe0
7670
65b0
75b0
75b0
75b0
75b0
6270
3fe0
1fc0
ENDCHAR
STARTCHAR 01-12-11
ENCODING 11307
SWIDTH 960 0
DWIDTH 12 0
BBX 12 12 0 -2
BITMAP
0000
1fc0
3fe0
7770
6670
7770
7770
7770
7770
6230
3fe0
1fc0
ENDCHAR
STARTCHAR 01-12-12
ENCODING 11308
SWIDTH 960 0
DWIDTH 12 0
BBX 12 12 0 -2
BITMAP
0000
1fc0
3fe0
7670
65b0
77b0
7770
76f0
75f0
6030
3fe0
1fc0
ENDCHAR
STARTCHAR 01-12-13
ENCODING 11309
SWIDTH 960 0
DWIDTH 12 0
BBX 12 12 0 -2
BITMAP
0000
1fc0
3fe0
7670
65b0
77b0
7670
77b0
75b0
6270
3fe0
1fc0
ENDCHAR
STARTCHAR 01-12-14
ENCODING 11310
SWIDTH 960 0
DWIDTH 12 0
BBX 12 12 0 -2
BITMAP
0000
1fc0
3fe0
7770
6670
7570
7370
7030
7770
6230
3fe0
1fc0
ENDCHAR
STARTCHAR 01-12-15
ENCODING 11311
SWIDTH 960 0
DWIDTH 12 0
BBX 12 12 0 -2
BITMAP
0000
1fc0
3fe0
7470
65f0
75f0
7470
77b0
75b0
6270
3fe0
1fc0
ENDCHAR
STARTCHAR 01-12-16
ENCODING 11312
SWIDTH 960 0
DWIDTH 12 0
BBX 12 12 0 -2
BITMAP
0000
1fc0
3fe0
7670
65b0
75f0
7470
75b0
75b0
6270
3fe0
1fc0
ENDCHAR
STARTCHAR 01-12-17
ENCODING 11313
SWIDTH 960 0
DWIDTH 12 0
BBX 12 12 0 -2
BITMAP
0000
1fc0
3fe0
7430
65b0
7770
7770
76f0
76f0
62f0
3fe0
1fc0
ENDCHAR
STARTCHAR 01-12-18
ENCODING 11314
SWIDTH 960 0
DWIDTH 12 0
BBX 12 12 0 -2
BITMAP
0000
1fc0
3fe0
7670
65b0
75b0
7670
75b0
75b0
6270
3fe0
1fc0
ENDCHAR
STARTCHAR 01-12-19
ENCODING 11315
SWIDTH 960 0
DWIDTH 12 0
BBX 12 12 0 -2
BITMAP
0000
1fc0
3fe0
7670
65b0
75b0
7630
77b0
75b0
6270
3fe0
1fc0
ENDCHAR
STARTCHAR 01-12-20
ENCODING 11316
SWIDTH 960 0
DWIDTH 12 0
BBX 12 12 0 -2
BITMAP
0000
1fc0
3fe0
7230
6cb0
7cb0
7ab0
76b0
6eb0
6030
3fe0
1fc0
ENDCHAR
STARTCHAR 01-12-21
ENCODING 11317
SWIDTH 960 0
DWIDTH 12 0
BBX 12 12 0 -2
BITMAP
0000
0000
0600
0600
0000
0e00
0600
0600
0600
0600
0f00
0000
ENDCHAR
STARTCHAR 01-12-22
ENCODING 11318
SWIDTH 960 0
DWIDTH 12 0
BBX 12 12 0 -2
BITMAP
0000
0000
0d80
0d80
0000
1f80
0d80
0d80
0d80
0d80
1fc0
0000
ENDCHAR
STARTCHAR 01-12-23
ENCODING 11319
SWIDTH 960 0
DWIDTH 12 0
BBX 12 12 0 -2
BITMAP
0000
0000
1ac0
1ac0
0000
3fe0
1ac0
1ac0
1ac0
1ac0
3fe0
0000
ENDCHAR
STARTCHAR 01-12-24
ENCODING 11320
SWIDTH 960 0
DWIDTH 12 0
BBX 12 12 0 -2
BITMAP
0000
0000
1800
1800
0000
3fe0
1b40
1b40
19c0
1980
3c80
0000
ENDCHAR
STARTCHAR 01-12-25
ENCODING 11321
SWIDTH 960 0
DWIDTH 12 0
BBX 12 12 0 -2
BITMAP
0000
0000
0000
0000
0000
39c0
1880
0d00
0f00
0600
0200
0000
ENDCHAR
STARTCHAR 01-12-26
ENCODING 11322
SWIDTH 960 0
DWIDTH 12 0
BBX 12 12 0 -2
BITMAP
0000
0000
00c0
00c0
0000
3fc0
1ac0
1ac0
0ec0
0cc0
05e0
0000
ENDCHAR
STARTCHAR 01-12-27
ENCODING 11323
SWIDTH 960 0
DWIDTH 12 0
BBX 12 12 0 -2
BITMAP
0000
0000
01a0
01a0
0000
7fe0
35a0
35a0
1da0
19a0
0be0
0000
ENDCHAR
STARTCHAR 01-12-28
ENCODING 11324
SWIDTH 960 0
DWIDTH 12 0
BBX 12 12 0 -2
BITMAP
0000
0000
02a0
02a0
0000
7ff0
36a0
36a0
1aa0
1aa0
0bf0
0000
ENDCHAR
STARTCHAR 01-12-29
ENCODING 11325
SWIDTH 960 0
DWIDTH 12 0
BBX 12 12 0 -2
BITMAP
0000
0000
1800
1800
0000
3fe0
1e80
1b00
1b80
1cc0
3ee0
0000
ENDCHAR
STARTCHAR 01-12-30
ENCODING 11326
SWIDTH 960 0
DWIDTH 12 0
BBX 12 12 0 -2
BITMAP
0000
0000
0000
0000
0000
38e0
1cc0
0700
0780
18c0
38e0
0000
ENDCHAR
STARTCHAR 01-12-31
ENCODING 11327
SWIDTH 960 0
DWIDTH 12 0
BBX 12 12 0 -2
BITMAP
0000
0000
00c0
00c0
0000
3fc0
1ac0
0cc0
0ec0
13c0
3be0
0000
ENDCHAR
STARTCHAR 01-12-32
ENCODING 11328
SWIDTH 960 0
DWIDTH 12 0
BBX 12 12 0 -2
BITMAP
0000
0000
00a0
00a0
0000
7ff0
34a0
18a0
1ca0
26a0
77f0
0000
ENDCHAR
STARTCHAR 01-12-33
ENCODING 11329
SWIDTH 960 0
DWIDTH 12 0
BBX 12 12 0 -2
BITMAP
0000
0f80
1040
2e20
4110
4110
4f10
5110
5110
2ea0
1040
0f80
ENDCHAR
STARTCHAR 01-12-34
ENCODING 11330
SWIDTH 960 0
DWIDTH 12 0
BBX 12 12 0 -2
BITMAP
0000
0f80
1040
2820
4810
4b90
4c50
4850
4c50
2ba0
1040
0f80
ENDCHAR
STARTCHAR 01-12-35
ENCODING 11331
SWIDTH 960 0
DWIDTH 12 0
BBX 12 12 0 -2
BITMAP
0000
0f80
1040
2020
4710
4890
5010
5010
4890
2720
1040
0f80
ENDCHAR
STARTCHAR 01-12-36
ENCODING 11332
SWIDTH 960 0
DWIDTH 12 0
BBX 12 12 0 -2
BITMAP
0000
0f80
1040
20a0
4090
4e90
5190
5090
5190
2ea0
1040
0f80
ENDCHAR
STARTCHAR 01-12-37
ENCODING 11333
SWIDTH 960 0
DWIDTH 12 0
BBX 12 12 0 -2
BITMAP
0000
0f80
1040
2020
4f10
5090
5f90
5010
4890
2720
1040
0f80
ENDCHAR
STARTCHAR 01-12-38
ENCODING 11334
SWIDTH 960 0
DWIDTH 12 0
BBX 12 12 0 -2
BITMAP
0000
0f80
1040
21a0
4210
4210
4f90
4210
4210
2720
1040
0f80
ENDCHAR
STARTCHAR 01-12-39
ENCODING 11335
SWIDTH 960 0
DWIDTH 12 0
BBX 12 12 0 -2
BITMAP
0000
0f80
1040
26a0
4910
4910
4e10
5110
5090
2f20
1040
0f80
ENDCHAR
STARTCHAR 01-12-40
ENCODING 11336
SWIDTH 960 0
DWIDTH 12 0
BBX 12 12 0 -2
BITMAP
0000
0f80
1040
2820
4810
4b10
4c90
4890
4890
28a0
1040
0f80
ENDCHAR
STARTCHAR 01-12-41
ENCODING 11337
SWIDTH 960 0
DWIDTH 12 0
BBX 12 12 0 -2
BITMAP
0000
0f80
1040
2220
4010
4610
4210
4210
4210
2720
1040
0f80
ENDCHAR
STARTCHAR 01-12-42
ENCODING 11338
SWIDTH 960 0
DWIDTH 12 0
BBX 12 12 0 -2
BITMAP
0000
0f80
1040
2120
4010
4310
4110
4110
4910
2920
1640
0f80
ENDCHAR
STARTCHAR 01-12-43
ENCODING 11339
SWIDTH 960 0
DWIDTH 12 0
BBX 12 12 0 -2
BITMAP
0000
0f80
1040
2820
4990
4910
4a10
4e10
4910
29e0
1040
0f80
ENDCHAR
STARTCHAR 01-12-44
ENCODING 11340
SWIDTH 960 0
DWIDTH 12 0
BBX 12 12 0 -2
BITMAP
0000
0f80
1040
2620
4210
4210
4210
4210
4210
2720
1040
0f80
ENDCHAR
STARTCHAR 01-12-45
ENCODING 11341
SWIDTH 960 0
DWIDTH 12 0
BBX 12 12 0 -2
BITMAP
0000
0f80
1040
2020
5d90
5250
5250
5250
5250
3b60
1040
0f80
ENDCHAR
STARTCHAR 01-12-46
ENCODING 11342
SWIDTH 960 0
DWIDTH 12 0
BBX 12 12 0 -2
BITMAP
0000
0f80
1040
2020
4b10
4c90
4890
4890
4890
3ce0
1040
0f80
ENDCHAR
STARTCHAR 01-12-47
ENCODING 11343
SWIDTH 960 0
DWIDTH 12 0
BBX 12 12 0 -2
BITMAP
0000
0f80
1040
2020
4710
4890
5050
5050
4890
2720
1040
0f80
ENDCHAR
STARTCHAR 01-12-48
ENCODING 11344
SWIDTH 960 0
DWIDTH 12 0
BBX 12 12 0 -2
BITMAP
0000
0f80
1040
2ba0
4c50
4850
4c50
4b90
4810
3c20
1040
0f80
ENDCHAR
STARTCHAR 01-12-49
ENCODING 11345
SWIDTH 960 0
DWIDTH 12 0
BBX 12 12 0 -2
BITMAP
0000
0f80
1040
2ea0
5190
5090
5190
4e90
4090
21e0
1040
0f80
ENDCHAR
STARTCHAR 01-12-50
ENCODING 11346
SWIDTH 960 0
DWIDTH 12 0
BBX 12 12 0 -2
BITMAP
0000
0f80
1040
2020
4d90
4650
4410
4410
4410
2e20
1040
0f80
ENDCHAR
STARTCHAR 01-12-51
ENCODING 11347
SWIDTH 960 0
DWIDTH 12 0
BBX 12 12 0 -2
BITMAP
0000
0f80
1040
2720
4890
4810
4710
4090
4890
2720
1040
0f80
ENDCHAR
STARTCHAR 01-12-52
ENCODING 11348
SWIDTH 960 0
DWIDTH 12 0
BBX 12 12 0 -2
BITMAP
0000
0f80
1040
2420
4410
5f90
4410
4410
4490
2320
1040
0f80
ENDCHAR
STARTCHAR 01-12-53
ENCODING 11349
SWIDTH 960 0
DWIDTH 12 0
BBX 12 12 0 -2
BITMAP
0000
0f80
1040
2020
4890
4890
4890
4890
4990
26a0
1040
0f80
ENDCHAR
STARTCHAR 01-12-54
ENCODING 11350
SWIDTH 960 0
DWIDTH 12 0
BBX 12 12 0 -2
BITMAP
0000
0f80
1040
2020
59d0
4890
4910
4510
4610
2220
1040
0f80
ENDCHAR
STARTCHAR 01-12-55
ENCODING 11351
SWIDTH 960 0
DWIDTH 12 0
BBX 12 12 0 -2
BITMAP
0000
0f80
1040
2020
7af0
5250
5550
5550
4890
28a0
1040
0f80
ENDCHAR
STARTCHAR 01-12-56
ENCODING 11352
SWIDTH 960 0
DWIDTH 12 0
BBX 12 12 0 -2
BITMAP
0000
0f80
1040
2020
5dd0
4890
4710
4510
4890
3de0
1040
0f80
ENDCHAR
STARTCHAR 01-12-57
ENCODING 11353
SWIDTH 960 0
DWIDTH 12 0
BBX 12 12 0 -2
BITMAP
0000
0f80
1040
2020
5dd0
4890
4490
4310
5210
2c20
1040
0f80
ENDCHAR
STARTCHAR 01-12-58
ENCODING 11354
SWIDTH 960 0
DWIDTH 12 0
BBX 12 12 0 -2
BITMAP
0000
0f80
1040
2020
4f90
5110
4210
4450
4890
3fa0
1040
0f80
ENDCHAR
STARTCHAR 01-12-59
ENCODING 11355
SWIDTH 960 0
DWIDTH 12 0
BBX 12 12 0 -2
BITMAP
0000
0f80
1040
23e0
5c50
4290
4310
4210
4410
2420
1840
0f80
ENDCHAR
STARTCHAR 01-12-60
ENCODING 11356
SWIDTH 960 0
DWIDTH 12 0
BBX 12 12 0 -2
BITMAP
0000
0f80
10c0
20a0
4110
4210
5c10
4210
4210
2220
1240
0f80
ENDCHAR
STARTCHAR 01-12-61
ENCODING 11357
SWIDTH 960 0
DWIDTH 12 0
BBX 12 12 0 -2
BITMAP
0000
0f80
1440
2220
43d0
5c50
4850
4890
4090
2120
1240
0f80
ENDCHAR
STARTCHAR 01-12-62
ENCODING 11358
SWIDTH 960 0
DWIDTH 12 0
BBX 12 12 0 -2
BITMAP
0000
0f80
1040
2020
51d0
4e10
4210
4210
47d0
3820
1040
0f80
ENDCHAR
STARTCHAR 01-12-63
ENCODING 11359
SWIDTH 960 0
DWIDTH 12 0
BBX 12 12 0 -2
BITMAP
0000
0f80
1240
2120
51d0
4f10
4310
4510
5910
2320
1140
0f80
ENDCHAR
STARTCHAR 01-12-64
ENCODING 11360
SWIDTH 960 0
DWIDTH 12 0
BBX 12 12 0 -2
BITMAP
0000
0f80
1440
2220
53d0
4e50
4450
4450
4850
32a0
1140
0f80
ENDCHAR
STARTCHAR 01-12-65
ENCODING 11361
SWIDTH 960 0
DWIDTH 12 0
BBX 12 12 0 -2
BITMAP
0000
0f80
1840
2420
4390
4610
5ad0
4310
5d10
2120
1140
0f80
ENDCHAR
STARTCHAR 01-12-66
ENCODING 11362
SWIDTH 960 0
DWIDTH 12 0
BBX 12 12 0 -2
BITMAP
0000
0f80
1440
2220
4390
4490
4890
4110
4110
2220
1c40
0f80
ENDCHAR
STARTCHAR 01-12-67
ENCODING 11363
SWIDTH 960 0
DWIDTH 12 0
BBX 12 12 0 -2
BITMAP
0000
0f80
1840
2420
44d0
4f10
5110
4110
4210
2220
1440
0f80
ENDCHAR
STARTCHAR 01-12-68
ENCODING 11364
SWIDTH 960 0
DWIDTH 12 0
BBX 12 12 0 -2
BITMAP
0000
0f80
1040
2060
5390
4c90
4090
4090
4390
2ca0
1040
0f80
ENDCHAR
STARTCHAR 01-12-69
ENCODING 11365
SWIDTH 960 0
DWIDTH 12 0
BBX 12 12 0 -2
BITMAP
0000
0f80
1140
28a0
4490
65f0
5e90
4490
4110
2120
1240
0f80
ENDCHAR
STARTCHAR 01-12-70
ENCODING 11366
SWIDTH 960 0
DWIDTH 12 0
BBX 12 12 0 -2
BITMAP
0000
0f80
1040
2020
4c10
4230
5850
4450
4090
2920
1640
0f80
ENDCHAR
STARTCHAR 01-12-71
ENCODING 11367
SWIDTH 960 0
DWIDTH 12 0
BBX 12 12 0 -2
BITMAP
0000
0f80
1040
33a0
4c90
4090
4110
4310
4490
2860
1040
0f80
ENDCHAR
STARTCHAR 01-12-72
ENCODING 11368
SWIDTH 960 0
DWIDTH 12 0
BBX 12 12 0 -2
BITMAP
0000
0f80
1040
3020
4bd0
5c90
4910
4810
4410
23a0
1040
0f80
ENDCHAR
STARTCHAR 01-12-73
ENCODING 11369
SWIDTH 960 0
DWIDTH 12 0
BBX 12 12 0 -2
BITMAP
0000
0f80
1040
2020
4850
4450
4490
4090
4110
2220
1440
0f80
ENDCHAR
STARTCHAR 01-12-74
ENCODING 11370
SWIDTH 960 0
DWIDTH 12 0
BBX 12 12 0 -2
BITMAP
0000
0f80
1440
2220
4390
4490
4a90
4110
4210
2420
1840
0f80
ENDCHAR
STARTCHAR 01-12-75
ENCODING 11371
SWIDTH 960 0
DWIDTH 12 0
BBX 12 12 0 -2
BITMAP
0000
0f80
10c0
2120
4e10
63f0
5d10
4110
4110
2220
1440
0f80
ENDCHAR
STARTCHAR 01-12-76
ENCODING 11372
SWIDTH 960 0
DWIDTH 12 0
BBX 12 12 0 -2
BITMAP
0000
0f80
1040
24a0
5250
4a50
4850
4090
4090
2120
1240
0f80
ENDCHAR
STARTCHAR 01-12-77
ENCODING 11373
SWIDTH 960 0
DWIDTH 12 0
BBX 12 12 0 -2
BITMAP
0000
0f80
1040
2ba0
4410
61f0
5e10
4110
4110
2220
1440
0f80
ENDCHAR
STARTCHAR 01-12-78
ENCODING 11374
SWIDTH 960 0
DWIDTH 12 0
BBX 12 12 0 -2
BITMAP
0000
0f80
1840
2420
4410
4710
44d0
4410
4410
2420
1440
0f80
ENDCHAR
STARTCHAR 01-12-79
ENCODING 11375
SWIDTH 960 0
DWIDTH 12 0
BBX 12 12 0 -2
BITMAP
0000
0f80
1040
2020
63d0
5c50
5050
51d0
5e50
2020
1040
0f80
ENDCHAR
STARTCHAR 01-12-80
ENCODING 11376
SWIDTH 960 0
DWIDTH 12 0
BBX 12 12 0 -2
BITMAP
0000
0f80
1040
2020
4110
4890
4890
4850
5050
3020
1040
0f80
ENDCHAR
STARTCHAR 01-12-81
ENCODING 11377
SWIDTH 960 0
DWIDTH 12 0
BBX 12 12 0 -2
BITMAP
0000
0f80
1040
2020
5390
4c10
4010
4010
43d0
3c20
1040
0f80
ENDCHAR
STARTCHAR 01-12-82
ENCODING 11378
SWIDTH 960 0
DWIDTH 12 0
BBX 12 12 0 -2
BITMAP
0000
0f80
1440
2220
53d0
4e10
4a90
4a50
5250
2620
1240
0f80
ENDCHAR
STARTCHAR 01-12-83
ENCODING 11379
SWIDTH 960 0
DWIDTH 12 0
BBX 12 12 0 -2
BITMAP
0000
0f80
1040
2420
4410
4a10
5110
6090
4070
2020
1040
0f80
ENDCHAR
STARTCHAR 01-12-93
ENCODING 11389
SWIDTH 960 0
DWIDTH 12 0
BBX 12 12 0 -2
BITMAP
0000
0200
0a80
0700
0700
0a80
0200
0a80
0700
0700
0a80
0200
ENDCHAR
STARTCHAR 01-12-94
ENCODING 11390
SWIDTH 960 0
DWIDTH 12 0
BBX 12 12 0 -2
BITMAP
0000
0200
0a80
0700
0700
0a80
1240
5550
38e0
38e0
5550
1040
ENDCHAR
STARTCHAR 01-13-01
ENCODING 11553
SWIDTH 960 0
DWIDTH 12 0
BBX 12 12 0 -2
BITMAP
0000
0f80
1040
2220
4610
4210
4210
4210
4210
2fa0
1040
0f80
ENDCHAR
STARTCHAR 01-13-02
ENCODING 11554
SWIDTH 960 0
DWIDTH 12 0
BBX 12 12 0 -2
BITMAP
0000
0f80
1040
2720
4890
4110
4210
4410
4810
2fa0
1040
0f80
ENDCHAR
STARTCHAR 01-13-03
ENCODING 11555
SWIDTH 960 0
DWIDTH 12 0
BBX 12 12 0 -2
BITMAP
0000
0f80
1040
2720
4890
4090
4310
4090
4890
2720
1040
0f80
ENDCHAR
STARTCHAR 01-13-04
ENCODING 11556
SWIDTH 960 0
DWIDTH 12 0
BBX 12 12 0 -2
BITMAP
0000
0f80
1040
2220
4610
4a10
4a10
5f90
4210
2720
1040
0f80
ENDCHAR
STARTCHAR 01-13-05
ENCODING 11557
SWIDTH 960 0
DWIDTH 12 0
BBX 12 12 0 -2
BITMAP
0000
0f80
1040
2fa0
4810
4810
4f10
4090
4890
2720
1040
0f80
ENDCHAR
STARTCHAR 01-13-06
ENCODING 11558
SWIDTH 960 0
DWIDTH 12 0
BBX 12 12 0 -2
BITMAP
0000
0f80
1040
2720
4890
4810
4f10
4890
4890
2720
1040
0f80
ENDCHAR
STARTCHAR 01-13-07
ENCODING 11559
SWIDTH 960 0
DWIDTH 12 0
BBX 12 12 0 -2
BITMAP
0000
0f80
1040
2fa0
4890
4110
4110
4210
4210
2220
1040
0f80
ENDCHAR
STARTCHAR 01-13-08
ENCODING 11560
SWIDTH 960 0
DWIDTH 12 0
BBX 12 12 0 -2
BITMAP
0000
0f80
1040
2720
4890
4890
4710
4890
4890
2720
1040
0f80
ENDCHAR
STARTCHAR 01-13-09
ENCODING 11561
SWIDTH 960 0
DWIDTH 12 0
BBX 12 12 0 -2
BITMAP
0000
0f80
1040
2720
4890
4890
4790
4090
4890
2720
1040
0f80
ENDCHAR
STARTCHAR 01-13-10
ENCODING 11562
SWIDTH 960 0
DWIDTH 12 0
BBX 12 12 0 -2
BITMAP
0000
1fc0
2020
4990
5a50
4a50
4a50
4a50
4a50
5d90
2020
1fc0
ENDCHAR
STARTCHAR 01-13-11
ENCODING 11563
SWIDTH 960 0
DWIDTH 12 0
BBX 12 12 0 -2
BITMAP
0000
1fc0
2020
4890
5990
4890
4890
4890
4890
5dd0
2020
1fc0
ENDCHAR
STARTCHAR 01-13-12
ENCODING 11564
SWIDTH 960 0
DWIDTH 12 0
BBX 12 12 0 -2
BITMAP
0000
1fc0
2020
4990
5a50
4850
4890
4910
4a10
5fd0
2020
1fc0
ENDCHAR
STARTCHAR 01-13-13
ENCODING 11565
SWIDTH 960 0
DWIDTH 12 0
BBX 12 12 0 -2
BITMAP
0000
1fc0
2020
4990
5a50
4850
4990
4850
4a50
5d90
2020
1fc0
ENDCHAR
STARTCHAR 01-13-14
ENCODING 11566
SWIDTH 960 0
DWIDTH 12 0
BBX 12 12 0 -2
BITMAP
0000
1fc0
2020
4890
5990
4a90
4c90
4fd0
4890
5dd0
2020
1fc0
ENDCHAR
STARTCHAR 01-13-15
ENCODING 11567
SWIDTH 960 0
DWIDTH 12 0
BBX 12 12 0 -2
BITMAP
0000
1fc0
2020
4b90
5a10
4a10
4b90
4850
4a50
5d90
2020
1fc0
ENDCHAR
STARTCHAR 01-13-16
ENCODING 11568
SWIDTH 960 0
DWIDTH 12 0
BBX 12 12 0 -2
BITMAP
0000
1fc0
2020
4990
5a50
4a10
4b90
4a50
4a50
5d90
2020
1fc0
ENDCHAR
STARTCHAR 01-13-17
ENCODING 11569
SWIDTH 960 0
DWIDTH 12 0
BBX 12 12 0 -2
BITMAP
0000
1fc0
2020
4bd0
5a50
4890
4990
4910
4910
5d10
2020
1fc0
ENDCHAR
STARTCHAR 01-13-18
ENCODING 11570
SWIDTH 960 0
DWIDTH 12 0
BBX 12 12 0 -2
BITMAP
0000
1fc0
2020
4990
5a50
4a50
4990
4a50
4a50
5d90
2020
1fc0
ENDCHAR
STARTCHAR 01-13-19
ENCODING 11571
SWIDTH 960 0
DWIDTH 12 0
BBX 12 12 0 -2
BITMAP
0000
1fc0
2020
4b90
5a50
4a50
4bd0
4850
4a50
5f90
2020
1fc0
ENDCHAR
STARTCHAR 01-13-20
ENCODING 11572
SWIDTH 960 0
DWIDTH 12 0
BBX 12 12 0 -2
BITMAP
0000
1fc0
2020
4dd0
5350
4750
4d50
4950
5150
5fd0
2020
1fc0
ENDCHAR
STARTCHAR 01-13-21
ENCODING 11573
SWIDTH 960 0
DWIDTH 12 0
BBX 12 12 0 -2
BITMAP
0000
0f00
0600
0600
0600
0600
0600
0600
0600
0600
0f00
0000
ENDCHAR
STARTCHAR 01-13-22
ENCODING 11574
SWIDTH 960 0
DWIDTH 12 0
BBX 12 12 0 -2
BITMAP
0000
3fc0
1980
1980
1980
1980
1980
1980
1980
1980
3fc0
0000
ENDCHAR
STARTCHAR 01-13-23
ENCODING 11575
SWIDTH 960 0
DWIDTH 12 0
BBX 12 12 0 -2
BITMAP
0000
7fe0
36c0
36c0
36c0
36c0
36c0
36c0
36c0
36c0
7fe0
0000
ENDCHAR
STARTCHAR 01-13-24
ENCODING 11576
SWIDTH 960 0
DWIDTH 12 0
BBX 12 12 0 -2
BITMAP
0000
7ce0
3c40
3e40
3640
3680
3380
3380
3300
3100
7900
0000
ENDCHAR
STARTCHAR 01-13-25
ENCODING 11577
SWIDTH 960 0
DWIDTH 12 0
BBX 12 12 0 -2
BITMAP
0000
38e0
1840
1840
0c80
0c80
0c80
0700
0700
0200
0200
0000
ENDCHAR
STARTCHAR 01-13-26
ENCODING 11578
SWIDTH 960 0
DWIDTH 12 0
BBX 12 12 0 -2
BITMAP
0000
73e0
31c0
39c0
19c0
1ac0
0ec0
0ec0
0cc0
04c0
05e0
0000
ENDCHAR
STARTCHAR 01-13-27
ENCODING 11579
SWIDTH 960 0
DWIDTH 12 0
BBX 12 12 0 -2
BITMAP
0000
77e0
3340
3340
3340
1d40
1d40
1d40
0940
0940
0be0
0000
ENDCHAR
STARTCHAR 01-13-28
ENCODING 11580
SWIDTH 960 0
DWIDTH 12 0
BBX 12 12 0 -2
BITMAP
0000
6ff0
66a0
66a0
36a0
3aa0
3aa0
3aa0
12a0
12a0
13f0
0000
ENDCHAR
STARTCHAR 01-13-29
ENCODING 11581
SWIDTH 960 0
DWIDTH 12 0
BBX 12 12 0 -2
BITMAP
0000
7e60
3640
3680
3380
3300
3380
3580
35c0
38c0
7ce0
0000
ENDCHAR
STARTCHAR 01-13-30
ENCODING 11582
SWIDTH 960 0
DWIDTH 12 0
BBX 12 12 0 -2
BITMAP
0000
38e0
1840
0c80
0f00
0700
0700
0580
0980
10c0
38e0
0000
ENDCHAR
STARTCHAR 01-13-31
ENCODING 11583
SWIDTH 960 0
DWIDTH 12 0
BBX 12 12 0 -2
BITMAP
0000
73e0
32c0
34c0
1cc0
18c0
1cc0
2cc0
2ec0
46c0
67e0
0000
ENDCHAR
STARTCHAR 01-13-32
ENCODING 11584
SWIDTH 960 0
DWIDTH 12 0
BBX 12 12 0 -2
BITMAP
0000
0000
3000
0c00
3000
0d20
3120
0d20
0120
0020
0040
0080
ENDCHAR
STARTCHAR 01-13-33
ENCODING 11585
SWIDTH 960 0
DWIDTH 12 0
BBX 12 12 0 -2
BITMAP
0000
1000
1c00
7000
0e00
7800
09e0
0920
0120
0120
01e0
0000
ENDCHAR
STARTCHAR 01-13-34
ENCODING 11586
SWIDTH 960 0
DWIDTH 12 0
BBX 12 12 0 -2
BITMAP
0000
2000
3d00
6490
2810
2020
1cc0
0400
3800
7e00
0800
1000
ENDCHAR
STARTCHAR 01-13-35
ENCODING 11587
SWIDTH 960 0
DWIDTH 12 0
BBX 12 12 0 -2
BITMAP
0000
0400
3400
09e0
1800
6400
2000
2080
3280
2a90
22a0
24c0
ENDCHAR
STARTCHAR 01-13-36
ENCODING 11588
SWIDTH 960 0
DWIDTH 12 0
BBX 12 12 0 -2
BITMAP
0000
0ae0
3a00
29f0
4810
1020
20c0
1000
1000
2400
2a00
7200
ENDCHAR
STARTCHAR 01-13-37
ENCODING 11589
SWIDTH 960 0
DWIDTH 12 0
BBX 12 12 0 -2
BITMAP
0000
2000
2000
3800
2400
2000
2200
0100
0110
0020
0040
0180
ENDCHAR
STARTCHAR 01-13-38
ENCODING 11590
SWIDTH 960 0
DWIDTH 12 0
BBX 12 12 0 -2
BITMAP
0000
7e00
1200
1400
19e0
2000
4000
0800
2900
2900
2a00
4c00
ENDCHAR
STARTCHAR 01-13-39
ENCODING 11591
SWIDTH 960 0
DWIDTH 12 0
BBX 12 12 0 -2
BITMAP
0000
10f0
1090
2910
2420
0220
3840
2940
6950
1f50
1160
6240
ENDCHAR
STARTCHAR 01-13-40
ENCODING 11592
SWIDTH 960 0
DWIDTH 12 0
BBX 12 12 0 -2
BITMAP
0000
4800
4800
4950
0950
1020
20c0
2280
3a80
2690
22a0
24c0
ENDCHAR
STARTCHAR 01-13-41
ENCODING 11593
SWIDTH 960 0
DWIDTH 12 0
BBX 12 12 0 -2
BITMAP
0000
7c00
4400
4550
0950
1020
20c0
2000
3800
2400
2000
2000
ENDCHAR
STARTCHAR 01-13-42
ENCODING 11594
SWIDTH 960 0
DWIDTH 12 0
BBX 12 12 0 -2
BITMAP
0000
2000
7de0
2520
2520
59e0
0000
4800
4800
4bf0
0800
1000
ENDCHAR
STARTCHAR 01-13-43
ENCODING 11595
SWIDTH 960 0
DWIDTH 12 0
BBX 12 12 0 -2
BITMAP
0000
2a00
2a00
3800
2400
2000
2280
0280
0290
02a0
02c0
0480
ENDCHAR
STARTCHAR 01-13-44
ENCODING 11596
SWIDTH 960 0
DWIDTH 12 0
BBX 12 12 0 -2
BITMAP
0000
2000
3d00
6490
2810
2020
1cc0
2000
3800
2400
2000
2000
ENDCHAR
STARTCHAR 01-13-45
ENCODING 11597
SWIDTH 960 0
DWIDTH 12 0
BBX 12 12 0 -2
BITMAP
0000
0200
2d00
2a00
45e0
4400
0040
5c40
6ae0
50d0
4140
3a40
ENDCHAR
STARTCHAR 01-13-46
ENCODING 11598
SWIDTH 960 0
DWIDTH 12 0
BBX 12 12 0 -2
BITMAP
0000
6120
1920
6120
1840
6040
1c80
3440
20c0
57d0
48e0
4940
ENDCHAR
STARTCHAR 01-13-47
ENCODING 11599
SWIDTH 960 0
DWIDTH 12 0
BBX 12 12 0 -2
BITMAP
0000
0400
2a00
54e0
4800
0600
0280
6280
0000
6400
0800
3000
ENDCHAR
STARTCHAR 01-13-48
ENCODING 11600
SWIDTH 960 0
DWIDTH 12 0
BBX 12 12 0 -2
BITMAP
0000
0000
0000
0000
0000
69a0
5550
5550
5550
5550
5550
0000
ENDCHAR
STARTCHAR 01-13-49
ENCODING 11601
SWIDTH 960 0
DWIDTH 12 0
BBX 12 12 0 -2
BITMAP
0000
0000
0000
0000
0000
35a0
6d50
4150
4150
2550
1950
0000
ENDCHAR
STARTCHAR 01-13-50
ENCODING 11602
SWIDTH 960 0
DWIDTH 12 0
BBX 12 12 0 -2
BITMAP
0000
2000
6000
2000
2000
2fa0
2550
3950
3950
2d50
2550
0000
ENDCHAR
STARTCHAR 01-13-51
ENCODING 11603
SWIDTH 960 0
DWIDTH 12 0
BBX 12 12 0 -2
BITMAP
0000
0000
0000
0000
0010
68f0
5520
5520
54c0
55e0
5710
03e0
ENDCHAR
STARTCHAR 01-13-52
ENCODING 11604
SWIDTH 960 0
DWIDTH 12 0
BBX 12 12 0 -2
BITMAP
0000
2000
6000
2000
2010
2ef0
2520
3920
38c0
2de0
2710
03e0
ENDCHAR
STARTCHAR 01-13-53
ENCODING 11605
SWIDTH 960 0
DWIDTH 12 0
BBX 12 12 0 -2
BITMAP
0000
0000
0000
0000
0000
34d0
6db0
4510
4100
2490
1860
0000
ENDCHAR
STARTCHAR 01-13-54
ENCODING 11606
SWIDTH 960 0
DWIDTH 12 0
BBX 12 12 0 -2
BITMAP
0000
00e0
0010
0060
0080
6df0
3680
36c0
36c0
36c0
76e0
0000
ENDCHAR
STARTCHAR 01-13-55
ENCODING 11607
SWIDTH 960 0
DWIDTH 12 0
BBX 12 12 0 -2
BITMAP
0000
73e0
3340
3540
1d40
1940
1d40
2d40
2f40
4740
67e0
0000
ENDCHAR
STARTCHAR 01-13-63
ENCODING 11615
SWIDTH 960 0
DWIDTH 12 0
BBX 12 12 0 -2
BITMAP
0000
7ec0
10a0
54a0
57f0
3a40
7e50
13d0
12a0
12b0
14d0
1590
ENDCHAR
STARTCHAR 01-13-64
ENCODING 11616
SWIDTH 960 0
DWIDTH 12 0
BBX 12 12 0 -2
BITMAP
0000
00c0
0640
0220
0100
0000
0000
0000
0000
0000
0000
0000
ENDCHAR
STARTCHAR 01-13-65
ENCODING 11617
SWIDTH 960 0
DWIDTH 12 0
BBX 12 12 0 -2
BITMAP
0000
0000
0000
0000
0000
0000
0000
0000
0800
4400
2600
3000
ENDCHAR
STARTCHAR 01-13-66
ENCODING 11618
SWIDTH 960 0
DWIDTH 12 0
BBX 12 12 0 -2
BITMAP
0000
4400
6400
6400
5480
5540
5620
5620
4e20
4d70
44b0
0000
ENDCHAR
STARTCHAR 01-13-67
ENCODING 11619
SWIDTH 960 0
DWIDTH 12 0
BBX 12 12 0 -2
BITMAP
0000
4d30
4920
5140
5140
6180
71c0
5960
5960
4d30
4d30
0000
ENDCHAR
STARTCHAR 01-13-68
ENCODING 11620
SWIDTH 960 0
DWIDTH 12 0
BBX 12 12 0 -2
BITMAP
0000
7740
6d40
2440
2440
2740
2440
2440
2440
2550
7770
0000
ENDCHAR
STARTCHAR 01-13-69
ENCODING 11621
SWIDTH 960 0
DWIDTH 12 0
BBX 12 12 0 -2
BITMAP
0000
0f80
1240
2220
4210
43d0
4210
4210
4210
3fe0
1040
0f80
ENDCHAR
STARTCHAR 01-13-70
ENCODING 11622
SWIDTH 960 0
DWIDTH 12 0
BBX 12 12 0 -2
BITMAP
0000
0f80
1240
2220
5fd0
5250
5250
5fd0
5250
2220
1240
0f80
ENDCHAR
STARTCHAR 01-13-71
ENCODING 11623
SWIDTH 960 0
DWIDTH 12 0
BBX 12 12 0 -2
BITMAP
0000
0f80
1040
3fe0
4210
4310
4290
4250
4210
2220
1240
0f80
ENDCHAR
STARTCHAR 01-13-72
ENCODING 11624
SWIDTH 960 0
DWIDTH 12 0
BBX 12 12 0 -2
BITMAP
0000
0f80
1440
2420
7ff0
4410
4fd0
5110
7110
2fe0
1040
0f80
ENDCHAR
STARTCHAR 01-13-73
ENCODING 11625
SWIDTH 960 0
DWIDTH 12 0
BBX 12 12 0 -2
BITMAP
0000
0f80
1440
2420
7ff0
4810
4fd0
5450
7450
27e0
1040
0f80
ENDCHAR
STARTCHAR 01-13-74
ENCODING 11626
SWIDTH 960 0
DWIDTH 12 0
BBX 12 12 0 -2
BITMAP
0000
2020
4910
7ff0
4990
5e90
5ff0
6990
69d0
4ab0
4c90
28a0
ENDCHAR
STARTCHAR 01-13-75
ENCODING 11627
SWIDTH 960 0
DWIDTH 12 0
BBX 12 12 0 -2
BITMAP
0000
2420
4410
7ff0
4410
4fd0
4850
5fd0
6850
4fd0
4850
30e0
ENDCHAR
STARTCHAR 01-13-76
ENCODING 11628
SWIDTH 960 0
DWIDTH 12 0
BBX 12 12 0 -2
BITMAP
0000
2120
4990
4950
57f0
5110
7110
5090
5090
5090
5050
3020
ENDCHAR
STARTCHAR 01-13-77
ENCODING 11629
SWIDTH 960 0
DWIDTH 12 0
BBX 12 12 0 -2
BITMAP
0000
1c40
7640
5560
5c90
76f0
5510
5c00
75f0
5590
16f0
2e90
ENDCHAR
STARTCHAR 01-13-78
ENCODING 11630
SWIDTH 960 0
DWIDTH 12 0
BBX 12 12 0 -2
BITMAP
0000
13f0
1040
1040
7d40
1140
1170
1140
2940
2540
2740
43f0
ENDCHAR
STARTCHAR 01-13-79
ENCODING 11631
SWIDTH 960 0
DWIDTH 12 0
BBX 12 12 0 -2
BITMAP
0000
1c80
7770
5550
57d0
7550
59d0
5fd0
5750
7550
5d70
1550
ENDCHAR
STARTCHAR 01-13-83
ENCODING 11635
SWIDTH 960 0
DWIDTH 12 0
BBX 12 12 0 -2
BITMAP
0000
0300
0500
0400
0700
0a80
0a80
0a80
0700
0100
0500
0600
ENDCHAR
STARTCHAR 01-13-88
ENCODING 11640
SWIDTH 960 0
DWIDTH 12 0
BBX 12 12 0 -2
BITMAP
0000
0000
2000
2000
2000
2000
2000
2000
2000
2000
3fe0
0000
ENDCHAR
STARTCHAR 01-13-89
ENCODING 11641
SWIDTH 960 0
DWIDTH 12 0
BBX 12 12 0 -2
BITMAP
0000
0000
0020
0060
00a0
0120
0220
0420
0820
1020
3fe0
0000
ENDCHAR
STARTCHAR 01-13-93
ENCODING 11645
SWIDTH 960 0
DWIDTH 12 0
BBX 12 12 0 -2
BITMAP
0000
0600
0f00
0f00
1680
39c0
7fe0
39c0
1680
0f00
0f00
0600
ENDCHAR
STARTCHAR 01-13-94
ENCODING 11646
SWIDTH 960 0
DWIDTH 12 0
BBX 12 12 0 -2
BITMAP
0000
0000
0000
3fe0
6810
5ee0
5100
6500
2200
1c00
0000
0000
ENDCHAR
STARTCHAR 01-14-02
ENCODING 11810
SWIDTH 960 0
DWIDTH 12 0
BBX 12 12 0 -2
BITMAP
0000
0240
0220
7ff0
0a00
1200
2a00
0600
0200
0500
18c0
6030
ENDCHAR
STARTCHAR 01-14-03
ENCODING 11811
SWIDTH 960 0
DWIDTH 12 0
BBX 12 12 0 -2
BITMAP
0000
0860
0b80
7c00
0820
07e0
2080
2690
28e0
7180
2690
1c70
ENDCHAR
STARTCHAR 01-14-04
ENCODING 11812
SWIDTH 960 0
DWIDTH 12 0
BBX 12 12 0 -2
BITMAP
0000
0000
0200
0200
0200
0200
0200
0200
0200
0200
0200
0000
ENDCHAR
STARTCHAR 01-14-05
ENCODING 11813
SWIDTH 960 0
DWIDTH 12 0
BBX 12 12 0 -2
BITMAP
0000
0260
0380
1e00
0260
0780
3a00
0230
03c0
3e00
0200
0200
ENDCHAR
STARTCHAR 01-14-06
ENCODING 11814
SWIDTH 960 0
DWIDTH 12 0
BBX 12 12 0 -2
BITMAP
0000
0200
0200
7ff0
0200
0200
3fe0
0200
0200
7ff0
0200
0200
ENDCHAR
STARTCHAR 01-14-07
ENCODING 11815
SWIDTH 960 0
DWIDTH 12 0
BBX 12 12 0 -2
BITMAP
0000
0000
3fe0
0000
0000
7ff0
0200
0200
0200
0200
0200
0e00
ENDCHAR
STARTCHAR 01-14-08
ENCODING 11816
SWIDTH 960 0
DWIDTH 12 0
BBX 12 12 0 -2
BITMAP
0000
0a00
0a00
13f0
1400
3be0
5040
1080
1100
1200
1410
13f0
ENDCHAR
STARTCHAR 01-14-09
ENCODING 11817
SWIDTH 960 0
DWIDTH 12 0
BBX 12 12 0 -2
BITMAP
0000
08c0
0a40
1220
1420
3810
53e0
1120
1120
1220
1420
18c0
ENDCHAR
STARTCHAR 01-14-10
ENCODING 11818
SWIDTH 960 0
DWIDTH 12 0
BBX 12 12 0 -2
BITMAP
0000
0880
0880
17f0
1080
3080
50f0
1110
1110
1210
1210
1460
ENDCHAR
STARTCHAR 01-14-11
ENCODING 11819
SWIDTH 960 0
DWIDTH 12 0
BBX 12 12 0 -2
BITMAP
0000
0be0
0820
1240
1180
37f0
5090
10a0
1080
1080
1080
1380
ENDCHAR
STARTCHAR 01-14-12
ENCODING 11820
SWIDTH 960 0
DWIDTH 12 0
BBX 12 12 0 -2
BITMAP
0000
0fc0
0a40
1240
13f0
3210
5210
1320
14a0
1440
18a0
1310
ENDCHAR
STARTCHAR 01-14-13
ENCODING 11821
SWIDTH 960 0
DWIDTH 12 0
BBX 12 12 0 -2
BITMAP
0000
0a00
0a00
13f0
1240
3440
5140
1160
1250
1450
1040
11c0
ENDCHAR
STARTCHAR 01-14-14
ENCODING 11822
SWIDTH 960 0
DWIDTH 12 0
BBX 12 12 0 -2
BITMAP
0000
0900
0900
17f0
1100
3280
57f0
1a90
1290
1290
12e0
1080
ENDCHAR
STARTCHAR 01-14-15
ENCODING 11823
SWIDTH 960 0
DWIDTH 12 0
BBX 12 12 0 -2
BITMAP
0000
0880
0880
17f0
1080
3080
5ff0
1100
1120
1220
13d0
1410
ENDCHAR
STARTCHAR 01-14-16
ENCODING 11824
SWIDTH 960 0
DWIDTH 12 0
BBX 12 12 0 -2
BITMAP
0000
0b00
0880
1220
1220
3240
5660
1690
1a90
1300
1220
1de0
ENDCHAR
STARTCHAR 01-14-17
ENCODING 11825
SWIDTH 960 0
DWIDTH 12 0
BBX 12 12 0 -2
BITMAP
0000
0900
09e0
1220
1640
3180
52c0
1c30
1100
1080
1060
1380
ENDCHAR
STARTCHAR 01-14-18
ENCODING 11826
SWIDTH 960 0
DWIDTH 12 0
BBX 12 12 0 -2
BITMAP
0000
0ff0
0c10
1410
15d0
3550
5550
15d0
1550
1410
17f0
1410
ENDCHAR
STARTCHAR 01-14-19
ENCODING 11827
SWIDTH 960 0
DWIDTH 12 0
BBX 12 12 0 -2
BITMAP
0000
08a0
0ff0
10a0
10c0
37f0
5100
1360
1580
1100
1110
10f0
ENDCHAR
STARTCHAR 01-14-20
ENCODING 11828
SWIDTH 960 0
DWIDTH 12 0
BBX 12 12 0 -2
BITMAP
0000
09c0
0940
1220
1410
33e0
5220
13e0
1220
13e0
1220
1260
ENDCHAR
STARTCHAR 01-14-21
ENCODING 11829
SWIDTH 960 0
DWIDTH 12 0
BBX 12 12 0 -2
BITMAP
0000
0880
0a90
12a0
11a0
3080
57f0
1140
1140
1150
1250
1430
ENDCHAR
STARTCHAR 01-14-22
ENCODING 11830
SWIDTH 960 0
DWIDTH 12 0
BBX 12 12 0 -2
BITMAP
0000
0900
0940
1260
17a0
3480
57e0
1480
1880
17f0
1080
1080
ENDCHAR
STARTCHAR 01-14-23
ENCODING 11831
SWIDTH 960 0
DWIDTH 12 0
BBX 12 12 0 -2
BITMAP
0000
0ff0
0c10
15d0
1410
35d0
5550
1550
15d0
1550
1410
1470
ENDCHAR
STARTCHAR 01-14-24
ENCODING 11832
SWIDTH 960 0
DWIDTH 12 0
BBX 12 12 0 -2
BITMAP
0000
0a00
0bf0
1400
1be0
3320
52a0
1ff0
1520
14a0
17f0
10c0
ENDCHAR
STARTCHAR 01-14-25
ENCODING 11833
SWIDTH 960 0
DWIDTH 12 0
BBX 12 12 0 -2
BITMAP
0000
0ff0
0880
13e0
1120
3120
57f0
1000
13e0
1220
13e0
1220
ENDCHAR
STARTCHAR 01-14-26
ENCODING 11834
SWIDTH 960 0
DWIDTH 12 0
BBX 12 12 0 -2
BITMAP
0000
0880
0ff0
1080
12a0
32a0
55d0
1490
11c0
1140
1220
1410
ENDCHAR
STARTCHAR 01-14-27
ENCODING 11835
SWIDTH 960 0
DWIDTH 12 0
BBX 12 12 0 -2
BITMAP
0000
1400
1470
17d0
3a50
2250
6fd0
2250
2250
2570
24d0
2800
ENDCHAR
STARTCHAR 01-14-28
ENCODING 11836
SWIDTH 960 0
DWIDTH 12 0
BBX 12 12 0 -2
BITMAP
0000
0920
0a40
1ff0
1240
3340
5ef0
1240
1240
1440
1440
1840
ENDCHAR
STARTCHAR 01-14-29
ENCODING 11837
SWIDTH 960 0
DWIDTH 12 0
BBX 12 12 0 -2
BITMAP
0000
0940
0940
17f0
1550
37f0
5550
1550
1ff0
1240
1220
1420
ENDCHAR
STARTCHAR 01-14-30
ENCODING 11838
SWIDTH 960 0
DWIDTH 12 0
BBX 12 12 0 -2
BITMAP
0000
0880
0aa0
1290
1490
37f0
5410
15d0
1550
15d0
1550
1430
ENDCHAR
STARTCHAR 01-14-31
ENCODING 11839
SWIDTH 960 0
DWIDTH 12 0
BBX 12 12 0 -2
BITMAP
0000
0880
0ff0
1410
13e0
3000
57f0
1080
12a0
1490
1890
1380
ENDCHAR
STARTCHAR 01-14-32
ENCODING 11840
SWIDTH 960 0
DWIDTH 12 0
BBX 12 12 0 -2
BITMAP
0000
0be0
0aa0
13e0
12a0
33e0
5080
17f0
11c0
12a0
1490
1080
ENDCHAR
STARTCHAR 01-14-33
ENCODING 11841
SWIDTH 960 0
DWIDTH 12 0
BBX 12 12 0 -2
BITMAP
0000
0940
0ff0
1140
1080
33e0
52a0
12a0
17f0
1180
1240
1430
ENDCHAR
STARTCHAR 01-14-34
ENCODING 11842
SWIDTH 960 0
DWIDTH 12 0
BBX 12 12 0 -2
BITMAP
0000
1ff0
1550
1550
3760
2560
6750
2550
2550
2f70
2140
2140
ENDCHAR
STARTCHAR 01-14-35
ENCODING 11843
SWIDTH 960 0
DWIDTH 12 0
BBX 12 12 0 -2
BITMAP
0000
08e0
0f40
1520
1490
37e0
5520
1ff0
1520
1ff0
1420
14e0
ENDCHAR
STARTCHAR 01-14-36
ENCODING 11844
SWIDTH 960 0
DWIDTH 12 0
BBX 12 12 0 -2
BITMAP
0000
1280
1ff0
1280
37e0
22a0
6ff0
22a0
27e0
26c0
2aa0
3290
ENDCHAR
STARTCHAR 01-14-37
ENCODING 11845
SWIDTH 960 0
DWIDTH 12 0
BBX 12 12 0 -2
BITMAP
0000
1240
1fc0
1270
3f90
2ad0
6fd0
2aa0
2fa0
2220
2fd0
2290
ENDCHAR
STARTCHAR 01-14-38
ENCODING 11846
SWIDTH 960 0
DWIDTH 12 0
BBX 12 12 0 -2
BITMAP
0000
1ff0
1280
1fe0
3aa0
2fe0
6420
26f0
2aa0
26a0
23f0
2c20
ENDCHAR
STARTCHAR 01-14-39
ENCODING 11847
SWIDTH 960 0
DWIDTH 12 0
BBX 12 12 0 -2
BITMAP
0000
0a20
0ff0
1080
13e0
3080
57f0
12a0
17f0
1220
13e0
1220
ENDCHAR
STARTCHAR 01-14-40
ENCODING 11848
SWIDTH 960 0
DWIDTH 12 0
BBX 12 12 0 -2
BITMAP
0000
1260
1fd0
1070
2f40
2940
6f40
2a60
26a0
2bb0
32b0
2710
ENDCHAR
STARTCHAR 01-14-41
ENCODING 11849
SWIDTH 960 0
DWIDTH 12 0
BBX 12 12 0 -2
BITMAP
0000
09c0
0a20
17f0
1eb0
35d0
57f0
13e0
1220
13e0
1220
13e0
ENDCHAR
STARTCHAR 01-14-42
ENCODING 11850
SWIDTH 960 0
DWIDTH 12 0
BBX 12 12 0 -2
BITMAP
0000
1540
1fc0
1570
3490
27d0
68d0
2ea0
2aa0
2ea0
2150
26d0
ENDCHAR
STARTCHAR 01-14-43
ENCODING 11851
SWIDTH 960 0
DWIDTH 12 0
BBX 12 12 0 -2
BITMAP
0000
0880
0ff0
17f0
15d0
3550
55d0
17f0
1220
13e0
1220
17f0
ENDCHAR
STARTCHAR 01-14-44
ENCODING 11852
SWIDTH 960 0
DWIDTH 12 0
BBX 12 12 0 -2
BITMAP
0000
0bc0
0ff0
1540
1670
35e0
57f0
15e0
15e0
17f0
1a10
13f0
ENDCHAR
STARTCHAR 01-14-45
ENCODING 11853
SWIDTH 960 0
DWIDTH 12 0
BBX 12 12 0 -2
BITMAP
0000
17f0
12a0
17f0
35b0
26d0
67f0
25b0
26d0
27f0
2490
2430
ENDCHAR
STARTCHAR 01-14-46
ENCODING 11854
SWIDTH 960 0
DWIDTH 12 0
BBX 12 12 0 -2
BITMAP
0000
1200
17f0
19c0
37f0
2be0
6aa0
2be0
2be0
2be0
27f0
2550
ENDCHAR
STARTCHAR 01-14-47
ENCODING 11855
SWIDTH 960 0
DWIDTH 12 0
BBX 12 12 0 -2
BITMAP
0000
0780
1840
6230
0480
0840
3fa0
08a0
0880
1090
1090
6070
ENDCHAR
STARTCHAR 01-14-48
ENCODING 11856
SWIDTH 960 0
DWIDTH 12 0
BBX 12 12 0 -2
BITMAP
0000
3fc0
0440
0840
1180
7fe0
2220
3fe0
2920
0910
1110
60f0
ENDCHAR
STARTCHAR 01-14-49
ENCODING 11857
SWIDTH 960 0
DWIDTH 12 0
BBX 12 12 0 -2
BITMAP
0000
38e0
28a0
28a0
2fa0
2020
3fe0
2920
0900
0910
1110
60f0
ENDCHAR
STARTCHAR 01-14-50
ENCODING 11858
SWIDTH 960 0
DWIDTH 12 0
BBX 12 12 0 -2
BITMAP
0000
0200
7ff0
0700
1080
3fc0
5070
1fc0
1940
0910
1110
60f0
ENDCHAR
STARTCHAR 01-14-51
ENCODING 11859
SWIDTH 960 0
DWIDTH 12 0
BBX 12 12 0 -2
BITMAP
0000
0600
3fe0
2020
3fe0
2020
2020
3fe0
2020
0880
1040
6030
ENDCHAR
STARTCHAR 01-14-52
ENCODING 11860
SWIDTH 960 0
DWIDTH 12 0
BBX 12 12 0 -2
BITMAP
0000
3ff0
2010
4010
1fc0
1040
1fc0
1040
1fc0
1040
1040
7ff0
ENDCHAR
STARTCHAR 01-14-53
ENCODING 11861
SWIDTH 960 0
DWIDTH 12 0
BBX 12 12 0 -2
BITMAP
0000
2100
1280
1440
0820
17d0
0100
2fe0
2100
4540
4520
4b20
ENDCHAR
STARTCHAR 01-14-54
ENCODING 11862
SWIDTH 960 0
DWIDTH 12 0
BBX 12 12 0 -2
BITMAP
0000
2080
17f0
1080
03e0
0080
17f0
23e0
22a0
43e0
4220
4260
ENDCHAR
STARTCHAR 01-14-55
ENCODING 11863
SWIDTH 960 0
DWIDTH 12 0
BBX 12 12 0 -2
BITMAP
0000
17f0
5550
37d0
34d0
17f0
1540
3550
37b0
4000
4aa0
5150
ENDCHAR
STARTCHAR 01-14-56
ENCODING 11864
SWIDTH 960 0
DWIDTH 12 0
BBX 12 12 0 -2
BITMAP
0000
0200
0400
1f80
1080
1080
1080
1080
1080
1080
2090
4070
ENDCHAR
STARTCHAR 01-14-57
ENCODING 11865
SWIDTH 960 0
DWIDTH 12 0
BBX 12 12 0 -2
BITMAP
0000
3fc0
2040
2040
2f40
2440
2f40
2940
2f40
2950
2f30
4020
ENDCHAR
STARTCHAR 01-14-58
ENCODING 11866
SWIDTH 960 0
DWIDTH 12 0
BBX 12 12 0 -2
BITMAP
0000
0000
3ff0
0010
0010
0010
0190
0e10
3010
0020
0020
00c0
ENDCHAR
STARTCHAR 01-14-59
ENCODING 11867
SWIDTH 960 0
DWIDTH 12 0
BBX 12 12 0 -2
BITMAP
0000
07f0
0110
7910
1110
1110
1110
1110
1a10
6210
0410
0860
ENDCHAR
STARTCHAR 01-14-60
ENCODING 11868
SWIDTH 960 0
DWIDTH 12 0
BBX 12 12 0 -2
BITMAP
0000
3e90
0090
0090
0090
7f90
1490
1490
1490
1410
2610
4430
ENDCHAR
STARTCHAR 01-14-61
ENCODING 11869
SWIDTH 960 0
DWIDTH 12 0
BBX 12 12 0 -2
BITMAP
0000
3fe0
0220
0220
0420
18c0
7df0
1450
1450
2490
2490
5960
ENDCHAR
STARTCHAR 01-14-62
ENCODING 11870
SWIDTH 960 0
DWIDTH 12 0
BBX 12 12 0 -2
BITMAP
0000
0850
2a50
2a50
2a50
5d50
4950
0850
7f50
0810
0f10
7830
ENDCHAR
STARTCHAR 01-14-63
ENCODING 11871
SWIDTH 960 0
DWIDTH 12 0
BBX 12 12 0 -2
BITMAP
0000
1490
1e90
7290
0c90
1d90
7790
1e90
7290
0c10
1d10
6330
ENDCHAR
STARTCHAR 01-14-64
ENCODING 11872
SWIDTH 960 0
DWIDTH 12 0
BBX 12 12 0 -2
BITMAP
0000
0850
2950
2950
4a50
1450
6350
0850
2950
4a10
1410
6330
ENDCHAR
STARTCHAR 01-14-65
ENCODING 11873
SWIDTH 960 0
DWIDTH 12 0
BBX 12 12 0 -2
BITMAP
0000
1050
3e50
2250
3e50
2250
7f50
4950
7f50
4910
7f10
2230
ENDCHAR
STARTCHAR 01-14-66
ENCODING 11874
SWIDTH 960 0
DWIDTH 12 0
BBX 12 12 0 -2
BITMAP
0000
7c80
0480
29f0
7e90
4a90
7e90
4a90
7e90
4b10
4b10
4e60
ENDCHAR
STARTCHAR 01-14-67
ENCODING 11875
SWIDTH 960 0
DWIDTH 12 0
BBX 12 12 0 -2
BITMAP
0000
3c80
2480
4bf0
7e90
4a90
5290
7e90
1910
2960
2810
47f0
ENDCHAR
STARTCHAR 01-14-68
ENCODING 11876
SWIDTH 960 0
DWIDTH 12 0
BBX 12 12 0 -2
BITMAP
0000
3480
5280
7ff0
1890
7e90
2490
7e90
2490
2d10
2310
1e60
ENDCHAR
STARTCHAR 01-14-69
ENCODING 11877
SWIDTH 960 0
DWIDTH 12 0
BBX 12 12 0 -2
BITMAP
0000
3c80
0480
09f0
7e90
0890
1890
7e90
5a90
5b10
5f10
7260
ENDCHAR
STARTCHAR 01-14-70
ENCODING 11878
SWIDTH 960 0
DWIDTH 12 0
BBX 12 12 0 -2
BITMAP
0000
7e80
4280
7ff0
7e90
4290
3c90
2490
3c90
3d10
2510
3e60
ENDCHAR
STARTCHAR 01-14-71
ENCODING 11879
SWIDTH 960 0
DWIDTH 12 0
BBX 12 12 0 -2
BITMAP
0000
7e80
4280
7ff0
0090
7e90
4290
7e90
7e90
4310
7f10
4260
ENDCHAR
STARTCHAR 01-14-72
ENCODING 11880
SWIDTH 960 0
DWIDTH 12 0
BBX 12 12 0 -2
BITMAP
0000
2880
7c80
3bf0
7c90
5490
7c90
1090
7c90
7d10
1d10
6260
ENDCHAR
STARTCHAR 01-14-73
ENCODING 11881
SWIDTH 960 0
DWIDTH 12 0
BBX 12 12 0 -2
BITMAP
0000
11f0
7d50
15f0
2550
4df0
2480
7e40
36a0
3790
3b90
5270
ENDCHAR
STARTCHAR 01-14-74
ENCODING 11882
SWIDTH 960 0
DWIDTH 12 0
BBX 12 12 0 -2
BITMAP
0000
1000
1ff0
1010
2010
4010
1f10
0010
0010
3fa0
0020
00c0
ENDCHAR
STARTCHAR 01-14-75
ENCODING 11883
SWIDTH 960 0
DWIDTH 12 0
BBX 12 12 0 -2
BITMAP
0000
1000
1ff0
1010
2010
5f90
0010
0190
0e10
3020
0020
00c0
ENDCHAR
STARTCHAR 01-14-76
ENCODING 11884
SWIDTH 960 0
DWIDTH 12 0
BBX 12 12 0 -2
BITMAP
0000
1000
1ff0
1410
2790
4890
0890
1510
0390
0220
0c20
10c0
ENDCHAR
STARTCHAR 01-14-77
ENCODING 11885
SWIDTH 960 0
DWIDTH 12 0
BBX 12 12 0 -2
BITMAP
0000
7ff0
4200
4ac0
4b40
4e40
5ac0
4a00
4840
47c0
4000
7ff0
ENDCHAR
STARTCHAR 01-14-78
ENCODING 11886
SWIDTH 960 0
DWIDTH 12 0
BBX 12 12 0 -2
BITMAP
0000
0400
3fe0
2220
3fe0
2420
3fe0
0900
1100
7ff0
0100
0100
ENDCHAR
STARTCHAR 01-14-79
ENCODING 11887
SWIDTH 960 0
DWIDTH 12 0
BBX 12 12 0 -2
BITMAP
0000
0200
0200
03e0
0200
0200
7ff0
0200
0380
0260
0200
0200
ENDCHAR
STARTCHAR 01-14-80
ENCODING 11888
SWIDTH 960 0
DWIDTH 12 0
BBX 12 12 0 -2
BITMAP
0000
0200
03f0
0200
3fe0
2020
3f20
2120
3f20
2020
3fe0
2020
ENDCHAR
STARTCHAR 01-14-81
ENCODING 11889
SWIDTH 960 0
DWIDTH 12 0
BBX 12 12 0 -2
BITMAP
0000
11f0
7d10
4510
7d10
4510
7d10
4110
7d10
4160
4500
3d00
ENDCHAR
STARTCHAR 01-14-82
ENCODING 11890
SWIDTH 960 0
DWIDTH 12 0
BBX 12 12 0 -2
BITMAP
0000
3ff0
2100
2fe0
2100
2100
3ff0
2100
2fe0
2100
4100
5ff0
ENDCHAR
STARTCHAR 01-14-83
ENCODING 11891
SWIDTH 960 0
DWIDTH 12 0
BBX 12 12 0 -2
BITMAP
0000
3ff0
2000
2240
2ff0
2240
2ff0
27e0
2420
27e0
4420
47e0
ENDCHAR
STARTCHAR 01-14-84
ENCODING 11892
SWIDTH 960 0
DWIDTH 12 0
BBX 12 12 0 -2
BITMAP
0000
3ff0
2240
3ff0
2920
2fe0
2920
2fe0
3ff0
3110
5150
57b0
ENDCHAR
STARTCHAR 01-14-85
ENCODING 11893
SWIDTH 960 0
DWIDTH 12 0
BBX 12 12 0 -2
BITMAP
0000
0020
78c0
4b80
4880
48f0
4f80
4880
7880
4890
0090
0070
ENDCHAR
STARTCHAR 01-14-86
ENCODING 11894
SWIDTH 960 0
DWIDTH 12 0
BBX 12 12 0 -2
BITMAP
0000
03f0
7a90
4a90
4a90
4bf0
4a10
4a00
7a00
4a10
0210
01f0
ENDCHAR
STARTCHAR 01-14-87
ENCODING 11895
SWIDTH 960 0
DWIDTH 12 0
BBX 12 12 0 -2
BITMAP
0000
03e0
7800
4800
4800
4ff0
4900
4900
7940
4a20
03d0
0610
ENDCHAR
STARTCHAR 01-14-88
ENCODING 11896
SWIDTH 960 0
DWIDTH 12 0
BBX 12 12 0 -2
BITMAP
0000
0080
7880
4ff0
4c10
4a00
4a60
4b80
7a00
4a00
0210
01f0
ENDCHAR
STARTCHAR 01-14-89
ENCODING 11897
SWIDTH 960 0
DWIDTH 12 0
BBX 12 12 0 -2
BITMAP
0000
0080
7880
48f0
4880
4880
4be0
4a20
7a20
4a20
03e0
0220
ENDCHAR
STARTCHAR 01-14-90
ENCODING 11898
SWIDTH 960 0
DWIDTH 12 0
BBX 12 12 0 -2
BITMAP
0000
0200
7a00
4bf0
4c10
4bd0
4a50
4a50
7bd0
4a50
0020
00c0
ENDCHAR
STARTCHAR 01-14-91
ENCODING 11899
SWIDTH 960 0
DWIDTH 12 0
BBX 12 12 0 -2
BITMAP
0000
0080
7880
4ff0
4880
4880
4ff0
4900
7940
4a20
03d0
0610
ENDCHAR
STARTCHAR 01-14-92
ENCODING 11900
SWIDTH 960 0
DWIDTH 12 0
BBX 12 12 0 -2
BITMAP
0000
0140
7ff0
4950
4ff0
4d40
4ff0
4d50
7950
4a50
0260
0440
ENDCHAR
STARTCHAR 01-14-93
ENCODING 11901
SWIDTH 960 0
DWIDTH 12 0
BBX 12 12 0 -2
BITMAP
0000
0400
7470
5f50
5550
5550
5550
5550
7550
5970
0950
1300
ENDCHAR
STARTCHAR 01-14-94
ENCODING 11902
SWIDTH 960 0
DWIDTH 12 0
BBX 12 12 0 -2
BITMAP
0000
07f0
7a20
4a20
4be0
4a20
4be0
4a20
7a30
4be0
0620
0020
ENDCHAR
STARTCHAR 01-15-01
ENCODING 12065
SWIDTH 960 0
DWIDTH 12 0
BBX 12 12 0 -2
BITMAP
0000
0220
7940
4ff0
4880
4880
4be0
4880
7880
4ff0
0080
0080
ENDCHAR
STARTCHAR 01-15-02
ENCODING 12066
SWIDTH 960 0
DWIDTH 12 0
BBX 12 12 0 -2
BITMAP
0000
0080
78f0
4910
4ea0
4840
4b80
48f0
7910
4ea0
0040
0380
ENDCHAR
STARTCHAR 01-15-03
ENCODING 12067
SWIDTH 960 0
DWIDTH 12 0
BBX 12 12 0 -2
BITMAP
0000
10f0
7e90
1290
22f0
4600
7ff0
0040
1e40
1240
1e40
12c0
ENDCHAR
STARTCHAR 01-15-04
ENCODING 12068
SWIDTH 960 0
DWIDTH 12 0
BBX 12 12 0 -2
BITMAP
0000
0150
7e50
5250
5fd0
5250
5250
5750
7ad0
5a90
0210
0230
ENDCHAR
STARTCHAR 01-15-05
ENCODING 12069
SWIDTH 960 0
DWIDTH 12 0
BBX 12 12 0 -2
BITMAP
0000
0080
7940
4a20
4c10
4ff0
4880
4ff0
7ca0
4aa0
02c0
07f0
ENDCHAR
STARTCHAR 01-15-06
ENCODING 12070
SWIDTH 960 0
DWIDTH 12 0
BBX 12 12 0 -2
BITMAP
0000
0080
7ff0
4940
4aa0
4ff0
4aa0
4be0
7aa0
4be0
0090
0070
ENDCHAR
STARTCHAR 01-15-07
ENCODING 12071
SWIDTH 960 0
DWIDTH 12 0
BBX 12 12 0 -2
BITMAP
0000
0080
7ff0
4a40
4a40
4b60
4c90
4880
7ff0
4880
0080
0080
ENDCHAR
STARTCHAR 01-15-08
ENCODING 12072
SWIDTH 960 0
DWIDTH 12 0
BBX 12 12 0 -2
BITMAP
0000
07f0
7940
4940
4f70
4c10
4c10
4f70
7d50
4140
0140
07f0
ENDCHAR
STARTCHAR 01-15-09
ENCODING 12073
SWIDTH 960 0
DWIDTH 12 0
BBX 12 12 0 -2
BITMAP
0000
03e0
7aa0
4be0
4aa0
4be0
4880
4ff0
7cd0
4cf0
0730
0430
ENDCHAR
STARTCHAR 01-15-10
ENCODING 12074
SWIDTH 960 0
DWIDTH 12 0
BBX 12 12 0 -2
BITMAP
0000
1040
1040
7ff0
1040
7df0
0000
7df0
4510
4510
7df0
4510
ENDCHAR
STARTCHAR 01-15-11
ENCODING 12075
SWIDTH 960 0
DWIDTH 12 0
BBX 12 12 0 -2
BITMAP
0000
03e0
7a20
4ae0
4aa0
4ff0
4c10
4dd0
7d50
4dd0
0550
0430
ENDCHAR
STARTCHAR 01-15-12
ENCODING 12076
SWIDTH 960 0
DWIDTH 12 0
BBX 12 12 0 -2
BITMAP
0000
03e0
7a20
4be0
4a20
4be0
4900
4bf0
7e90
4ad0
0330
03f0
ENDCHAR
STARTCHAR 01-15-13
ENCODING 12077
SWIDTH 960 0
DWIDTH 12 0
BBX 12 12 0 -2
BITMAP
0000
0080
7bf0
48c0
4920
4bf0
4a60
4b80
7a60
4b90
0460
0580
ENDCHAR
STARTCHAR 01-15-14
ENCODING 12078
SWIDTH 960 0
DWIDTH 12 0
BBX 12 12 0 -2
BITMAP
0000
03f0
7a80
4be0
4a80
4be0
4a80
4bf0
7810
4d50
0ab0
1030
ENDCHAR
STARTCHAR 01-15-15
ENCODING 12079
SWIDTH 960 0
DWIDTH 12 0
BBX 12 12 0 -2
BITMAP
0000
0140
7ff0
49c0
4be0
4aa0
4be0
4880
7be0
4ff0
0140
0630
ENDCHAR
STARTCHAR 01-15-16
ENCODING 12080
SWIDTH 960 0
DWIDTH 12 0
BBX 12 12 0 -2
BITMAP
0000
0140
7ff0
4940
4ff0
4ff0
4d50
4ff0
7a20
4be0
0220
03e0
ENDCHAR
STARTCHAR 01-15-17
ENCODING 12081
SWIDTH 960 0
DWIDTH 12 0
BBX 12 12 0 -2
BITMAP
0000
07f0
7900
4be0
4be0
4a20
4be0
4a20
7ff0
4a40
0190
0e70
ENDCHAR
STARTCHAR 01-15-18
ENCODING 12082
SWIDTH 960 0
DWIDTH 12 0
BBX 12 12 0 -2
BITMAP
0000
0080
7ff0
4880
4ff0
4a20
4be0
4940
7ff0
4be0
0220
03e0
ENDCHAR
STARTCHAR 01-15-19
ENCODING 12083
SWIDTH 960 0
DWIDTH 12 0
BBX 12 12 0 -2
BITMAP
0000
0740
7240
5f70
5590
5750
5550
5720
7520
5720
0d50
01d0
ENDCHAR
STARTCHAR 01-15-20
ENCODING 12084
SWIDTH 960 0
DWIDTH 12 0
BBX 12 12 0 -2
BITMAP
0000
0140
7ff0
4a20
4be0
4a20
4be0
4bf0
7e90
4ad0
0330
03f0
ENDCHAR
STARTCHAR 01-15-21
ENCODING 12085
SWIDTH 960 0
DWIDTH 12 0
BBX 12 12 0 -2
BITMAP
0000
05e0
7500
5ff0
5050
5ff0
5fa0
5aa0
7fb0
4920
0e70
11b0
ENDCHAR
STARTCHAR 01-15-22
ENCODING 12086
SWIDTH 960 0
DWIDTH 12 0
BBX 12 12 0 -2
BITMAP
0000
3de0
2520
3de0
2720
0240
7ff0
0880
3de0
6530
3de0
2520
ENDCHAR
STARTCHAR 01-15-23
ENCODING 12087
SWIDTH 960 0
DWIDTH 12 0
BBX 12 12 0 -2
BITMAP
0000
07f0
72a0
57f0
5f50
56b0
5bf0
51e0
7220
5540
01c0
0e30
ENDCHAR
STARTCHAR 01-15-24
ENCODING 12088
SWIDTH 960 0
DWIDTH 12 0
BBX 12 12 0 -2
BITMAP
0000
01e0
7100
57f0
55d0
57e0
57f0
55d0
76d0
47e0
0960
16d0
ENDCHAR
STARTCHAR 01-15-25
ENCODING 12089
SWIDTH 960 0
DWIDTH 12 0
BBX 12 12 0 -2
BITMAP
0000
0080
7360
5dd0
57f0
56b0
55d0
57f0
7220
53e0
0220
03e0
ENDCHAR
STARTCHAR 01-15-26
ENCODING 12090
SWIDTH 960 0
DWIDTH 12 0
BBX 12 12 0 -2
BITMAP
0000
0080
72f0
5280
5ff0
5770
55d0
56b0
77f0
5550
06b0
07f0
ENDCHAR
STARTCHAR 01-15-27
ENCODING 12091
SWIDTH 960 0
DWIDTH 12 0
BBX 12 12 0 -2
BITMAP
0000
0200
7ff0
3fe0
1fc0
1040
1fc0
7df0
38e0
7df0
4510
7df0
ENDCHAR
STARTCHAR 01-15-28
ENCODING 12092
SWIDTH 960 0
DWIDTH 12 0
BBX 12 12 0 -2
BITMAP
0000
0460
77f0
5950
5bf0
5550
5bf0
5f50
7440
4ff0
1520
04e0
ENDCHAR
STARTCHAR 01-15-29
ENCODING 12093
SWIDTH 960 0
DWIDTH 12 0
BBX 12 12 0 -2
BITMAP
0000
02f0
7b40
5af0
5a90
5ff0
5290
57f0
7b90
47f0
0260
0d90
ENDCHAR
STARTCHAR 01-15-30
ENCODING 12094
SWIDTH 960 0
DWIDTH 12 0
BBX 12 12 0 -2
BITMAP
0000
0d60
3220
3de0
2220
3de0
7ff0
4f90
1200
3fe0
1040
1fc0
ENDCHAR
STARTCHAR 01-15-31
ENCODING 12095
SWIDTH 960 0
DWIDTH 12 0
BBX 12 12 0 -2
BITMAP
0000
07f0
7550
57f0
52a0
5cf0
56a0
59f0
7fa0
44f0
0ea0
15f0
ENDCHAR
STARTCHAR 01-15-32
ENCODING 12096
SWIDTH 960 0
DWIDTH 12 0
BBX 12 12 0 -2
BITMAP
0000
0200
3fe0
1240
7ff0
6530
3de0
3fe0
0880
7ff0
3340
58f0
ENDCHAR
STARTCHAR 01-15-33
ENCODING 12097
SWIDTH 960 0
DWIDTH 12 0
BBX 12 12 0 -2
BITMAP
0000
7ff0
4210
5fd0
4f90
7ff0
4f90
4a90
4f90
4890
4990
7ff0
ENDCHAR
STARTCHAR 01-15-34
ENCODING 12098
SWIDTH 960 0
DWIDTH 12 0
BBX 12 12 0 -2
BITMAP
0000
0240
0220
0220
0200
3fe0
0200
0200
0200
0200
7ff0
0000
ENDCHAR
STARTCHAR 01-15-35
ENCODING 12099
SWIDTH 960 0
DWIDTH 12 0
BBX 12 12 0 -2
BITMAP
0000
0200
0200
0200
0200
3fe0
0200
02c0
0220
0200
7ff0
0000
ENDCHAR
STARTCHAR 01-15-36
ENCODING 12100
SWIDTH 960 0
DWIDTH 12 0
BBX 12 12 0 -2
BITMAP
0000
13f0
1210
1210
7a10
13f0
1210
1200
1a00
6200
0210
01f0
ENDCHAR
STARTCHAR 01-15-37
ENCODING 12101
SWIDTH 960 0
DWIDTH 12 0
BBX 12 12 0 -2
BITMAP
0000
1210
1290
1290
7a90
1290
1290
1290
1a90
6290
0410
0810
ENDCHAR
STARTCHAR 01-15-38
ENCODING 12102
SWIDTH 960 0
DWIDTH 12 0
BBX 12 12 0 -2
BITMAP
0000
1200
1200
13f0
7a10
1410
1010
1390
1810
6010
0020
00c0
ENDCHAR
STARTCHAR 01-15-39
ENCODING 12103
SWIDTH 960 0
DWIDTH 12 0
BBX 12 12 0 -2
BITMAP
0000
17f0
1410
1410
7dd0
1550
1550
15d0
1d50
6410
0410
0430
ENDCHAR
STARTCHAR 01-15-40
ENCODING 12104
SWIDTH 960 0
DWIDTH 12 0
BBX 12 12 0 -2
BITMAP
0000
17f0
1020
1020
7ba0
12a0
12a0
13a0
1aa0
6020
0020
0060
ENDCHAR
STARTCHAR 01-15-41
ENCODING 12105
SWIDTH 960 0
DWIDTH 12 0
BBX 12 12 0 -2
BITMAP
0000
1030
13c0
1200
7bf0
1240
12c0
1260
1a50
6440
0440
0840
ENDCHAR
STARTCHAR 01-15-42
ENCODING 12106
SWIDTH 960 0
DWIDTH 12 0
BBX 12 12 0 -2
BITMAP
0000
17c0
1140
1170
7a10
1410
10a0
17f0
19c0
62a0
0490
0080
ENDCHAR
STARTCHAR 01-15-43
ENCODING 12107
SWIDTH 960 0
DWIDTH 12 0
BBX 12 12 0 -2
BITMAP
0000
1220
1220
1490
7880
1140
1630
13e0
1a20
6220
03e0
0220
ENDCHAR
STARTCHAR 01-15-44
ENCODING 12108
SWIDTH 960 0
DWIDTH 12 0
BBX 12 12 0 -2
BITMAP
0000
7ff0
5510
5510
7ca0
5440
54a0
7f10
0200
3fe0
0200
7ff0
ENDCHAR
STARTCHAR 01-15-45
ENCODING 12109
SWIDTH 960 0
DWIDTH 12 0
BBX 12 12 0 -2
BITMAP
0000
1080
17f0
1410
7be0
1000
17f0
1140
1940
6140
0250
0430
ENDCHAR
STARTCHAR 01-15-46
ENCODING 12110
SWIDTH 960 0
DWIDTH 12 0
BBX 12 12 0 -2
BITMAP
0000
17e0
1240
1180
7ff0
1490
17f0
1490
1ff0
6490
0490
04b0
ENDCHAR
STARTCHAR 01-15-47
ENCODING 12111
SWIDTH 960 0
DWIDTH 12 0
BBX 12 12 0 -2
BITMAP
0000
1100
1220
17d0
7940
1230
1480
11e0
1b40
6480
0140
0630
ENDCHAR
STARTCHAR 01-15-48
ENCODING 12112
SWIDTH 960 0
DWIDTH 12 0
BBX 12 12 0 -2
BITMAP
0000
2e30
23c0
2440
7e40
2370
2340
2b40
3540
65f0
0a00
09f0
ENDCHAR
STARTCHAR 01-15-49
ENCODING 12113
SWIDTH 960 0
DWIDTH 12 0
BBX 12 12 0 -2
BITMAP
0000
1100
17e0
1520
7fe0
1520
17e0
1240
1c40
67f0
0040
0040
ENDCHAR
STARTCHAR 01-15-50
ENCODING 12114
SWIDTH 960 0
DWIDTH 12 0
BBX 12 12 0 -2
BITMAP
0000
1100
17e0
1120
7ff0
1120
17e0
1110
1d60
63c0
0520
0b10
ENDCHAR
STARTCHAR 01-15-51
ENCODING 12115
SWIDTH 960 0
DWIDTH 12 0
BBX 12 12 0 -2
BITMAP
0000
1060
1380
1080
7ff0
12a0
17f0
12a0
1ff0
6080
0080
07f0
ENDCHAR
STARTCHAR 01-15-52
ENCODING 12116
SWIDTH 960 0
DWIDTH 12 0
BBX 12 12 0 -2
BITMAP
0000
1080
7c80
1080
7fe0
28a0
46a0
11a0
7ca0
1170
1130
7e10
ENDCHAR
STARTCHAR 01-15-53
ENCODING 12117
SWIDTH 960 0
DWIDTH 12 0
BBX 12 12 0 -2
BITMAP
0000
67f0
1410
47f0
2560
1580
2510
4af0
1200
3fe0
0200
7ff0
ENDCHAR
STARTCHAR 01-15-54
ENCODING 12118
SWIDTH 960 0
DWIDTH 12 0
BBX 12 12 0 -2
BITMAP
0000
1080
17f0
1140
7be0
1010
13e0
1220
1be0
6220
03e0
0420
ENDCHAR
STARTCHAR 01-15-55
ENCODING 12119
SWIDTH 960 0
DWIDTH 12 0
BBX 12 12 0 -2
BITMAP
0000
17f0
1410
13e0
7880
11d0
16e0
1340
1ee0
6360
0650
0180
ENDCHAR
STARTCHAR 01-15-56
ENCODING 12120
SWIDTH 960 0
DWIDTH 12 0
BBX 12 12 0 -2
BITMAP
0000
1240
1390
11f0
7920
15e0
15e0
1520
1de0
67f0
0220
0410
ENDCHAR
STARTCHAR 01-15-57
ENCODING 12121
SWIDTH 960 0
DWIDTH 12 0
BBX 12 12 0 -2
BITMAP
0000
11e0
1120
11e0
7bf0
1210
13f0
13f0
1a10
63f0
0120
0210
ENDCHAR
STARTCHAR 01-15-58
ENCODING 12122
SWIDTH 960 0
DWIDTH 12 0
BBX 12 12 0 -2
BITMAP
0000
17f0
1410
17f0
7c90
1520
17f0
1520
1ff0
6520
0520
0a20
ENDCHAR
STARTCHAR 01-15-59
ENCODING 12123
SWIDTH 960 0
DWIDTH 12 0
BBX 12 12 0 -2
BITMAP
0000
1080
17f0
12a0
7be0
12a0
13e0
10a0
1fd0
67f0
0220
0160
ENDCHAR
STARTCHAR 01-15-60
ENCODING 12124
SWIDTH 960 0
DWIDTH 12 0
BBX 12 12 0 -2
BITMAP
0000
1080
17f0
17e0
7ff0
14a0
17f0
1690
1ff0
6690
0bf0
1290
ENDCHAR
STARTCHAR 01-15-61
ENCODING 12125
SWIDTH 960 0
DWIDTH 12 0
BBX 12 12 0 -2
BITMAP
0000
11c0
1220
17f0
7eb0
15d0
17f0
13e0
1a20
63e0
0220
03e0
ENDCHAR
STARTCHAR 01-15-62
ENCODING 12126
SWIDTH 960 0
DWIDTH 12 0
BBX 12 12 0 -2
BITMAP
0000
1fc0
1ac0
1740
1240
3fe0
7ff0
1540
22a0
3fe0
0200
7ff0
ENDCHAR
STARTCHAR 01-15-63
ENCODING 12127
SWIDTH 960 0
DWIDTH 12 0
BBX 12 12 0 -2
BITMAP
0000
2240
2f40
2770
7590
2750
2050
2720
33a0
4e20
0250
0690
ENDCHAR
ENDFONT
